<svg fill="none" height="70" viewBox="0 0 275 70" width="275" xmlns="http://www.w3.org/2000/svg"><g fill="#fff"><path d="m110.113 22.7055c-2.691 0-5.069 1.383-6.603 3.6343-.469-2.2192-2.128-3.6343-4.6-3.6343-2.4096 0-4.5689 1.1257-6.1023 2.9911l.1878-2.6373h-1.4082l-3.3798 17.3678h1.9402l1.9403-10.0026c.6884-3.3771 3.2545-5.8536 6.2587-5.8536 2.0963 0 3.3173 1.3187 3.3173 3.6665 0 1.0293-.157 1.576-2.2533 12.1897h1.9093c1.095-5.532 1.658-8.4266 1.971-10.0991.751-3.3449 3.286-5.7571 6.228-5.7571 2.128 0 3.317 1.3187 3.317 3.6665 0 1.0293-.157 1.576-2.222 12.1897h1.94c2.128-11.064 2.285-11.6429 2.347-12.7043 0-3.0233-1.846-5.0173-4.788-5.0173z"/><path d="m133.135 23.0593-8.919 14.0551-3.818-14.0551h-2.065l4.506 16.1778-1.189 1.8011c-1.971 2.959-2.941 3.763-5.414 3.763h-1.189l-.344 1.8011h1.533c3.067 0 4.663-1.0935 7.167-4.9852l11.891-18.5578z"/><path d="m136.268 40.4271h3.787v-4.0847h-3.787z"/><path d="m153.666 22.6411c-2.441 0-4.569.9649-6.102 2.5731l-.657-2.1549h-2.316v23.6074h3.474v-7.8799c1.47 1.3187 3.411 2.0906 5.601 2.0906 5.039 0 8.763-3.9239 8.763-9.1342 0-5.2104-3.724-9.1021-8.763-9.1021zm-.281 14.827c-3.192 0-5.539-2.4443-5.539-5.7249 0-3.2485 2.347-5.6928 5.539-5.6928s5.507 2.4443 5.507 5.6928c0 3.2806-2.315 5.7249-5.507 5.7249z"/><path d="m173.959 40.8774c5.163 0 9.013-3.8917 9.013-9.1342 0-5.2104-3.85-9.1021-9.013-9.1021-5.195 0-9.044 3.8596-9.044 9.1021s3.849 9.1342 9.044 9.1342zm0-3.4093c-3.223 0-5.508-2.38-5.508-5.7249 0-3.3128 2.285-5.6928 5.508-5.6928 3.192 0 5.476 2.38 5.476 5.6928 0 3.3449-2.284 5.7249-5.476 5.7249z"/><path d="m199.815 16.8519v7.8155c-1.502-1.2865-3.411-2.0263-5.57-2.0263-5.132 0-8.793 3.8917-8.793 9.1342 0 5.1782 3.661 9.1021 8.793 9.1021 2.347 0 4.444-.9006 5.946-2.4122l.469 1.9941h2.629v-23.6074zm-5.32 20.6162c-3.16 0-5.507-2.4443-5.507-5.7249 0-3.2485 2.347-5.6928 5.507-5.6928 3.192 0 5.54 2.4443 5.54 5.6928 0 3.2484-2.348 5.7249-5.54 5.7249z"/><path d="m215.853 40.8774c4.162 0 7.51-2.7017 8.418-6.7542h-3.505c-.908 2.1228-2.691 3.3449-4.913 3.3449-3.004 0-5.32-2.5087-5.32-5.7249 0-3.2163 2.284-5.6928 5.32-5.6928 2.19 0 4.068 1.2222 4.944 3.2163h3.443c-.939-3.9882-4.194-6.6256-8.387-6.6256-5.038 0-8.856 3.9239-8.856 9.1021s3.818 9.1342 8.856 9.1342z"/><path d="m241.86 23.0593-.407 2.187c-1.533-1.6403-3.692-2.6052-6.196-2.6052-5.038 0-8.793 3.8917-8.793 9.1021 0 5.2103 3.755 9.1342 8.793 9.1342 2.472 0 4.6-.9649 6.134-2.5409l.344 2.0906h2.785v-17.3678zm-6.321 14.3767c-3.192 0-5.539-2.4444-5.539-5.6928 0-3.2485 2.347-5.6928 5.539-5.6928s5.508 2.4122 5.508 5.6928-2.316 5.6928-5.508 5.6928z"/><path d="m255.107 40.8774c4.13 0 6.853-2.1871 6.853-5.5642 0-4.2776-3.474-4.8565-6.321-5.339-2.035-.3538-3.756-.6432-3.756-2.187 0-1.2544 1.189-2.1228 3.098-2.1228 2.035 0 3.286.9006 3.349 2.5409h3.286c-.063-3.3449-2.629-5.5642-6.541-5.5642-3.943 0-6.54 2.1549-6.54 5.2747 0 4.0204 3.317 4.6636 6.133 5.1782 2.066.3538 3.881.7076 3.881 2.3801 0 1.4473-1.44 2.2513-3.317 2.2513-2.034 0-3.536-.9648-3.63-2.7981h-3.38c.094 3.6022 2.785 5.9501 6.885 5.9501z"/><path d="m273.06 37.2108c-2.034 0-3.161-1.1578-3.161-3.2484v-7.8155h5.007v-3.0876h-5.038v-4.0525h-.595l-5.883 6.4325v.7076h3.035v8.105c0 3.8273 2.285 6.1752 5.978 6.1752h2.597v-3.2163z"/></g><g opacity=".7"><path d="m42.1353 70c-1.6774 0-3.5437-.512-5.4443-1.5475-1.0019-.5461-2.3873-1.5076-3.8586-2.526-2.433-1.6897-5.1867-3.6012-6.8984-4.1019-2.6906-.7851-5.9137-.3015-9.028.165-4.5684.6827-8.87923 1.3313-11.27794-1.923-2.73646-3.715-2.22695-9.1653-1.74034-14.4335.18319-1.9912.37783-4.0507.37783-5.9396 0-3.0039-.7614-5.8542-1.4999-8.6077-1.10489-4.1361-2.14681-8.0389-.49806-11.9246 1.50563-3.5444 8.50711-5.7063 13.61941-7.2822 1.0991-.3414 2.141-.66 2.9711-.9501 2.1068-.7339 3.8471-2.67397 5.6905-4.72209 2.6735-2.96408 5.4272-6.024877 9.7265-6.20124299 3.7956-.14792001 7.1675 2.67962299 10.1444 5.17718299 1.5686 1.3199 3.057 2.56584 4.3222 3.08356 1.2938.52341 3.2689.96717 5.3585 1.43368 4.4539.99561 9.5032 2.12211 11.0203 4.59691 1.6945 2.7649.6068 6.9465-.3607 10.6331-.5897 2.2586-1.145 4.3921-1.0534 6.0249.0745 1.2744.9103 2.8389 1.7919 4.5002 1.3911 2.617 2.9712 5.5811 2.1125 8.3517-1.2996 4.193-4.5055 6.5483-7.6083 8.8183-1.477 1.081-2.8682 2.105-3.9731 3.277-1.8319 1.9457-3.5436 4.4262-5.1981 6.8214-1.1621 1.684-2.3644 3.4192-3.578 4.9269-1.2538 1.5531-3.0514 2.3439-5.1352 2.3439zm-19.5045-8.8752c1.1793 0 2.3186.1195 3.3834.4267 1.7575.512 4.534 2.4407 6.9785 4.1418 1.4599 1.0126 2.8395 1.9684 3.8299 2.5089 4.1334 2.2473 8.0491 1.9742 10.2189-.7225 1.2079-1.4963 2.4044-3.2315 3.5608-4.9098 1.6602-2.4066 3.3777-4.8927 5.221-6.8555 1.1164-1.1891 2.5247-2.2188 4.0074-3.3111 3.0628-2.2473 6.2344-4.5742 7.5053-8.6761.8243-2.6569-.7271-5.5697-2.0953-8.1356-.8988-1.6897-1.7461-3.2827-1.8262-4.6196-.0974-1.6783.4637-3.8346 1.0591-6.1159.9503-3.6298 2.0208-7.7487.3893-10.4113-1.4542-2.3724-6.4405-3.4875-10.8429-4.46604-2.1067-.4722-4.0932-.91027-5.4042-1.44506-1.311-.53478-2.8109-1.7921-4.4024-3.12907-2.9139-2.46343-6.2343-5.256833-9.9269-5.108913-4.1791.164987-6.8869 3.180273-9.5089 6.093153-1.8663 2.07656-3.6353 4.03933-5.8107 4.80173-.8358.2901-1.8777.6144-2.9826.9558-5.0608 1.5588-11.98781 3.6979-13.44192 7.1229-1.6144 3.7947-.58393 7.6576.50951 11.7425.7385 2.7763 1.50563 5.6437 1.50563 8.6817 0 1.9002-.18892 3.9654-.37784 5.968-.48661 5.217-.98467 10.6104 1.68883 14.2401 2.28993 3.112 6.52059 2.4805 11.00309 1.8092 1.9293-.2901 3.8986-.586 5.7649-.586z" fill="#055cff"/><path d="m42.1124 69.5391c-1.6144 0-3.4178-.4722-5.3527-1.4109-1.0248-.5007-2.4045-1.3427-3.87-2.2359-2.4789-1.5076-5.2898-3.2201-7.0931-3.715-2.5475-.6998-5.5645-.3243-8.4785.0398-4.4825.5575-8.71887 1.0866-11.04316-2.1562-2.55899-3.5728-2.16971-8.8069-1.79187-13.8703.14885-1.9742.29769-4.0166.26335-5.877-.06298-2.9641-.9217-5.7518-1.7518-8.4485-1.22512-3.9767-2.381531-7.7316-.85873-11.5946 1.42549-3.6126 8.30101-5.8997 13.32171-7.5666 1.0762-.3585 2.0895-.6941 2.9139-1.0013 2.1983-.825 3.9101-2.85603 5.7248-5.01225 2.5132-2.98684 5.1123-6.076079 9.343-6.383297 3.7898-.2787716 7.2304 2.526017 10.276 4.995127 1.5629 1.2687 3.0399 2.46912 4.2879 2.97546 1.3453.54617 3.4349.95579 5.6447 1.39386 4.4253.8761 9.446 1.8661 11.0203 4.3238 1.7461 2.7251.7385 6.9181-.1489 10.6218-.5381 2.2301-1.0419 4.3352-.9274 5.9281.0916 1.2687.9332 2.839 1.8262 4.5002 1.4141 2.6455 3.0228 5.638 2.164 8.3973-1.2823 4.1247-4.6314 6.5938-7.5911 8.7728-1.477 1.0866-2.8796 2.1163-3.973 3.2883-1.6602 1.7694-3.2174 4.0507-4.723 6.2582-1.2766 1.8717-2.5991 3.8117-3.9845 5.4332-1.3339 1.5645-3.1086 2.3496-5.1981 2.3496zm-19.6534-8.0502c1.1851 0 2.3358.1081 3.412.4039 1.8434.5064 4.6715 2.2302 7.1675 3.7492 1.4598.8875 2.8395 1.7295 3.8471 2.2188 4.3108 2.0993 7.9289 1.7978 10.1959-.8648 1.374-1.61 2.6907-3.5443 3.9673-5.4104 1.5114-2.2131 3.08-4.5059 4.7516-6.2923 1.1106-1.1833 2.519-2.2245 4.0131-3.3225 3.0685-2.2586 6.2344-4.5969 7.4881-8.6248.8187-2.6398-.7557-5.5812-2.1468-8.1697-.9045-1.6897-1.7632-3.2884-1.8606-4.614-.1202-1.6385.3893-3.7606.9332-6.0135.8759-3.6411 1.8663-7.7715.1889-10.3942-1.5056-2.3496-6.4576-3.3282-10.8314-4.19295-2.2269-.43807-4.3279-.85338-5.6962-1.41092-1.2881-.52341-2.7822-1.73521-4.3623-3.02098-2.9998-2.43498-6.3832-5.194251-10.0642-4.926858-4.1047.295839-6.6637 3.339568-9.1369 6.275208-1.8376 2.18466-3.5723 4.2442-5.845 5.0975-.8301.3073-1.8491.6486-2.9254 1.007-4.9634 1.6499-11.76453 3.9142-13.14421 7.396-1.48846 3.7663-.34349 7.4756.86444 11.4012.83583 2.7137 1.70028 5.5185 1.76325 8.5281.04008 1.8775-.11449 3.9256-.26334 5.9054-.37211 5.0065-.7614 10.1894 1.73462 13.6769 2.22124 3.1063 6.37174 2.5886 10.76264 2.0367 1.7289-.2161 3.4922-.438 5.1867-.438z" fill="#1559f8"/><path d="m42.0895 69.0784c-1.5514 0-3.2975-.4267-5.2554-1.2744-1.0304-.4495-2.4044-1.172-3.8585-1.9344-2.5361-1.3369-5.4157-2.8503-7.3163-3.3452-2.393-.6145-5.2039-.3414-7.9175-.074-4.4081.4324-8.56431.842-10.81989-2.4065-2.38153-3.4306-2.10674-8.4428-1.83768-13.29.10878-1.9571.21755-3.9825.14313-5.8201-.12595-2.9243-1.082-5.6437-2.00369-8.2721-1.34534-3.8289-2.616251-7.4415-1.21939-11.2761 1.33961-3.6695 8.08342-6.0817 13.00112-7.8397 1.0591-.3812 2.0552-.7339 2.8853-1.0639 2.3014-.9103 3.9845-3.0494 5.7592-5.31371 2.3643-3.00959 4.8088-6.11591 8.965-6.565354 3.767-.403935 7.2992 2.366714 10.4078 4.807384 1.5514 1.2175 3.017 2.37241 4.2478 2.86737 1.3911.56323 3.578.93872 5.9023 1.34265 4.4081.76236 9.4116 1.62716 11.0432 4.06206 1.8033 2.6854.8816 6.8954.063 10.6104-.4809 2.2018-.9389 4.2783-.8015 5.8201.1145 1.263.9618 2.8332 1.8548 4.4945 1.4427 2.6739 3.0743 5.7006 2.2213 8.4428-1.2595 4.0564-4.62 6.5369-7.5797 8.7272-1.4827 1.0981-2.8853 2.1335-3.973 3.2941-1.5343 1.6385-2.977 3.7833-4.3738 5.8542-1.3568 2.014-2.7594 4.0962-4.2765 5.7802-1.4197 1.576-3.1601 2.3611-5.2668 2.3611zm-19.8422-7.231c1.2079 0 2.3815.1024 3.4807.3811 1.935.5007 4.8317 2.0254 7.385 3.368 1.4484.7624 2.8166 1.4792 3.8356 1.923 4.4826 1.9457 7.8144 1.6157 10.1731-1.007 1.5056-1.6726 2.9024-3.7435 4.2535-5.7518 1.4026-2.0822 2.851-4.2328 4.4024-5.8883 1.1049-1.1834 2.5189-2.2245 4.0131-3.3339 3.0685-2.27 6.2401-4.614 7.4709-8.5737.8186-2.6227-.7843-5.5925-2.1983-8.2152-.9103-1.6897-1.7747-3.2884-1.8892-4.6083-.1432-1.5929.3206-3.6923.8072-5.9167.8014-3.6582 1.7117-7.8-.0229-10.3772-1.5629-2.3269-6.492-3.1802-10.8429-3.93122-2.3357-.40393-4.5455-.78511-5.9595-1.35972-1.2709-.51203-2.7536-1.67832-4.3222-2.91288-3.0743-2.39516-6.5435-5.125982-10.196-4.733427-4.0302.432377-6.4289 3.487487-8.7532 6.445887-1.8034 2.29275-3.5036 4.46036-5.8852 5.40476-.8358.33-1.8376.6884-2.8967 1.0696-4.8661 1.7409-11.52409 4.1246-12.81791 7.6633-1.362505 3.7322-.10877 7.2993 1.21939 11.0713.93315 2.6454 1.89492 5.3876 2.02087 8.3574.08014 1.849-.03435 3.8857-.14312 5.8485-.26335 4.796-.53814 9.7627 1.78614 13.1023 2.15254 3.1006 6.22863 2.7024 10.53943 2.2757 1.5113-.1479 3.0513-.3015 4.5398-.3015z" fill="#2455f0"/><path d="m42.0037 68.6233c-1.7289 0-3.475-.5234-5.1009-1.1436-1.0304-.3925-2.3643-.9899-3.7784-1.6214-2.6219-1.172-5.5931-2.4919-7.6083-2.9868-2.2384-.5405-4.8317-.3585-7.3392-.1821-4.3394.3072-8.43265.5974-10.61954-2.6569-2.20406-3.2826-2.03804-8.0786-1.87774-12.7097.0687-1.9457.13739-3.9597.01717-5.7688-.18892-2.8788-1.24229-5.5243-2.26703-8.0787-1.47128-3.6809-2.856688-7.1571-1.57433-10.9688 1.25947-3.7492 7.90599-6.2923 12.76067-8.1527 1.0075-.3868 1.9636-.751 2.7765-1.0923 2.4044-1.007 4.0475-3.2429 5.7821-5.61526 2.2212-3.03235 4.5112-6.16142 8.5987-6.741721 3.7669-.529097 7.3736 2.207421 10.5566 4.625331 1.5399 1.17198 2.9941 2.27569 4.202 2.75927 1.4312.57461 3.7154.91597 6.137 1.27439 4.4024.65429 9.3944 1.39389 11.089 3.81179 1.8548 2.6455 1.019 6.8726.2805 10.599-.4294 2.1676-.8358 4.2157-.6755 5.7177.1317 1.2573.9847 2.8275 1.8892 4.4887 1.4655 2.7024 3.1315 5.7632 2.2785 8.494-1.2423 3.9825-4.6028 6.4801-7.5625 8.6818-1.4885 1.1037-2.8911 2.1505-3.9731 3.3054-1.4312 1.5361-2.725 3.4818-4.0932 5.547-1.4083 2.1221-2.8624 4.3124-4.494 6.0363-1.6717 1.7579-3.5208 2.3724-5.3928 2.3724zm-20.0484-6.4232c1.2595 0 2.4846.0911 3.6295.3698 2.0495.495 5.0322 1.8263 7.6656 3.0039 1.4083.6315 2.7422 1.2232 3.7612 1.6158 4.66 1.7807 7.6999 1.4394 10.1501-1.1492 1.6144-1.7068 3.0628-3.8858 4.4597-5.9908 1.3739-2.0709 2.6735-4.028 4.1276-5.5811 1.0991-1.1777 2.5132-2.2302 4.0131-3.3453 3.0685-2.2813 6.24-4.6367 7.4537-8.5224.8129-2.6114-.8129-5.6096-2.2556-8.2551-.916-1.6897-1.7861-3.2883-1.9235-4.6025-.1661-1.5475.2461-3.6184.6812-5.8144.7271-3.6696 1.5515-7.8284-.229-10.3601-1.6201-2.3098-6.5377-3.038-10.8829-3.6866-2.4387-.36411-4.7401-.70546-6.2057-1.29145-1.248-.50065-2.7193-1.62143-4.2764-2.79909-3.1315-2.38379-6.6866-5.080474-10.3219-4.56844-3.9559.56323-6.2114 3.64109-8.3926 6.61655-1.7632 2.40653-3.4234 4.67653-5.9137 5.71763-.8187.3414-1.7747.7112-2.788 1.0981-4.79171 1.8376-11.35809 4.3465-12.57175 7.9592-1.248012 3.7037.12022 7.1286 1.5686 10.7583 1.03047 2.5772 2.09529 5.2397 2.28421 8.1697.12022 1.8262.05152 3.8459-.01718 5.803-.16029 4.5855-.32059 9.3303 1.82622 12.5276 2.08957 3.1064 6.0969 2.8219 10.339 2.5204 1.2652-.0911 2.5476-.1821 3.8013-.1821z" fill="#3452e9"/><path d="m42.015 68.1795c-1.5113 0-3.1601-.3982-5.0435-1.0241-.9847-.3299-2.227-.7851-3.538-1.2687-2.7536-1.0126-5.8794-2.1675-8.0605-2.6625-2.0667-.4722-4.4368-.3698-6.7324-.2731-4.2822.1821-8.3239.3527-10.44786-2.9242-2.03231-3.1291-1.97506-7.7032-1.91781-12.1238.02289-2.0253.05152-3.9369-.1145-5.729-.25762-2.8332-1.40831-5.3991-2.52465-7.8739-1.5915-3.5387-3.097133-6.8839-1.92927-10.673 1.18504-3.8459 7.4938-6.4174 12.56029-8.4883.9503-.3868 1.8434-.7509 2.6277-1.098 2.5075-1.1037 4.1047-3.442 5.7935-5.91678 2.0781-3.04942 4.2307-6.20693 8.2438-6.91809 3.7497-.665635 7.448 2.04812 10.7054 4.44328 1.5228 1.12078 2.9597 2.17897 4.1505 2.65118 1.4656.58599 3.8356.88183 6.3488 1.19473 4.4024.54618 9.3945 1.16628 11.1577 3.57848 1.9007 2.6057 1.1564 6.8499.4924 10.5934-.3779 2.1391-.7328 4.1531-.5554 5.6152.1546 1.246 1.0076 2.8162 1.9179 4.4774 1.4941 2.7309 3.183 5.8258 2.3357 8.5509-1.2251 3.9142-4.5856 6.4232-7.5511 8.6363-1.4941 1.115-2.9024 2.1619-3.973 3.3168-1.351 1.4507-2.5704 3.3168-3.8642 5.2966-1.4427 2.2075-2.9312 4.4888-4.6658 6.2297-1.7174 1.7239-3.4521 2.3952-5.4157 2.3952zm-20.5006-5.6323c1.3568 0 2.6907.0796 3.9215.3641 2.2041.5006 5.3413 1.6555 8.1064 2.6739 1.311.4836 2.5475.9387 3.5265 1.263 4.202 1.3996 7.2133 1.6385 10.1329-1.2914 1.7117-1.7182 3.1888-3.9825 4.6257-6.1785 1.2995-1.9912 2.5246-3.8687 3.8986-5.3365 1.0934-1.1777 2.5132-2.2359 4.0188-3.3566 3.0685-2.2928 6.2458-4.6595 7.4366-8.4713.8129-2.5943-.8473-5.6266-2.3071-8.3006-.9217-1.6897-1.7919-3.2826-1.9522-4.5912-.1832-1.5076.1775-3.55.5553-5.7119.6469-3.681 1.3854-7.8568-.4351-10.3487-1.6773-2.2985-6.595-2.9072-10.9344-3.44768-2.5361-.31291-4.9291-.61444-6.429-1.21749-1.2251-.48928-2.6792-1.55885-4.2192-2.691-3.2059-2.35534-6.8411-5.023582-10.4592-4.38639-3.8815.6884-5.9939 3.78333-8.0377 6.78155-1.643 2.40651-3.3376 4.89271-5.9309 6.03061-.79.347-1.6831.7111-2.6334 1.098-4.7402 1.9343-11.23788 4.5855-12.37712 8.2835-1.133519 3.6752.34921 6.9693 1.91782 10.4511 1.12779 2.5032 2.28993 5.0918 2.55327 7.9762.16602 1.8092.13739 3.8175.1145 5.7632-.05725 4.375-.1145 8.8923 1.86629 11.9474 2.02654 3.1234 5.98244 2.9527 10.16154 2.7763.9618-.0398 1.935-.0796 2.8911-.0796z" fill="#444fe2"/><path d="m41.912 67.7243c-1.5113 0-3.1028-.3926-4.8718-.8932-.7385-.2105-1.5972-.4665-2.5304-.7396-2.9884-.8818-6.7095-1.9742-9.2799-2.5203-1.8835-.3983-4.0246-.3755-6.0913-.3471-4.2363.0512-8.2437.0967-10.30465-3.2087-1.85484-2.9755-1.90064-7.322-1.94644-11.5207-.0229-2.0196-.04007-3.9255-.24617-5.7006-.32631-2.782-1.57433-5.2625-2.78799-7.6633-1.71745-3.4022-3.337574-6.6223-2.28421-10.3942 1.1049-3.954 7.37358-6.6678 12.41146-8.8468.8701-.3754 1.6888-.7339 2.4273-1.0695 2.6105-1.2005 4.1562-3.6411 5.7935-6.22972 1.9407-3.07218 3.9502-6.24676 7.9003-7.08877 3.744-.796486 7.6884 2.0083 10.8657 4.26123 1.5056 1.06957 2.9254 2.07656 4.0875 2.54308 1.4942.59737 3.9502.842 6.5492 1.1094 4.4139.44375 9.4117.95008 11.2379 3.35098 1.9522 2.5601 1.2938 6.8213.7156 10.5819-.3263 2.105-.6297 4.0906-.4351 5.5129.1717 1.2402 1.0362 2.8104 1.9464 4.466 1.5171 2.765 3.2403 5.894 2.393 8.6078-1.2079 3.8459-4.5684 6.3605-7.5339 8.585-1.4999 1.1208-2.9139 2.179-3.9787 3.3282-1.2824 1.3768-2.4388 3.1803-3.6639 5.0862-1.4656 2.2813-2.9826 4.6367-4.8031 6.3776-1.8663 1.7864-3.6525 2.4065-5.5588 2.4065zm-21.2563-4.8415c1.5915 0 3.183.0626 4.6371.3698 2.5819.5461 6.3088 1.6442 9.3086 2.526.9332.2731 1.7919.5291 2.5304.7396 3.8814 1.1094 6.8812 1.6555 10.11-1.4337 1.7919-1.7181 3.2975-4.0564 4.7516-6.3207 1.2366-1.9173 2.3987-3.7321 3.6983-5.1317 1.0877-1.172 2.5132-2.2415 4.0188-3.368 3.0685-2.2985 6.2458-4.6765 7.4194-8.4201.8072-2.5772-.8759-5.6437-2.3644-8.3517-.9274-1.684-1.8033-3.277-1.9808-4.5798-.2061-1.4679.1088-3.4762.4351-5.6039.5725-3.6923 1.2194-7.8853-.6526-10.3373-1.7404-2.2871-6.6637-2.7821-11.0089-3.22012-2.6219-.2674-5.1008-.51203-6.635-1.12647-1.2022-.47789-2.6335-1.50195-4.1563-2.5829-3.2803-2.33258-7.0014-4.97807-10.6023-4.21002-3.8128.81356-5.7821 3.93125-7.6885 6.94084-1.5915 2.51467-3.2345 5.10887-5.9366 6.34917-.7385.3414-1.5629.6941-2.4331 1.0753-4.71151 2.0367-11.15767 4.8301-12.22249 8.6362-1.01902 3.6525.57248 6.81 2.26131 10.1609 1.22511 2.4236 2.48457 4.9326 2.81661 7.7715.21182 1.7864.229 3.7947.2519 5.7347.04579 4.1532.09159 8.4542 1.89491 11.35 1.96366 3.1518 5.87366 3.1006 10.01846 3.0551.5038-.0057 1.0133-.0114 1.5285-.0114z" fill="#534bda"/><path d="m41.8891 67.2749c-1.414 0-2.9425-.33-4.7802-.7738-3.1887-.7623-8.467-1.8774-12.0279-2.5829-1.6888-.3356-3.578-.3698-5.4099-.4039-4.0303-.074-8.2037-.1536-10.20741-3.5159-1.6831-2.8162-1.82623-6.9295-1.96935-10.9063-.06869-2.0196-.13739-3.9255-.38928-5.6778-.39502-2.7251-1.74608-5.1203-3.04561-7.4358-1.8434-3.2713-3.583746-6.3662-2.63915-10.1211 1.02475-4.0792 7.28198-6.9466 12.3084-9.245.7671-.3527 1.5056-.6884 2.1811-1.0127 2.7193-1.2971 4.2765-3.9654 5.7878-6.53689 1.8091-3.08924 3.6811-6.28658 7.5683-7.25944 3.7268-.933029 7.78 1.849 11.0317 4.07917 1.4827 1.01837 2.8853 1.97985 4.0188 2.43499 1.5228.60305 4.0532.80218 6.7324 1.01268 4.4253.34704 9.4403.73959 11.3352 3.12909 1.998 2.526 1.4312 6.8043.9331 10.5762-.2747 2.0709-.5324 4.028-.3205 5.4048.1946 1.2345 1.059 2.7991 1.975 4.4546 1.5457 2.7934 3.3032 5.968 2.4502 8.6647-1.185 3.772-4.5512 6.3037-7.5167 8.5338-1.4999 1.1322-2.9196 2.1961-3.9787 3.3453-1.2194 1.3142-2.3243 3.0608-3.4922 4.9041-1.4827 2.344-3.0112 4.7619-4.9176 6.5028-1.9808 1.8092-3.6925 2.4293-5.6218 2.4293zm-11.089-65.31792c-.4923 0-.9789.05689-1.4541.17637-3.744.93872-5.5817 4.06779-7.3564 7.10014-1.5342 2.61701-3.12 5.33081-5.9309 6.67341-.6755.3243-1.414.66-2.1869 1.0127-4.9577 2.27-11.13479 5.0976-12.11946 9.0231-.915971 3.6297.79575 6.6621 2.6048 9.8765 1.32243 2.344 2.68494 4.7676 3.08568 7.5553.25762 1.7693.32631 3.7776.39501 5.7176.1374 3.9313.28052 7.9991 1.91782 10.747 1.91205 3.1973 5.79925 3.2713 9.92115 3.3509 1.8434.0342 3.7497.074 5.4672.4096 3.5666.7055 8.8506 1.8206 12.0393 2.5829 4.2307 1.0127 6.7896 1.4394 10.0872-1.5759 1.8662-1.7067 3.389-4.1076 4.8603-6.4345 1.1793-1.8603 2.29-3.6183 3.5322-4.9553 1.082-1.1663 2.5132-2.2472 4.0246-3.3851 2.9254-2.2017 6.2458-4.6992 7.4022-8.3688.8072-2.5601-.9102-5.6665-2.4216-8.403-.9331-1.684-1.809-3.2713-2.0094-4.5627-.2233-1.4223.0401-3.4022.3149-5.5015.4923-3.7094 1.0476-7.9137-.8645-10.3259-1.8033-2.2757-6.7381-2.6626-11.0947-3.00393-2.7021-.2105-5.2611-.40962-6.8297-1.03544-1.1736-.46651-2.5877-1.43937-4.0876-2.46912-2.7651-1.9002-6.1198-4.20433-9.2971-4.20433z" fill="#6348d3"/><path d="m41.7746 66.8197c-1.311 0-2.7021-.2731-4.3623-.5973l-.229-.0456c-1.7117-.3356-4.0246-.6656-6.263-.9842-2.0838-.2958-4.2363-.6031-5.9824-.9216-1.4656-.2674-3.0857-.3528-4.6543-.4324-4.0417-.2048-8.2266-.4153-10.1787-3.8516-1.51139-2.6512-1.74611-6.5256-1.98083-10.2634-.12594-2.031-.24044-3.9426-.54385-5.6835-.46372-2.6626-1.9121-4.9724-3.30895-7.2026-1.96935-3.1461-3.829916-6.1159-2.99409-9.8651.95032-4.227 7.21901-7.2537 12.26262-9.683.6526-.3129 1.2823-.6201 1.8777-.9103 2.8223-1.4052 4.3223-4.1702 5.7706-6.8498 1.6831-3.112 3.4235-6.3264 7.2419-7.42442 3.7269-1.06958 7.8717 1.684 11.2035 3.89711 1.4599.96717 2.8338 1.88313 3.9444 2.3212 1.5515.61444 4.1505.75667 6.9042.91028 4.4424.25032 9.4803.52909 11.4439 2.91283 2.0495 2.4862 1.5743 6.7816 1.1564 10.5706-.2232 2.0367-.4351 3.9654-.2061 5.2967.2119 1.2232 1.082 2.782 1.998 4.4319 1.5743 2.8332 3.3605 6.0362 2.5132 8.7272-1.1679 3.7037-4.5341 6.2468-7.5052 8.4883-1.5057 1.1379-2.9312 2.2131-3.9845 3.3567-1.1622 1.2573-2.2155 2.9527-3.3376 4.7505-1.4942 2.3951-3.0342 4.8756-5.0092 6.6052-2.1239 1.8603-3.8586 2.4406-5.7764 2.4406zm-11.6099-64.60673c-.5553 0-1.0992.06827-1.6373.22188-3.6811 1.0582-5.307 4.06779-7.0301 7.25944-1.477 2.72511-2.9998 5.54131-5.9195 6.99771-.5897.2959-1.2251.5974-1.8777.916-4.97492 2.3952-11.16346 5.382-12.07371 9.4441-.807197 3.607 1.01902 6.5198 2.94829 9.6034 1.41403 2.2586 2.87959 4.5969 3.35475 7.3277.30914 1.758.42936 3.772.54958 5.7234.229 3.7036.46372 7.5325 1.93499 10.1154 1.8606 3.2713 5.7649 3.4647 9.8925 3.6752 1.5801.0797 3.2116.165 4.7001.4381 1.7346.3186 3.8872.6258 5.9653.9216 2.2384.3186 4.5569.6486 6.2801.9843l.229.0455c4.1161.8079 6.3889 1.2516 9.8353-1.7637 1.9407-1.6954 3.4692-4.1474 4.9462-6.5255 1.1278-1.8092 2.1926-3.5159 3.3777-4.8017 1.0762-1.1663 2.5132-2.2472 4.0302-3.3965 2.9254-2.2131 6.2458-4.7163 7.3793-8.3176.8072-2.5488-.9446-5.6892-2.4845-8.4599-.9332-1.6783-1.8148-3.2599-2.0381-4.5456-.2404-1.3825-.0229-3.3282.2004-5.3934.4065-3.7208.8702-7.9422-1.082-10.3146-1.8663-2.27-6.824-2.54306-11.1978-2.78769-2.7822-.15361-5.4099-.30153-7.0129-.93303-1.1449-.45514-2.5361-1.37679-4.0074-2.35534-2.7822-1.84899-6.137-4.07917-9.2742-4.07917z" fill="#7245cb"/><path d="m41.6659 66.3702c-1.0935 0-2.2442-.182-3.5895-.3925l-.8244-.1309c-1.5686-.2389-3.5265-.3812-5.6046-.5348-2.3758-.1763-4.8317-.3527-6.8526-.6998-1.2079-.2048-2.5247-.3129-3.8013-.4153-4.099-.3356-8.3411-.677-10.2532-4.2271-1.33956-2.4805-1.66016-6.0988-1.97502-9.5977-.17175-1.9571-.35494-3.9824-.7156-5.7176-.53814-2.6-2.07812-4.8131-3.56657-6.9579-2.10101-3.021-4.081805-5.8713-3.34903-9.6148.86445-4.3978 7.19611-7.5951 12.27972-10.1666.521-.2617 1.0248-.5178 1.5057-.7681 2.9311-1.5076 4.3566-4.3807 5.742-7.16271 1.5571-3.12907 3.1715-6.37192 6.927-7.5951 3.7154-1.21181 7.969 1.52471 11.3867 3.71505 1.4312.91597 2.7765 1.78642 3.8585 2.21311 1.5744.62012 4.2364.71115 7.0587.80787 4.4654.15361 9.5319.32428 11.5699 2.70238 2.0953 2.4464 1.7175 6.7588 1.3854 10.5649-.1717 2.0026-.3377 3.8971-.0916 5.1885.2348 1.2175 1.0992 2.7707 2.0209 4.4149 1.603 2.8673 3.4234 6.1159 2.5762 8.7955-1.1507 3.6297-4.5169 6.1842-7.4824 8.4371-1.5113 1.1492-2.9425 2.2302-3.9902 3.368-1.1106 1.2061-2.1239 2.856-3.1944 4.6026-1.4999 2.4464-3.0457 4.9724-5.0951 6.6905-2.2842 1.9116-4.0131 2.4635-5.9252 2.4635zm-12.1424-63.90695c-.6183 0-1.2251.08533-1.8205.27877-3.6124 1.17766-5.1237 4.21002-6.7209 7.41308-1.4083 2.8332-2.8625 5.7575-5.8966 7.3163-.4809.2503-.9904.5063-1.5056.768-5.01499 2.5374-11.26078 5.6949-12.09088 9.9163-.704152 3.5899 1.23657 6.3834 3.29178 9.3417 1.51135 2.1733 3.06851 4.4149 3.62381 7.0888.36639 1.7523.54386 3.789.72133 5.7575.30914 3.4647.62973 7.0432 1.93496 9.4612 1.8263 3.3794 5.9653 3.715 9.9727 4.0393 1.2823.1024 2.6105.2105 3.8356.421 2.0037.3357 4.4482.5177 6.8183.6941 2.0838.1536 4.0474.2958 5.6332.5405l.8244.1308c3.7154.586 5.7592.9046 9.2227-1.9912 2.0037-1.6783 3.5379-4.1816 5.0207-6.5995 1.082-1.7637 2.101-3.4306 3.2345-4.6595 1.0705-1.1606 2.5132-2.2529 4.036-3.4135 2.9254-2.2188 6.2458-4.7391 7.3621-8.2607.8015-2.5374-.9732-5.712-2.5475-8.5168-.9332-1.6726-1.8205-3.2485-2.061-4.5229-.2576-1.3427-.0916-3.2599.0859-5.2853.3263-3.7378.6927-7.9706-1.2995-10.3032-1.935-2.26429-6.9156-2.42927-11.3066-2.57719-2.8566-.09672-5.553-.18775-7.1789-.83063-1.1163-.43807-2.4788-1.31421-3.9215-2.24155-2.7937-1.79779-6.1599-3.9597-9.257-3.9597z" fill="#8242c4"/><path d="m41.5914 65.9323c-.9102 0-1.872-.1195-2.994-.256-.4008-.0512-.8244-.1024-1.271-.1536-1.5399-.1707-3.4291-.1821-5.4214-.1934-2.496-.0114-5.0779-.0285-7.2419-.3642-.8988-.1365-1.8548-.2446-2.788-.347-4.2306-.4608-8.5987-.9387-10.4936-4.6595-1.1678-2.2984-1.56285-5.6494-1.95214-8.8865-.23472-1.9912-.48089-4.0507-.90452-5.7916-.61256-2.5317-2.24986-4.6538-3.82419-6.7019-2.23268-2.8959-4.339418-5.6381-3.709687-9.3702.778577-4.5969 7.207557-7.9876 12.377037-10.7128l1.0591-.5575c3.0342-1.6158 4.391-4.5912 5.702-7.47 1.4369-3.15179 2.9253-6.4174 6.6236-7.76575 3.704-1.35403 8.0663 1.35973 11.5756 3.53301 1.3968.86476 2.7136 1.68969 3.7727 2.09932 1.5915.62581 4.3222.65995 7.2075.69977 4.494.05689 9.5891.11948 11.6958 2.49755 2.1411 2.4066 1.8606 6.7361 1.6144 10.5592-.1259 1.9685-.2461 3.8288.0172 5.0805.2519 1.2061 1.1221 2.7536 2.0438 4.3864 1.6373 2.9015 3.4921 6.1955 2.6391 8.8695-1.1278 3.5614-4.494 6.1216-7.4652 8.3859-1.5228 1.1549-2.954 2.2529-3.9959 3.385-1.0648 1.1606-2.0323 2.7707-3.0628 4.4775-1.4999 2.4918-3.0513 5.0634-5.1638 6.7587-2.4559 1.9685-4.1276 2.4919-6.0339 2.4919zm-12.7091-63.22995c-.687 0-1.351.10241-1.9979.34136-3.5494 1.29714-4.9406 4.34656-6.4118 7.57239-1.3397 2.9356-2.7193 5.9679-5.868 7.6406l-1.0591.5575c-5.09509 2.691-11.4382 6.0363-12.18815 10.4568-.60683 3.5785 1.45411 6.2524 3.63527 9.0914 1.60295 2.0822 3.25742 4.2327 3.89288 6.8384.42364 1.758.66981 3.8289.91025 5.8315.38355 3.2087.77285 6.5255 1.91205 8.767 1.8034 3.5444 6.0741 4.0109 10.2074 4.4604.9332.1024 1.8949.2048 2.7994.347 2.1411.33 4.7059.3471 7.1904.3584 2.0037.0114 3.8986.0228 5.4615.1992.4466.0512.8702.1024 1.2709.1536 3.3949.421 5.2554.6486 8.7533-2.1562 2.0609-1.6556 3.5952-4.2044 5.0836-6.6678 1.0362-1.7238 2.0152-3.3509 3.1086-4.5343 1.0648-1.1606 2.5132-2.2643 4.0475-3.4306 2.9254-2.2302 6.24-4.7562 7.3392-8.2039.8015-2.5203-1.0133-5.7404-2.6105-8.5793-.9332-1.6612-1.8205-3.2315-2.0839-4.4888-.269-1.2971-.1488-3.1859-.0229-5.1772.2405-3.7492.5153-7.999-1.5228-10.2918-2.0036-2.25859-7.0129-2.32117-11.4267-2.37806-2.9254-.03413-5.6848-.07396-7.3392-.72253-1.082-.42669-2.4159-1.25732-3.83-2.13346-2.8108-1.74659-6.1828-3.84022-9.257-3.84022z" fill="#923ebd"/><path d="m27.5828 65.4999c-1.0649 0-2.0953-.0512-3.0628-.182-.4809-.0683-.9733-.1309-1.477-.1935-4.2765-.5461-9.1254-1.1663-11.0261-5.1715-.9961-2.0993-1.4541-5.1601-1.9006-8.1128-.30914-2.0481-.62401-4.1702-1.11634-5.9225-.69271-2.4634-2.41588-4.4831-4.0818-6.4458-2.36436-2.7764-4.602765-5.4048-4.070356-9.1369.692706-4.8245 7.276256-8.4314 12.565996-11.3273l.5152-.2844c3.1372-1.7238 4.4196-4.8017 5.6562-7.7829 1.3224-3.17454 2.6849-6.46291 6.3259-7.93073 3.6982-1.49626 8.1751 1.18905 11.7702 3.35095 1.3626.81925 2.6449 1.59298 3.6697 1.99123 1.6086.6315 4.3966.60874 7.3506.58599 4.5227-.03983 9.6521-.07965 11.839 2.29846 2.1811 2.3724 2.0037 6.7189 1.8491 10.5535-.0801 1.9343-.1546 3.7662.1202 4.9723.2691 1.1948 1.1393 2.7309 2.061 4.358 1.6659 2.9413 3.5551 6.2809 2.7078 8.9434-1.1106 3.4875-4.4768 6.0647-7.448 8.3347-1.5285 1.1663-2.9655 2.27-4.0017 3.4022-1.019 1.1151-1.9521 2.6853-2.9368 4.3522-1.4999 2.5317-3.0513 5.1488-5.2268 6.8271-3.6696 2.8218-5.4385 2.6625-8.6559 2.361-.4981-.0455-1.0305-.0967-1.6144-.1365-1.5457-.1138-3.4005 0-5.3642.1195-1.4827.091-2.9998.182-4.4539.182zm.6526-62.55291c-.75 0-1.4828.12516-2.1755.40394-3.4921 1.41092-4.7687 4.4831-6.1198 7.73167-1.2652 3.038-2.5704 6.1785-5.8221 7.9649l-.5153.2844c-5.22102 2.8503-11.71298 6.4061-12.37706 11.0485-.509507 3.5671 1.67165 6.1273 3.98448 8.841 1.69455 1.9913 3.44635 4.0451 4.15623 6.5825.49806 1.775.81865 3.9084 1.12775 5.9679.4409 2.93.8931 5.9623 1.8663 8.0105 1.8148 3.8174 6.555 4.4262 10.7341 4.961.498.0625.9961.1251 1.477.1934 2.2441.3129 4.8833.1536 7.4423 0 1.9808-.1195 3.847-.2333 5.4157-.1195.5839.0398 1.122.091 1.6201.1366 3.2173.2958 4.8375.4494 8.3869-2.2871 2.1239-1.6328 3.6524-4.2214 5.1351-6.719.9961-1.684 1.9407-3.2713 2.9827-4.4148 1.059-1.1549 2.5132-2.27 4.0531-3.4477 2.9254-2.2358 6.2401-4.7732 7.3164-8.1526.8014-2.509-1.0477-5.7689-2.6793-8.6476-.9331-1.6499-1.8204-3.2087-2.101-4.4547-.2862-1.2573-.2118-3.112-.1316-5.0691.1545-3.7605.332-8.0275-1.7518-10.2861-2.0724-2.2529-7.116-2.21308-11.5585-2.17325-2.9883.02275-5.8107.04551-7.488-.60875-1.0534-.41531-2.3529-1.19474-3.7269-2.01967-2.8281-1.70108-6.2114-3.73213-9.257-3.73213z" fill="#a13bb5"/><path d="m26.3862 65.7786c-.6869 0-1.3567-.0341-2.0037-.1138-4.1104-.512-9.7436-1.2175-11.7187-5.729-.8243-1.8774-1.2995-4.4888-1.809-7.2481-.3893-2.1391-.7958-4.3522-1.37398-6.15-.76712-2.3895-2.58189-4.3124-4.33369-6.1728-2.39298-2.5431-4.871828-5.1772-4.436742-8.9093.595382-5.0976 7.608292-9.0572 12.732012-11.9474 3.246-1.8319 4.4425-5.0122 5.6046-8.0843 1.2079-3.20308 2.456-6.5142 6.034-8.10718 3.6925-1.64418 8.2838 1.02406 11.9763 3.16889 1.3225.76805 2.5705 1.49627 3.5666 1.88313 1.6258.6372 4.4711.55186 7.4823.46652 4.557-.13085 9.7265-.27877 11.9878 2.09364 2.227 2.3326 2.1526 6.6962 2.0839 10.5478-.0344 1.9002-.063 3.698.2232 4.8643.292 1.1833 1.1622 2.708 2.0781 4.3181 1.7003 2.9868 3.6296 6.3662 2.7766 9.0288-1.0935 3.4192-4.4597 6.0021-7.4251 8.2835-1.5343 1.1776-2.9827 2.287-4.0074 3.4192-.9789 1.0696-1.872 2.6113-2.8223 4.2385-1.4255 2.452-3.0456 5.2284-5.2841 6.8839-3.7268 2.7593-5.3698 2.6569-8.3525 2.4634-.5667-.0341-1.1907-.0739-1.8834-.0967-1.5686-.0512-3.412.1764-5.3642.421-1.9121.239-3.8757.4836-5.7248.4836zm1.208-62.60411c-.8187 0-1.6087.14223-2.3587.47789-3.4348 1.5304-4.597 4.61965-5.8336 7.89092-1.185 3.1405-2.4101 6.3833-5.7706 8.2835-5.04927 2.8503-11.96487 6.7588-12.53735 11.6629-.417911 3.5558 1.88919 6.0078 4.3337 8.6078 1.78042 1.8945 3.62381 3.8516 4.41956 6.3207.58389 1.8206.99039 4.0451 1.38539 6.1956.4809 2.617.9732 5.3251 1.7804 7.1627 1.7461 3.9825 6.4004 4.8757 11.4153 5.5072 2.3358.2901 5.0264-.0455 7.6312-.3698 1.9694-.2447 3.83-.4779 5.4272-.4267.6984.0227 1.3224.0626 1.8949.0967 2.9826.1877 4.4768.2845 8.0949-2.3895 2.1754-1.61 3.7727-4.3522 5.181-6.7701.9617-1.6499 1.8663-3.2031 2.8738-4.3068 1.0534-1.1549 2.5132-2.2757 4.0589-3.4647 2.9254-2.2416 6.2401-4.7903 7.2935-8.0958.8014-2.4975-1.082-5.8087-2.748-8.7215-.9331-1.6385-1.8147-3.186-2.1181-4.4149-.2977-1.2175-.2691-3.038-.2348-4.961.0687-3.7776.1432-8.0559-1.9807-10.2747-2.1469-2.24724-7.2191-2.105-11.6959-1.97415-3.0513.08534-5.9309.17067-7.6312-.49496-1.019-.39825-2.2842-1.13216-3.6181-1.90589-2.8452-1.65556-6.24-3.62403-9.2685-3.62403z" fill="#b138ae"/><path d="m25.6821 66.0859c-.4923 0-.9732-.0227-1.4427-.0739-5.9824-.66-9.5661-2.6512-10.9401-6.0932-.6469-1.6214-1.1335-3.863-1.643-6.2297-.4981-2.287-1.0076-4.6595-1.69458-6.5312-.84727-2.3098-2.74219-4.1361-4.57986-5.8997-2.5361-2.435-5.152346-4.9553-4.814581-8.6931.452261-4.9724 6.366011-8.7956 12.382821-12.2888 3.349-1.94 4.4596-5.2227 5.5416-8.3915 1.0992-3.22583 2.2327-6.5654 5.7535-8.27786 3.6868-1.79779 8.404.85339 12.1939 2.98684 1.2823.72253 2.4903 1.39955 3.4463 1.77504 1.643.63719 4.5398.50065 7.6083.35273 4.5913-.22188 9.8009-.47221 12.1424 1.90015 2.2727 2.2985 2.2956 6.6792 2.3242 10.5422.0115 1.866.0229 3.6297.3206 4.7562.3092 1.1662 1.1736 2.6796 2.0896 4.2782 1.7346 3.0267 3.704 6.463 2.851 9.1142-1.0706 3.3509-4.4368 5.9395-7.4022 8.2266-1.54 1.189-2.9941 2.3098-4.0189 3.4363-.9388 1.0297-1.8033 2.5374-2.7135 4.1303-1.4255 2.4862-3.0342 5.3024-5.3356 6.9352-3.8013 2.7024-5.3298 2.6455-8.1063 2.5544-.6126-.0227-1.311-.0455-2.0953-.0398-1.5915.0057-3.4349.3528-5.3928.7226-2.164.4039-4.3852.8249-6.4691.8249zm1.2709-62.68377c-.8873 0-1.7403.16499-2.5361.55186-3.3776 1.64418-4.4367 4.75618-5.5531 8.05591-1.0991 3.2372-2.2384 6.5881-5.7133 8.6021-5.67335 3.2884-11.75312 7.1969-12.188208 11.9872-.320591 3.5558 2.112458 5.894 4.688638 8.3745 1.86629 1.7978 3.79556 3.6525 4.67717 6.0477.6984 1.9002 1.2137 4.2782 1.7117 6.5824.5095 2.3496.9904 4.5741 1.6259 6.1671 1.3167 3.2997 4.7917 5.2113 10.6195 5.8542 2.4159.2674 5.1524-.2446 7.7973-.7453 1.975-.3698 3.8413-.7225 5.4672-.7282.8014 0 1.4941.0227 2.1124.0398 2.7766.0967 4.1677.1422 7.8602-2.4805 2.2327-1.5816 3.8185-4.3636 5.2211-6.81.9217-1.6157 1.7976-3.1404 2.7651-4.1986 1.0476-1.1549 2.5132-2.2814 4.0703-3.4818 2.9197-2.253 6.2343-4.8017 7.2705-8.0389.8015-2.4919-1.122-5.8428-2.8166-8.8012-.9274-1.6214-1.809-3.1518-2.1296-4.3693-.3149-1.1777-.3263-2.8845-.3378-4.8529-.0229-3.6013-.0515-8.0844-2.2098-10.2691-2.2155-2.2472-7.3277-1.99687-11.8446-1.78068-3.1086.14792-6.0454.29015-7.7686-.38118-.9847-.38118-2.2041-1.06957-3.4979-1.79779-2.8624-1.61005-6.2744-3.52732-9.2857-3.52732z" fill="#c134a7"/><path d="m25.1726 66.4101c-.3606 0-.7213-.0171-1.0762-.0512-1.9064-.1764-8.2667-1.172-10.1673-6.463-.4695-1.3028-.9045-3.0608-1.3683-4.9268-.6354-2.5431-1.288-5.1715-2.1296-7.1912-.92742-2.2245-2.90821-3.954-4.8203-5.6209-2.66777-2.3212-5.427137-4.7278-5.186695-8.4713.326316-5.0292 5.976725-9.0401 12.027895-12.63 3.4463-2.0595 4.4711-5.4332 5.4672-8.6932.9904-3.25419 2.0151-6.6222 5.4844-8.45413 3.6868-1.9514 8.5242.68271 12.4114 2.79909 1.2366.67133 2.4044 1.30852 3.3261 1.66694 1.6545.64289 4.6028.44376 7.7228.23326 4.6314-.3129 9.8811-.66563 12.3027 1.70104 2.3128 2.2643 2.4559 6.8499 2.5647 10.5308.0572 1.8319.1088 3.5557.4179 4.6538.3263 1.1549 1.1908 2.6454 2.101 4.227 1.7747 3.0779 3.7841 6.5597 2.9311 9.2109-1.0533 3.277-4.4138 5.8769-7.3793 8.1754-1.5457 1.2004-3.0112 2.3269-4.0303 3.4533-.8988.99-1.7289 2.4635-2.6105 4.028-1.414 2.5203-3.0227 5.3706-5.3813 6.9807-3.8814 2.6511-5.2153 2.6398-7.9003 2.6227-.6526 0-1.3911-.0114-2.267.0285-1.6201.0625-3.4693.5234-5.4329 1.0126-2.3414.5803-4.7459 1.1777-7.0129 1.1777zm1.1393-62.78619c-.9561 0-1.872.18774-2.7193.63719-3.3204 1.75797-4.2765 4.89842-5.2898 8.2209-1.0133 3.3339-2.0666 6.7816-5.6446 8.9207-5.95386 3.5273-11.51839 7.4643-11.827532 12.3058-.228993 3.5501 2.335732 5.7859 5.049302 8.1526 1.94644 1.6954 3.96158 3.4534 4.92903 5.7689.853 2.0481 1.5114 4.6936 2.1526 7.2481.4637 1.8546.8988 3.6012 1.3568 4.887 1.8147 5.0691 7.9804 6.0249 9.8238 6.1956 2.496.2332 5.2725-.4552 7.9518-1.1208 1.9865-.495 3.8585-.9558 5.5187-1.0241.8816-.0341 1.6258-.0284 2.2842-.0284 2.5876.017 3.8929.0227 7.6713-2.5545 2.2842-1.5588 3.8642-4.3693 5.2611-6.8498.8873-1.5816 1.7289-3.0722 2.662-4.1019 1.0419-1.1492 2.519-2.2928 4.0818-3.4989 2.9197-2.2586 6.2286-4.8188 7.2477-7.982.8014-2.4805-1.1622-5.8883-2.8968-8.8922-.9217-1.6044-1.7976-3.1177-2.1411-4.3181-.3263-1.1379-.3778-2.8105-.4351-4.7505-.1087-3.6127-.2461-8.1072-2.4445-10.2577-2.2899-2.24153-7.448-1.89449-11.9935-1.58727-3.1658.2105-6.1542.41531-7.8945-.2617-.9446-.3698-2.1239-1.007-3.372-1.6897-2.8853-1.57023-6.303-3.4306-9.3142-3.4306z" fill="#d0319f"/><path d="m24.7547 66.74c-.2691 0-.5324-.0114-.8015-.0284-3.578-.2731-8.0434-2.526-9.3887-6.8271-.2576-.8249-.5496-1.866-.853-2.9698-.7614-2.7422-1.7003-6.1557-2.8109-8.4996-1.00759-2.1392-3.06281-3.7606-5.05505-5.3308-2.80516-2.2245-5.707653-4.5173-5.558808-8.2835.211819-5.3308 6.348838-9.7286 11.678658-12.9658 3.5494-2.1676 4.4825-5.638 5.3871-8.9889.8873-3.2827 1.8033-6.67916 5.221-8.63625 3.6811-2.1107 8.862.62012 12.6462 2.61135 1.2365.65426 2.3071 1.21749 3.1944 1.55884 1.6717.64857 4.6657.38687 7.8316.11379 4.6714-.40394 9.9669-.85907 12.4744 1.50195 2.3586 2.23022 2.6105 6.82702 2.8109 10.52502.103 1.8718.1889 3.4875.5095 4.5457.3492 1.1322 1.2022 2.6114 2.1067 4.1702 1.8148 3.1234 3.87 6.6678 3.0113 9.3189-1.0362 3.2088-4.3967 5.8144-7.3564 8.1186-1.5572 1.2061-3.0285 2.3496-4.036 3.4704-.8645.9558-1.6602 2.3951-2.5075 3.9255-1.4083 2.5488-3.0055 5.4389-5.4271 7.0262-3.9674 2.6057-5.2268 2.6341-7.7343 2.691-.6812.0171-1.4541.0342-2.3987.1024-1.6488.1252-3.515.6998-5.4901 1.3029-2.4789.7623-5.0264 1.5474-7.448 1.5474zm.8873-62.88288c-1.0247 0-1.9922.20481-2.8681.70546-3.2689 1.87175-4.1219 5.03496-5.0264 8.38592-.9275 3.4306-1.8835 6.9807-5.5703 9.2336-5.23821 3.1859-11.277901 7.4984-11.483995 12.6357-.137396 3.5558 2.558995 5.6836 5.415685 7.9422 2.02659 1.5987 4.11611 3.2485 5.16951 5.4787 1.1221 2.3781 2.0724 5.8087 2.8338 8.5623.3034 1.1037.5954 2.1391.8473 2.9584 1.2881 4.1189 5.5817 6.2752 9.028 6.5426 2.5762.1991 5.3814-.6657 8.0949-1.4963 1.998-.6144 3.8872-1.1947 5.576-1.3199.9561-.074 1.7347-.091 2.4216-.1024 2.5018-.0569 3.6467-.0797 7.5167-2.6227 2.3358-1.5304 3.9044-4.375 5.2898-6.884.8587-1.5475 1.6659-3.0096 2.559-3.9995 1.0362-1.1492 2.5189-2.2985 4.0932-3.5216 2.9197-2.2643 6.2229-4.8359 7.219-7.9194.8015-2.4748-1.2079-5.9339-2.9769-8.989-.9159-1.5816-1.7804-3.0722-2.1411-4.2555-.3377-1.1037-.4236-2.7422-.5266-4.6424-.1947-3.6241-.4409-8.1356-2.6793-10.252-2.37-2.23585-7.5682-1.79209-12.1538-1.39385-3.2173.27877-6.2572.54048-8.0205-.14223-.9102-.35273-1.9865-.92165-3.2345-1.57591-2.7708-1.46213-6.3145-3.32819-9.3773-3.32819z" fill="#e02e98"/><path d="m24.3883 67.0701c-.1889 0-.3778 0-.5668-.0171-3.8241-.2275-7.6025-3.3851-8.6101-7.1968-.5782-2.179-2.101-7.6065-3.8242-10.8266-1.0934-2.0481-3.21734-3.5672-5.27828-5.035-2.95974-2.105-6.0167958-4.2896-5.965272-8.073.080147-5.6551 6.503402-10.3031 11.329452-13.3071 3.6524-2.2813 4.494-5.8428 5.3069-9.2848.7843-3.3168 1.5915-6.74168 4.9577-8.81824 3.6811-2.27 8.9994.44376 12.8809 2.4236 1.185.60306 2.204 1.12647 3.0513 1.45075 1.6831.64857 4.723.32998 7.9403-.00568 4.7173-.49497 10.0586-1.05251 12.6462 1.30852 2.3987 2.19035 2.7651 6.80995 3.057 10.51365.1432 1.8376.2691 3.4192.6011 4.4376.3607 1.1151 1.208 2.5658 2.1068 4.1019 1.8548 3.1803 3.9558 6.7816 3.0971 9.4328-1.019 3.1347-4.3738 5.7518-7.3335 8.0616-1.5686 1.2232-3.0456 2.3724-4.0532 3.4932-.8301.9216-1.5972 2.3325-2.4101 3.8288-1.4026 2.5772-2.9884 5.5015-5.4615 7.066-4.0589 2.5658-5.244 2.6284-7.5911 2.7479-.6985.0341-1.4942.074-2.5075.1877-1.6774.1878-3.5609.8705-5.5474 1.593-2.5933.9444-5.2668 1.9173-7.8315 1.9173zm.624-63.00809c-1.0992 0-2.1354.23326-3.0513.79649-3.2174 1.98554-3.9731 5.1772-4.7688 8.5566-.8358 3.5273-1.6946 7.1741-5.4901 9.5465-4.75163 2.9584-11.060392 7.5154-11.14054 12.9657-.051523 3.5615 2.78799 5.5925 5.7878 7.7317 2.09529 1.4962 4.26504 3.0437 5.40424 5.1771 1.7403 3.26 3.2803 8.7159 3.8585 10.912.9618 3.6468 4.5799 6.6677 8.2266 6.8839 2.6506.1536 5.4844-.8761 8.2266-1.8774 2.0151-.7339 3.9158-1.428 5.6504-1.6158 1.0247-.1137 1.8262-.1536 2.5304-.1877 2.3472-.1195 3.4177-.1764 7.3907-2.6796 2.3815-1.5077 3.9444-4.3807 5.3184-6.9124.8244-1.519 1.6029-2.9527 2.4674-3.9085 1.0305-1.1435 2.5246-2.3098 4.1047-3.5444 2.9139-2.27 6.2172-4.8472 7.1904-7.8625.8014-2.4691-1.2538-5.9907-3.0628-9.0914-.9103-1.5531-1.7633-3.0266-2.1411-4.1815-.3492-1.0639-.4752-2.674-.6183-4.5343-.2862-3.6355-.6412-8.1584-2.9196-10.24064-2.4445-2.23586-7.6885-1.68401-12.3199-1.20042-3.2688.34135-6.3603.66564-8.1349-.02276-.8702-.33566-1.9007-.85907-3.0915-1.46782-2.7937-1.42799-6.3488-3.23716-9.4173-3.23716z" fill="#ef2a90"/><path d="m24.0448 67.4114c-.1202 0-.2404 0-.3606-.0057-3.412-.1365-7.0015-3.6012-7.8373-7.5666-.5439-2.6-2.3186-7.4188-3.9788-10.1723-1.1736-1.9457-3.37191-3.3624-5.4901-4.7335-3.1143-2.0083-6.3316546-4.0848-6.37745324-7.8909-.05152346-4.4433 3.53794324-8.9093 10.97445324-13.6484 3.7498-2.3895 4.4998-6.042 5.2211-9.5807.6812-3.3452 1.3911-6.80997 4.7001-9.006 3.681-2.44068 9.1425.2617 13.1327 2.23586 1.1221.55754 2.0953 1.03543 2.9025 1.34834 1.6946.64857 4.7802.27308 8.0434-.12516 4.7573-.5803 10.1558-1.24025 12.8236 1.11508 2.4445 2.15618 2.9197 6.78728 3.309 10.50228.1889 1.7978.3492 3.351.6869 4.3352.3779 1.0923 1.2137 2.5146 2.101 4.0223 1.9007 3.2371 4.0532 6.9067 3.1945 9.5579-.9961 3.0664-4.3509 5.6892-7.3106 8.0047-1.5743 1.2345-3.0628 2.3951-4.0646 3.5102-.7958.8819-1.5343 2.27-2.3129 3.7322-1.3911 2.6056-2.9654 5.564-5.5015 7.1058-4.162 2.5317-5.1982 2.617-7.4766 2.7991-.7099.0569-1.5171.1195-2.5877.2731-1.7117.2446-3.6066 1.0411-5.616 1.8831-2.6964 1.1322-5.4787 2.2984-8.1808 2.2984zm.3378-63.13889c-1.1793 0-2.2842.25601-3.246.8989-3.1658 2.09932-3.8242 5.31939-4.5169 8.73299-.7385 3.6183-1.4999 7.3675-5.4099 9.8537-7.30492 4.6481-10.82569 8.9889-10.779891 13.2786.040074 3.5785 3.022711 5.5015 6.177091 7.5382 2.16398 1.3939 4.3967 2.8389 5.6218 4.87 1.6888 2.7934 3.4807 7.6747 4.036 10.3088.7957 3.7891 4.202 7.1002 7.4308 7.2253 2.7193.1081 5.5874-1.0923 8.3583-2.2586 2.0323-.8534 3.9558-1.6612 5.7191-1.9115 1.082-.1537 1.8949-.2219 2.6105-.2788 2.204-.1764 3.2116-.2617 7.2877-2.7365 2.433-1.4792 3.9787-4.3807 5.347-6.9409.7957-1.4905 1.5457-2.8958 2.3701-3.8174 1.0247-1.1436 2.5303-2.3212 4.1161-3.5615 2.9082-2.2757 6.2057-4.8586 7.1675-7.7999.8015-2.4691-1.2995-6.0476-3.1544-9.2108-.8931-1.5248-1.7403-2.9641-2.1354-4.0963-.3549-1.0297-.5209-2.6056-.7098-4.4319-.3779-3.6468-.8473-8.1811-3.1659-10.22919-2.5246-2.23017-7.8143-1.5816-12.4858-1.00699-3.3204.40393-6.4576.7908-8.2495.10241-.8244-.3186-1.809-.80218-2.9425-1.36542-2.8167-1.39385-6.3832-3.15751-9.4575-3.15751z" fill="#ff2789"/></g><g opacity=".8"><path d="m52.8121 63.4916c-4.8432 0-11.8561-2.9812-17.3119-5.2967-3.2059-1.3654-5.9767-2.5374-7.219-2.6284-1.3969-.1024-3.6181.1138-6.1885.3641-8.0434.7794-19.058 1.8433-21.353658-4.631-1.465556-4.1304 1.637298-9.7513 4.127598-14.2629.97322-1.7637 1.89492-3.4306 2.35863-4.6993.67553-1.8433.72706-4.6538.7843-7.6292.10305-5.3763.21755-11.4695 3.99023-14.2174 3.2345-2.35532 9.6578-1.06955 14.3464-.1251 1.8491.3698 3.4463.694 4.3909.694 1.8663 0 4.8604-1.46778 7.7572-2.88439 3.9959-1.95709 8.1292-3.98245 10.3505-2.82185 4.1734 2.17897 5.5359 5.46734 6.8526 8.65334.4923 1.1947 1.0076 2.4349 1.6602 3.5955.853 1.5134 3.0513 2.8162 5.1752 4.0849 3.0571 1.8149 6.2172 3.698 6.2172 6.4857 0 1.6044-1.1221 3.3225-2.4216 5.308-1.248 1.9116-2.662 4.0735-3.412 6.628-.7557 2.5715-.8816 5.4673-1.0076 8.2664-.2461 5.4617-.498 11.1111-5.5073 14.2743-.9503.603-2.1868.8533-3.6009.8533zm-25.3152-8.5168c.2977 0 .5725.0057.8244.0285 1.3338.0967 4.0131 1.2345 7.4022 2.6739 6.9327 2.947 16.4245 6.9807 20.3804 4.4831 4.7573-3.0039 4.992-8.2551 5.2439-13.8191.1259-2.8333.2576-5.7632 1.0305-8.403.7728-2.6341 2.2098-4.8358 3.4807-6.7759 1.248-1.9115 2.33-3.5557 2.33-4.9951 0-2.4691-3.017-4.2612-5.9367-5.9964-2.2899-1.3597-4.4539-2.6512-5.3813-4.2954-.6698-1.1947-1.1908-2.4463-1.6946-3.6581-1.3396-3.2315-2.599-6.28663-6.5892-8.36319-1.9579-1.02406-5.9596.93872-9.8296 2.83323-3.0914 1.51336-6.011 2.94706-8.009 2.94706-1.0019 0-2.6277-.3243-4.5054-.7055-4.5856-.9217-10.86-2.18467-13.8942.0284-3.54367 2.5829-3.65817 8.5225-3.75549 13.7679-.05725 3.0267-.1145 5.8827-.81865 7.8113-.48089 1.3142-1.36824 2.9186-2.39298 4.779-2.43878 4.4148-5.4729381 9.9106-4.09325 13.802 2.14681 6.0533 12.90377 5.0122 20.75827 4.2556 2.1468-.2049 4.0474-.3926 5.4557-.3926z" fill="#00e0f7"/><path d="m52.4514 63.0989c-4.7916 0-11.5698-2.7023-16.871-4.8074-3.1888-1.2686-5.9424-2.3667-7.2648-2.4691-1.3282-.1024-3.4292.0569-5.8565.2447-7.6198.5803-19.13814 1.4564-21.3193-5.0236-1.396856-4.1474 1.71173-9.6091 4.20775-14.0012 1.00757-1.775 1.96362-3.4476 2.43305-4.7277.66981-1.8376.68126-4.6424.68698-7.6179.01145-5.2625.02863-11.2248 3.72682-13.9215 3.183-2.31549 9.4746-1.26298 14.0717-.4893 1.8491.313 3.4463.5747 4.4367.5576 1.8892-.0341 4.8032-1.35404 7.6198-2.62843 3.9558-1.7921 8.0434-3.64678 10.2245-2.47481 3.8929 2.09364 5.3527 5.27394 6.761 8.34604.5553 1.2118 1.1278 2.4635 1.8434 3.6184.8816 1.428 2.8739 2.6284 4.9864 3.9028 3.0284 1.8262 6.1599 3.715 6.1541 6.5255 0 1.6158-1.1049 3.3225-2.3758 5.3081-1.2079 1.8774-2.5761 4.0052-3.3032 6.5084-.7499 2.5602-.8644 5.4275-.9732 8.2039-.2118 5.3365-.4351 10.8607-5.3127 14.0125-1.0132.66-2.3471.9387-3.8757.9387zm-25.0862-7.8568c.3664 0 .6985.0114.9962.0342 1.4025.1081 4.0589 1.1663 7.4251 2.5032 6.8755 2.7365 16.2928 6.4914 20.2372 3.9199 4.6371-2.9982 4.8432-8.1356 5.0608-13.5745.1145-2.8104.229-5.7119.9961-8.3347.7557-2.5772 2.1468-4.7448 3.3719-6.6507s2.2842-3.5557 2.29-5.0122c.0057-2.4975-2.9884-4.3067-5.8852-6.0533-2.1697-1.3085-4.2134-2.5431-5.1695-4.0849-.7328-1.1833-1.3167-2.452-1.8777-3.6752-1.437-3.1291-2.7937-6.08176-6.5206-8.09005-1.9407-1.04113-5.9023.75097-9.7322 2.49187-2.9998 1.35968-5.8336 2.64548-7.843 2.67958-1.0305.0171-2.6564-.2503-4.5341-.5689-4.4997-.7566-10.6596-1.78639-13.6537.3926-3.46926 2.5317-3.48643 8.3461-3.49788 13.4777-.00573 3.0267-.01718 5.8827-.72133 7.8056-.48661 1.3256-1.40259 2.9414-2.4674 4.8131-2.44451 4.2954-5.48439 9.6375-4.16768 13.5574 2.04376 6.0704 13.30449 5.217 20.75249 4.6481 1.9178-.1479 3.6296-.2788 4.9463-.2788z" fill="#09d5f8"/><path d="m52.0564 62.7064c-4.7459 0-11.2951-2.4293-16.436-4.3352-3.1543-1.172-5.8793-2.179-7.2705-2.2928-1.2594-.1024-3.2231.0057-5.5073.1309-7.6598.4267-19.24111 1.0639-21.3135-5.4275-1.333886-4.1702 1.78614-9.4839 4.29362-13.7509 1.04192-1.775 2.02659-3.459 2.50175-4.7448.6698-1.8262.62973-4.631.58393-7.6065-.07442-5.1487-.16029-10.9858 3.4692-13.6313 3.1373-2.28708 9.3201-1.45645 13.837-.8534 1.8376.2446 3.4291.4608 4.4424.421 1.9121-.0626 4.7287-1.23455 7.448-2.36671 3.9272-1.6328 7.9862-3.3225 10.1387-2.12777 3.6124 2.00261 5.1523 5.05768 6.6522 8.01038.624 1.2346 1.271 2.509 2.0553 3.6639.9159 1.3483 2.7937 2.4976 4.7859 3.7151 3.0055 1.8376 6.1141 3.7378 6.1027 6.571-.0115 1.6214-1.0877 3.3282-2.33 5.308-1.1622 1.849-2.4846 3.937-3.2002 6.3947-.7442 2.5488-.8473 5.3877-.9446 8.1356-.1889 5.2113-.3778 10.599-5.1123 13.7622-1.082.7225-2.5246 1.0184-4.1848 1.0184zm-24.903-7.2026c.4637 0 .8759.0114 1.2366.0398 1.4655.1195 4.2249 1.1379 7.4136 2.3269 6.8355 2.5374 16.1899 6.0078 20.1343 3.3737 4.5054-3.0096 4.6886-8.0274 4.8775-13.3355.0973-2.782.2004-5.6551.9675-8.2664.7385-2.526 2.0781-4.6538 3.2632-6.5255 1.2022-1.9059 2.2441-3.5558 2.2498-5.0293.0115-2.5317-2.9654-4.3523-5.845-6.1159-2.0438-1.246-3.9731-2.4293-4.952-3.8687-.8015-1.1833-1.4541-2.4748-2.0896-3.7207-1.4598-2.8845-2.9654-5.85993-6.4347-7.78857-1.9235-1.06957-5.8622.56892-9.6692 2.15052-2.8968 1.20612-5.6275 2.34395-7.6369 2.40655-1.0648.0398-2.6735-.1764-4.5341-.4267-4.4253-.5917-10.4879-1.40524-13.4476.751-3.40056 2.4805-3.32041 8.1697-3.24599 13.1933.0458 3.0209.08587 5.8712-.61828 7.7942-.48661 1.3313-1.43693 2.9527-2.54182 4.8301-2.45023 4.1759-5.501564 9.3759-4.2421 13.3242 1.94644 6.0931 13.27589 5.4673 20.76969 5.0577 1.6545-.091 3.1486-.1764 4.3394-.1764z" fill="#12cbf8"/><path d="m51.6156 62.331c-4.6944 0-11.0146-2.1733-16.0009-3.8915-3.0971-1.0639-5.7764-1.9855-7.2305-2.1107-1.185-.1024-3.0112-.0398-5.1237.0342-7.7113.2674-19.36709.6656-21.33643-5.8429-1.265184-4.1929 1.86057-9.3587 4.37377-13.5119 1.07627-1.775 2.08956-3.459 2.56472-4.7448.66408-1.8205.57821-4.6196.48089-7.5837-.16029-5.0406-.34349-10.7526 3.21165-13.3412 3.1028-2.25862 9.2055-1.65556 13.6651-1.2118 1.7976.1764 3.3491.3357 4.391.2788 1.9064-.0967 4.6085-1.11511 7.219-2.09935 3.9215-1.4792 7.969-3.00959 10.1043-1.78641 3.3204 1.90588 4.9405 4.83016 6.5091 7.65766.7328 1.3256 1.4313 2.5772 2.29 3.7321.9388 1.2574 2.7078 2.3554 4.5741 3.516 2.9884 1.8547 6.0798 3.7662 6.0569 6.6279-.0172 1.6328-1.0706 3.3339-2.29 5.3081-1.122 1.8148-2.3929 3.8743-3.0971 6.2752-.7385 2.5317-.8301 5.3478-.9159 8.0673-.1603 5.0861-.3206 10.343-4.9177 13.5062-1.1564.7965-2.725 1.1208-4.534 1.1208zm-24.8057-6.5654c.6183 0 1.1621.0171 1.6144.0512 1.5171.1308 4.2249 1.0582 7.3564 2.1335 6.8068 2.3439 16.1268 5.5469 20.0713 2.8332 4.3852-3.0153 4.534-7.9137 4.6943-13.0966.0859-2.7536.1718-5.5982.9332-8.1982.7213-2.4691 2.0151-4.557 3.1486-6.4003 1.1793-1.9059 2.1983-3.5558 2.2098-5.0464.0229-2.5715-2.9483-4.4091-5.8164-6.1841-1.9121-1.1834-3.7212-2.3042-4.7173-3.6468-.8816-1.1834-1.6144-2.509-2.3243-3.7947-1.5285-2.765-3.1143-5.62098-6.3144-7.45859-1.9179-1.10371-5.8566.38686-9.6636 1.82055-2.7708 1.04681-5.387 2.03104-7.3735 2.13344-1.0763.0569-2.6506-.1024-4.4654-.2844-4.3738-.4324-10.3619-1.0298-13.3045 1.115-3.33186 2.4293-3.15439 7.9991-2.99982 12.9089.09733 3.0153.18892 5.8656-.51523 7.7771-.49234 1.337-1.47128 2.9584-2.6048 4.8359-2.46167 4.0678-5.52446 9.1255-4.32224 13.1022 1.84912 6.1273 13.27019 5.7348 20.82119 5.4731 1.3282-.0456 2.5476-.0854 3.5723-.0854z" fill="#1bc1f9"/><path d="m51.1232 61.9726c-4.6428 0-10.734-1.9286-15.5715-3.4647-3.0227-.9558-5.6332-1.7865-7.1388-1.9173-1.0992-.0967-2.7766-.074-4.7116-.0512-7.78.1024-19.52737.2617-21.38794-6.2695-1.20221-4.2157 1.94072-9.245 4.46537-13.2843 1.10489-1.7751 2.15253-3.4477 2.62769-4.7392.66408-1.8148.52096-4.6025.37212-7.5609-.24617-4.9326-.52669-10.5194 2.95396-13.0568 3.0743-2.24153 8.8678-1.87173 13.5164-1.5702 1.746.1138 3.2517.2105 4.3108.1422 1.8949-.1251 4.4596-.98989 6.9385-1.8319 3.9329-1.33127 7.9975-2.70237 10.1214-1.44506 3.0342 1.79779 4.7116 4.57986 6.3317 7.26516.8301 1.3768 1.6144 2.6739 2.559 3.8345.9561 1.172 2.6048 2.2074 4.3509 3.2997 2.9826 1.8718 6.0626 3.8004 6.0339 6.6963-.0229 1.6385-1.0476 3.3395-2.2441 5.3137-1.0763 1.7807-2.3014 3.8004-2.9884 6.1557-.7385 2.5203-.8072 5.3081-.8816 7.9991-.1374 5.1885-.2633 10.0926-4.723 13.2501-1.2422.8819-2.9597 1.2346-4.9405 1.2346zm-25.0175-5.9509c.9275 0 1.7289.017 2.3587.0739 1.5629.1366 4.1963.9729 7.2476 1.9401 6.7954 2.1562 16.1039 5.1032 20.0655 2.2984 4.2593-3.0153 4.3852-7.7942 4.5169-12.8633.0687-2.7251.1431-5.547.8988-8.1299.7042-2.4179 1.9465-4.466 3.0399-6.2752 1.1564-1.9059 2.1525-3.5558 2.1697-5.0634.0286-2.6171-2.9368-4.4717-5.7992-6.2695-1.7805-1.1151-3.4636-2.1733-4.4711-3.4079-.9733-1.189-1.7633-2.5032-2.5991-3.8914-1.5915-2.6341-3.2345-5.35923-6.1599-7.09444-1.9236-1.14354-5.8794.19912-9.7036 1.49057-2.6277.88752-5.1123 1.72957-7.0702 1.85467-1.0877.0683-2.6105-.0284-4.3737-.1422-4.328-.2788-10.2589-.65996-13.19 1.4735-3.26319 2.3781-2.9941 7.8284-2.7537 12.6357.1489 3.0096.292 5.8486-.40644 7.7544-.49234 1.3427-1.49991 2.9584-2.6735 4.8359-2.47312 3.9597-5.54735 8.8808-4.40811 12.886 1.75752 6.1672 13.73955 6.0022 20.90135 5.9111.8587-.0113 1.6716-.0227 2.4044-.0227z" fill="#25b6f9"/><path d="m50.5737 61.6256c-4.5913 0-10.4478-1.7011-15.1365-3.0608-2.9196-.8477-5.4443-1.5816-6.99-1.7238-1.0075-.091-2.5189-.1024-4.265-.1195-7.3735-.0512-19.71628-.1422-21.47952-6.7133-1.13925-4.2441 2.02086-9.1369 4.55123-13.0681 1.13925-1.7637 2.21551-3.4306 2.68495-4.7277.65834-1.8035.46944-4.5855.26334-7.5326-.33204-4.8244-.70988-10.2918 2.7078-12.7779 3.0628-2.2359 8.8106-2.06522 13.4305-1.93437 1.6716.04547 3.1143.09107 4.1734.00569 1.8548-.14792 4.2593-.86476 6.5893-1.55885 3.9787-1.18904 8.0892-2.41223 10.2131-1.1094 2.7422 1.68401 4.4539 4.30673 6.1084 6.84983.9388 1.4394 1.8262 2.7991 2.8738 3.9711.9618 1.0752 2.4903 2.0424 4.1047 3.0665 2.9827 1.8888 6.0683 3.8459 6.0283 6.7872-.0229 1.6499-1.0305 3.3509-2.1984 5.3137-1.0362 1.7523-2.2098 3.7321-2.8853 6.0363-.7328 2.5032-.79 5.2625-.8473 7.9307-.103 5.0634-.2061 9.8481-4.534 12.9999-1.3396.9785-3.2288 1.3597-5.4043 1.3597zm-27.6967-51.2371c-3.6124 0-7.4709.3072-9.6693 1.9059-3.2001 2.3326-2.8338 7.6577-2.5074 12.3627.2061 2.9982.4007 5.8314-.292 7.7316-.49234 1.3427-1.52853 2.9527-2.73647 4.8188-2.48458 3.8516-5.57599 8.6476-4.49399 12.6869 1.66592 6.2184 13.77966 6.3094 21.01586 6.3606 1.7575.0114 3.2746.0227 4.3051.1195 1.5915.1479 4.1333.8818 7.0816 1.7409 6.8068 1.9741 16.1268 4.6765 20.117 1.775 4.1391-3.0153 4.2307-7.6804 4.3337-12.6244.0573-2.7024.1145-5.4901.8645-8.0559.6927-2.361 1.8834-4.3693 2.9311-6.1444 1.1335-1.9115 2.1067-3.5557 2.1296-5.0804.0344-2.674-2.9311-4.5514-5.805-6.3719-1.643-1.0412-3.2002-2.0254-4.2077-3.1519-1.0763-1.2004-1.9694-2.5715-2.9197-4.0279-1.6258-2.4976-3.3147-5.07482-5.9595-6.70193-1.935-1.18905-5.9424 0-9.8181 1.1606-2.4617.7339-4.786 1.42803-6.6866 1.57593-1.082.0853-2.5361.0455-4.2249 0-1.0763-.0285-2.2556-.0626-3.4578-.0626z" fill="#2eabfa"/><path d="m49.9497 61.2955c-4.5283 0-10.1616-1.4849-14.7014-2.6796-2.7937-.7339-5.2038-1.3711-6.7667-1.519-.9103-.0854-2.2384-.1252-3.7727-.165-7.4594-.2048-19.94528-.5519-21.60548-7.1798-1.07055-4.2726 2.10101-9.0345 4.64856-12.8577 1.16786-1.7522 2.27272-3.4078 2.74222-4.6992.6583-1.7921.4122-4.5685.1545-7.5041-.4179-4.7164-.88731-10.0699 2.456-12.5049 3.0685-2.23588 8.8105-2.2757 13.419-2.30984 1.5629-.01138 2.9139-.02275 3.9558-.11947 1.7747-.16499 3.8872-.71115 6.1199-1.28576 4.0703-1.05251 8.2724-2.13915 10.4135-.77374 2.4445 1.55885 4.1734 4.01661 5.8393 6.39471 1.0648 1.519 2.0724 2.9527 3.2402 4.136.9561.9729 2.3529 1.8661 3.8357 2.8105 2.9998 1.9173 6.0969 3.8971 6.0454 6.8953-.0286 1.6613-1.0133 3.3567-2.1525 5.3251-.9962 1.7182-2.124 3.6639-2.7823 5.9168-.7271 2.4919-.7729 5.2227-.8129 7.8682-.0745 4.9383-.1432 9.5977-4.3395 12.7439-1.4541 1.0923-3.5436 1.5076-5.9366 1.5076zm-5.7019-53.78016c-2.1068 0-4.849.71115-7.5339 1.39954-2.2556.5803-4.3852 1.13212-6.1943 1.30282-1.0591.0967-2.4159.1081-3.9959.1195-4.3051.0284-10.2017.0739-13.1499 2.2188-3.1372 2.287-2.6735 7.4927-2.2671 12.0953.2634 2.9868.5153 5.8086-.1774 7.6975-.4924 1.3426-1.5572 2.9413-2.79376 4.796-2.49602 3.7492-5.60461 8.4143-4.58559 12.4935 1.57433 6.2809 13.84265 6.6222 21.17045 6.8271 1.5457.0455 2.8796.0796 3.807.1706 1.6029.1536 4.0303.7908 6.8411 1.5361 6.8412 1.8035 16.2128 4.2669 20.2373 1.2516 4.0131-3.0095 4.0818-7.5609 4.1562-12.3854.0401-2.6739.0802-5.4389.8301-7.9876.6756-2.3042 1.8148-4.2783 2.8224-6.0192 1.1049-1.9116 2.0609-3.5615 2.0896-5.0976.0458-2.7422-2.9426-4.6481-5.8336-6.4971-1.5-.9614-2.9197-1.866-3.9158-2.8787-1.1908-1.2118-2.2098-2.6625-3.2861-4.1986-1.643-2.3383-3.3433-4.76191-5.7134-6.26955-.6411-.40963-1.5056-.56892-2.5132-.56892z" fill="#37a1fa"/><path d="m49.2398 60.9941c-4.4654 0-9.8696-1.28-14.2606-2.3212-2.6334-.6258-4.9062-1.1606-6.4633-1.3199-.8015-.0796-1.9293-.1365-3.2345-.1934-7.0645-.3414-20.22013-.9672-21.78873-7.6634-1.00757-4.301 2.18116-8.9377 4.74588-12.6585 1.24802-1.8149 2.32425-3.3794 2.79375-4.6651.6526-1.7808.3549-4.5457.0343-7.4643-.498-4.614-1.0648-9.848 2.2098-12.2375 3.1029-2.2586 9.1254-2.52033 13.5278-2.70808 1.414-.06258 2.6334-.11378 3.6238-.21619 1.6373-.17067 3.5036-.5803 5.4844-1.01837 4.2306-.92734 8.6044-1.88313 10.7855-.43807 2.1526 1.428 3.8643 3.70371 5.5188 5.90541 1.2136 1.6157 2.3586 3.1404 3.6581 4.3466.9332.8647 2.1927 1.6726 3.5208 2.526 3.0342 1.9457 6.1657 3.9597 6.1084 7.0318-.0343 1.6727-.9961 3.3681-2.1067 5.3308-.9504 1.6841-2.0323 3.5899-2.6792 5.7917-.7271 2.4748-.75 5.1828-.7729 7.7942-.0458 4.8131-.0859 9.3588-4.1505 12.4935-1.5801 1.2232-3.9043 1.6726-6.5607 1.6726zm-5.742-53.20554c-2.1354 0-4.8375.59168-7.4881 1.17198-1.9922.43807-3.87.8477-5.5302 1.02406-1.0018.1081-2.2269.1593-3.6467.2219-4.3394.1877-10.2875.4437-13.2816 2.6227-3.0742 2.2359-2.5418 7.1115-2.0323 11.8279.3206 2.9755.6297 5.7859-.063 7.6634-.4923 1.3426-1.58005 2.9299-2.84523 4.7675-2.5132 3.6525-5.63896 8.1925-4.67719 12.3058 1.48846 6.3662 14.42082 6.9864 21.37082 7.3163 1.311.0626 2.4445.1195 3.2574.1992 1.5915.1593 3.8757.6997 6.5263 1.3256 6.9041 1.6384 16.3558 3.8743 20.4376.7282 3.8929-3.0039 3.933-7.4472 3.9788-12.1465.0229-2.6455.0515-5.382.79-7.9194.6584-2.2529 1.7518-4.1816 2.7193-5.8826 1.082-1.9116 2.0152-3.5615 2.0495-5.1203.0572-2.8219-2.9712-4.7676-5.9023-6.6507-1.3453-.8648-2.622-1.684-3.5837-2.5773-1.3282-1.2288-2.5419-2.8446-3.7155-4.4034-1.6315-2.1733-3.3146-4.41484-5.4042-5.80301-.7328-.48358-1.7518-.67133-2.9597-.67133z" fill="#4097fb"/><path d="m48.4212 60.7153c-4.3967 0-9.5777-1.0924-13.8198-1.9913-2.433-.512-4.5283-.9558-6.0568-1.115-.6756-.0683-1.5858-.1309-2.6392-.1992-7.1846-.4836-20.55211-1.3825-22.02339-8.1697-.93887-4.3352 2.26703-8.8467 4.8432-12.4651 1.27659-1.7921 2.37579-3.3452 2.84529-4.6253.6469-1.7693.2919-4.5172-.0802-7.4244-.5839-4.5116-1.2423-9.6262 1.9693-11.9701 3.1716-2.3155 9.3258-2.79344 13.8141-3.14617 1.1449-.09103 2.2269-.17637 3.1085-.27877 1.3969-.16499 2.9312-.44376 4.5513-.7396 4.5111-.82494 9.1769-1.67263 11.4554-.10241 1.8663 1.28577 3.5265 3.36805 5.1294 5.37635 1.3224 1.6555 2.6907 3.368 4.1391 4.5912.8873.7452 1.9865 1.4507 3.1601 2.2017 3.0914 1.9855 6.2916 4.0393 6.2229 7.2082-.0401 1.684-.979 3.3794-2.061 5.3422-.9102 1.6499-1.9464 3.5159-2.5704 5.6665-.7214 2.4634-.7271 5.1373-.7385 7.7259-.0115 4.6879-.0287 9.1141-3.9616 12.2432-1.7289 1.3768-4.3337 1.8661-7.2877 1.8661zm-5.8336-52.68787c-2.2041 0-4.9119.49496-7.5682.97854-1.6259.29584-3.1659.5803-4.5799.74529-.8874.1024-1.9751.18774-3.1258.27874-4.4367.3471-10.5165.825-13.5907 3.0665-3.0055 2.1904-2.393 6.9579-1.7976 11.5719.3836 2.9641.7442 5.7575.063 7.6292-.4866 1.337-1.6087 2.9072-2.90252 4.7278-2.52465 3.5557-5.67331 7.9762-4.77451 12.1294 1.40258 6.4686 15.06773 7.3903 21.63413 7.834 1.0591.0683 1.9693.1309 2.6506.2048 1.5457.1593 3.6582.6031 6.0969 1.1208 7.0015 1.4792 16.5963 3.5046 20.7468.2048 3.7784-2.9982 3.7899-7.3277 3.8013-11.9132.0057-2.617.0172-5.3251.7557-7.8454.6412-2.1961 1.6888-4.0849 2.6105-5.7518 1.0591-1.9116 1.9693-3.5672 2.0094-5.1431.0687-2.9299-3.0284-4.9155-6.0225-6.8384-1.1793-.7567-2.2957-1.4735-3.2002-2.2359-1.4827-1.2459-2.8624-2.9754-4.1963-4.6481-1.5858-1.9855-3.2231-4.0393-5.0378-5.29094-.853-.58599-2.0953-.80787-3.5609-.80787z" fill="#498cfb"/><path d="m47.4823 60.4649c-4.328 0-9.2857-.9217-13.3847-1.6897-2.1811-.404-4.0646-.7567-5.513-.9103-.5267-.0569-1.1907-.1138-1.9636-.1764-6.8011-.5803-20.95288-1.7921-22.33828-8.7045-.8759-4.3693 2.3529-8.7557 4.94625-12.283 1.29953-1.7693 2.42733-3.2997 2.89103-4.5741.6412-1.758.2347-4.4888-.2061-7.3846-.6641-4.4092-1.414-9.41 1.7289-11.7027 3.3204-2.4179 9.7265-3.13479 14.4037-3.6582.8358-.09102 1.6144-.18205 2.2956-.26739.9733-.12516 1.9866-.27877 3.0628-.44376 4.7917-.73391 10.2246-1.55884 12.6805.2105 1.5858 1.14355 3.0857 2.92425 4.6772 4.81305 1.5056 1.7864 3.0628 3.6354 4.6886 4.8757.8015.6087 1.7289 1.2004 2.7136 1.8319 3.0456 1.94 6.4977 4.1418 6.4118 7.4358-.0458 1.6954-.9618 3.3908-2.0209 5.3536-.8701 1.6157-1.8548 3.4419-2.4674 5.5356-.7156 2.4463-.7041 5.0975-.6984 7.6577.0172 4.5627.0344 8.8751-3.7784 11.9928-1.9006 1.5589-4.8374 2.0937-8.1349 2.0937zm-6.0626-52.23841c-2.4102 0-5.2783.43807-7.9518.84769-1.0763.16499-2.0953.3186-3.0685.44376-.687.09103-1.4656.17637-2.3071.2674-4.6314.51776-10.9745 1.22886-14.2033 3.57856-2.9483 2.1448-2.2442 6.8099-1.5686 11.3158.4408 2.947.8644 5.729.1832 7.5837-.4866 1.3313-1.6259 2.8788-2.94832 4.6766-2.54755 3.459-5.71338 7.7657-4.87183 11.9587 1.32244 6.6109 15.78905 7.8454 21.96615 8.3745.7786.0683 1.4484.1252 1.9751.1821 1.4655.1536 3.3547.5063 5.5416.9159 7.1503 1.3313 16.9341 3.1576 21.1876-.3186 3.6582-2.9925 3.641-7.2139 3.6238-11.6799-.0114-2.5886-.0171-5.2682.7156-7.7715.624-2.1391 1.6202-3.9881 2.5018-5.6152 1.0305-1.9173 1.9235-3.5729 1.9693-5.1715.0802-3.0665-3.1257-5.109-6.2229-7.0774-.9904-.6315-1.9292-1.2289-2.7422-1.849-1.6602-1.2687-3.2345-3.1348-4.7573-4.9383-1.5743-1.866-3.057-3.6297-4.6028-4.74476-1.0075-.72253-2.5818-.97855-4.4252-.97855z" fill="#5282fc"/><path d="m46.3946 60.2601c-4.2593 0-9.0166-.7794-12.9897-1.428-1.8605-.3072-3.4749-.5689-4.7916-.7111-.3378-.0399-.7385-.0797-1.1851-.1252-6.4232-.6486-21.45663-2.1733-22.75616-9.2677-.8072-4.4035 2.43877-8.6761 5.04929-12.1067 1.32817-1.7466 2.47317-3.2542 2.93687-4.5172.6412-1.7466.1717-4.4604-.3263-7.3391-.7786-4.5229-1.5858-9.1995 1.4941-11.4467 3.6181-2.6398 10.8314-3.64111 15.6059-4.30106l1.0591-.14792c5.5359-.77942 12.4286-1.75228 15.2853.39825 1.3167.98993 2.6964 2.55443 4.1505 4.20433 1.7174 1.94 3.4864 3.9483 5.3126 5.1999.6641.4609 1.3855.9103 2.1469 1.3825 3.2001 1.9969 6.8239 4.2612 6.7266 7.7317-.0515 1.7124-.9446 3.4078-1.975 5.3649-.8301 1.5759-1.769 3.3623-2.3644 5.4104-.7099 2.435-.687 5.0521-.6583 7.5838.0457 4.4432.0915 8.6419-3.5895 11.7482-2.101 1.775-5.4329 2.361-9.1368 2.361zm-6.4691-51.91409c-2.9254 0-6.3545.48359-9.3772.91028l-1.0591.14792c-4.7345.65999-11.8905 1.64989-15.4284 4.23279-2.8854 2.105-2.1011 6.6564-1.3397 11.0655.5038 2.93.9847 5.6949.3092 7.5382-.4809 1.3199-1.6488 2.8503-2.9941 4.6197-2.56472 3.368-5.75345 7.5609-4.97488 11.7994 1.24802 6.81 16.62488 8.3631 22.41268 8.9491.4523.0455.8473.0854 1.1851.1252 1.3281.1479 2.9425.4096 4.8088.7168 7.3507 1.2005 17.4207 2.8446 21.8059-.8477 3.5437-2.9868 3.4979-7.0944 3.4521-11.4467-.0287-2.5601-.0573-5.2113.6698-7.6975.6068-2.0822 1.5571-3.8857 2.3929-5.4787 1.0076-1.9172 1.8778-3.5785 1.9293-5.1999.0916-3.2429-3.4349-5.4446-6.5435-7.3846-.7671-.4779-1.4884-.9331-2.164-1.3939-1.8605-1.2857-3.6524-3.3054-5.3813-5.2682-1.4484-1.6385-2.8109-3.1803-4.0932-4.14744-1.2194-.91596-3.2517-1.23456-5.6104-1.23456z" fill="#5b77fc"/><path d="m45.055 60.0781c-4.2822 0-8.9079-.6599-12.5889-1.189-1.3969-.1992-2.7193-.3869-3.8185-.5121l-.2462-.0284c-5.4672-.6145-22.10353-2.4805-23.33437-9.8765-.7385-4.4433 2.53038-8.5964 5.15807-11.936 1.3511-1.7181 2.5189-3.1973 2.9769-4.4546.6355-1.7296.1031-4.4319-.4522-7.2879-.8645-4.4205-1.7576-8.989 1.2594-11.185 2.8281-2.0595 8.2953-3.72077 16.2471-4.92119 5.347-.81356 12.3313-1.30283 15.2108.98423 1.0534.83636 2.2671 2.15626 3.5552 3.55576 1.8548 2.014 3.9558 4.301 6.0053 5.5697.4465.2788.9103.5576 1.3854.842 3.4464 2.0709 7.3564 4.4149 7.2362 8.1242-.0572 1.7296-.9274 3.425-1.9293 5.3877-.7843 1.5418-1.6773 3.2884-2.2613 5.2739-.7099 2.418-.6583 5.0066-.6183 7.5098.0802 4.3238.1546 8.4087-3.4062 11.4979-2.3243 2.0197-6.1886 2.6512-10.3849 2.6512zm-6.9729-51.69222c-2.7593 0-5.6618.34135-7.7686.65995-7.8945 1.19477-13.3045 2.83327-16.081 4.85857-2.8224 2.0595-1.9522 6.5085-1.1106 10.8152.5667 2.9072 1.1049 5.6551.4351 7.487-.4809 1.3142-1.666 2.8162-3.0342 4.5571-2.5819 3.2827-5.79353 7.3618-5.08365 11.6458.7843 4.7221 8.52425 7.9365 23.00235 9.5636l.2519.0284c1.1049.1252 2.4273.3129 3.8299.5121 7.2076 1.0297 18.1019 2.5886 22.6703-1.3768 3.4292-2.9755 3.3548-6.975 3.2804-11.2135-.0458-2.5317-.0916-5.1487.6297-7.6235.5896-2.0197 1.4942-3.7834 2.2842-5.3365.9847-1.923 1.8319-3.5842 1.8892-5.2284.1088-3.4932-3.6983-5.7745-7.053-7.7942-.4752-.2845-.9446-.5633-1.3911-.842-2.0896-1.2972-4.2135-3.6013-6.0798-5.638-1.2766-1.3882-2.4789-2.6967-3.515-3.51598-1.4942-1.18904-4.2479-1.56453-7.1504-1.56453z" fill="#646dfd"/><path d="m43.6123 59.9757c-4.2822 0-8.8105-.5746-12.4572-1.0412-.8874-.1137-1.7175-.2162-2.4674-.3072-5.1753-.5974-22.13221-3.1234-23.21993-10.4169-.66981-4.4831 2.62197-8.5225 5.26683-11.771 1.374-1.684 2.559-3.1405 3.017-4.3921.6297-1.7182.0401-4.3978-.5839-7.2367-.9504-4.3181-1.9293-8.7841 1.0247-10.9347 3.6582-2.6682 10.9173-4.58547 16.0238-5.42179 5.45-.87045 12.1824-.71684 14.9418 1.59299.8072.677 1.769 1.684 2.8796 2.856 1.9922 2.0936 4.4711 4.705 6.7782 5.9907l.2691.1536c3.8642 2.1506 8.238 4.5912 8.0949 8.659-.063 1.7466-.9046 3.442-1.8835 5.4105-.7442 1.5019-1.5915 3.203-2.1583 5.1373-.7041 2.4009-.6354 4.961-.5724 7.4358.1087 4.2044.2118 8.1811-3.2231 11.2533-2.5991 2.3212-7.0187 3.021-11.7417 3.021zm-7.2934-51.65244c-2.0152 0-4.1105.18205-6.0454.48927-5.4673.89321-12.4974 2.90147-15.8693 5.35927-2.7651 2.014-1.809 6.3662-.8873 10.5705.6354 2.8902 1.2308 5.6153.5667 7.4302-.4751 1.3028-1.6831 2.782-3.0742 4.4887-2.60479 3.1917-5.83932 7.1685-5.19242 11.4923 1.05337 7.0432 17.79852 9.5237 22.91072 10.1154.75.0853 1.5801.1934 2.4732.3072 7.5968.9672 19.0808 2.4236 23.9126-1.8945 3.3147-2.9641 3.2116-6.8612 3.1086-10.9802-.063-2.5032-.1317-5.0861.5839-7.5439.5725-1.9628 1.4255-3.6809 2.1754-5.1942.9561-1.9287 1.7862-3.5956 1.8434-5.2626.1374-3.8516-4.139-6.2353-7.9117-8.3404l-.2748-.1536c-2.3529-1.3142-4.7459-3.8345-6.8583-6.0533-1.1049-1.1606-2.061-2.1676-2.851-2.8275-1.7117-1.43372-5.0321-2.00264-8.6101-2.00264z" fill="#6e62fd"/><path d="m41.9178 59.9244c-4.5055 0-9.154-.5575-12.7034-.9785l-.4981-.0569c-.2175-.0285-21.77151-2.6853-22.86495-10.9233-.60111-4.5229 2.71929-8.4542 5.38135-11.6117 1.3968-1.6556 2.5991-3.0836 3.0513-4.3124.624-1.7011-.0286-4.3637-.7156-7.1798-1.0305-4.2157-2.0953-8.5794.7958-10.6844 3.7268-2.7137 10.9229-5.08044 15.8005-5.92244 5.9366-1.01268 12.108-.08534 14.6785 2.20174.5724.5063 1.2938 1.2516 2.1296 2.1107 2.1182 2.179 5.0149 5.1601 7.6255 6.4572 4.305 2.1449 8.2666 4.6766 8.112 8.659-.0687 1.7637-.8873 3.4648-1.8376 5.4332-.7042 1.4622-1.4999 3.1234-2.0495 4.9952-.6984 2.3894-.6126 4.9155-.5267 7.3618.1431 4.0906.2748 7.9535-3.0456 11.0086-2.8968 2.674-8.0262 3.4477-13.3446 3.4477zm-6.9958-51.73771c-1.54 0-3.1257.12516-4.6829.39255-4.9062.8477-12.108 3.27696-15.6574 5.85986-2.7078 1.9742-1.6716 6.224-.6641 10.3317.6985 2.8673 1.3625 5.5754.7042 7.3732-.4752 1.2914-1.6946 2.7365-3.1086 4.4148-2.62197 3.1063-5.88512 6.975-5.30691 11.35 1.05909 7.982 22.34971 10.6104 22.56731 10.6331l.498.0569c7.179.8591 20.535 2.4521 25.7732-2.3781 3.2059-2.9527 3.0742-6.7417 2.9368-10.7526-.0858-2.4691-.1717-5.0292.5439-7.4642.5553-1.9002 1.3625-3.5729 2.0724-5.0464.9331-1.9343 1.7346-3.6069 1.8033-5.3023.1488-3.7947-3.7211-6.2525-7.9289-8.3461-2.662-1.3256-5.5817-4.3295-7.7171-6.5255-.8301-.8534-1.5514-1.593-2.1124-2.0937-1.7919-1.59294-5.5645-2.5089-9.7093-2.5089z" fill="#7758fe"/><path d="m40.0972 59.9244c-3.2975 0-7.0701-.2617-11.3408-.7851-4.5398-.5575-21.65707-4.1247-22.50434-11.4353-.52669-4.5628 2.81661-8.3859 5.50154-11.4581 1.414-1.6157 2.6334-3.0153 3.08-4.2385.6183-1.6897-.0916-4.3295-.8473-7.1229-1.1106-4.119-2.2613-8.3745.5668-10.434 3.618-2.6341 10.6023-5.51853 15.5772-6.42312 6.263-1.12646 12.0966.60875 14.4094 2.81052.3435.3242.7786.7737 1.2881 1.2857 2.0838 2.1278 5.5817 5.6835 8.5643 7.0034 3.4636 1.5304 8.0434 4.0735 7.8602 8.5111-.0744 1.7864-.8701 3.4932-1.7918 5.4674-.6641 1.4223-1.4141 3.0323-1.9465 4.8472-.6927 2.3724-.5839 4.8699-.4809 7.2822.1718 3.971.3321 7.7259-2.8681 10.7697-2.7537 2.6227-7.7285 3.9198-15.0735 3.9198zm-5.9652-51.93115c-1.2709 0-2.5934.10809-3.9387.35273-4.9348.8989-11.8619 3.75492-15.4456 6.36622-2.6506 1.9287-1.5285 6.0818-.4465 10.0984.7671 2.8446 1.4884 5.5299.8358 7.3106-.4694 1.2744-1.706 2.6967-3.1429 4.3352-2.64491 3.0267-5.93669 6.7872-5.42145 11.2134.81292 7.0376 18.01035 10.6389 22.22375 11.1566 13.4934 1.6499 22.2925.6258 26.1568-3.0494 3.0914-2.9413 2.9368-6.6223 2.7651-10.5251-.1031-2.4406-.2119-4.961.4923-7.3846.5381-1.8376 1.2938-3.459 1.9636-4.8927.9045-1.9457 1.6888-3.624 1.7633-5.3479.1374-3.2257-2.3014-5.8314-7.6713-8.2038-3.0456-1.3427-6.5607-4.9269-8.6674-7.0717-.5038-.512-.9389-.9558-1.2766-1.2801-1.7633-1.6783-5.6447-3.07785-10.1902-3.07785z" fill="#804dfe"/><path d="m38.105 59.9927c-3.9673 0-7.488-.3641-9.3142-.5973-4.683-.5803-21.44526-4.8643-22.14369-11.9474-.45226-4.6026 2.91394-8.3233 5.62179-11.3102 1.4312-1.5816 2.6678-2.947 3.1086-4.1531.6125-1.6726-.1603-4.2897-.9847-7.0603-1.1908-4.0223-2.4216-8.1754.3435-10.1951 3.6009-2.6227 10.2016-5.93952 15.354-6.92375 5.9366-1.12647 11.7187.92165 14.1403 3.41925l.3092.3186c1.8262 1.8888 6.0912 6.315 9.6406 7.6918 5.2038 2.0253 7.7628 4.8358 7.6025 8.3574-.0858 1.8092-.8587 3.5217-1.7518 5.5072-.6526 1.4451-1.3281 2.9413-1.8376 4.6936-.687 2.3553-.5611 4.8188-.4351 7.2026.2003 3.8572.395 7.504-2.6907 10.5307-3.6582 3.5899-10.8543 4.4603-16.9798 4.4603zm-4.597-52.19284c-1.0992 0-2.227.09671-3.3605.3129-4.9233.93872-11.6099 4.22714-15.2337 6.86684-2.5934 1.8889-1.3912 5.9453-.2348 9.8651.8359 2.8162 1.6202 5.4788.979 7.2481-.4637 1.263-1.7175 2.6512-3.1716 4.2555-2.66773 2.9414-5.98813 6.6052-5.5416 11.0769.68126 6.9011 17.2489 11.0997 21.8803 11.6743 4.6085.586 20.1113 2.0368 26.0422-3.7776 2.9827-2.93 2.7995-6.5085 2.5991-10.2975-.1259-2.4065-.2576-4.8984.4466-7.305.5152-1.7693 1.2251-3.3452 1.8548-4.7334.8816-1.9571 1.643-3.6411 1.7232-5.3934.1545-3.3794-2.3415-6.0874-7.4137-8.0616-3.6124-1.4052-7.9117-5.8599-9.7494-7.7658l-.3091-.3186c-1.9064-1.96842-5.9596-3.64105-10.5051-3.64105z" fill="#8942ff"/><path d="m36.4104 60.1179c-2.8395 0-5.4958-.1934-7.5911-.4665-5.0607-.6486-21.22764-5.6324-21.78295-12.4537-.37784-4.6481 3.01695-8.2608 5.74205-11.1623 1.4483-1.5417 2.7021-2.873 3.1372-4.0678.6068-1.6555-.2348-4.2498-1.1221-6.992-1.2709-3.9256-2.5819-7.982.1202-9.9504 3.8414-2.7991 10.1101-6.42317 15.1307-7.41878 6.4347-1.28007 11.8218 1.70677 13.877 4.02798 1.5228 1.7181 6.2973 6.4629 10.0528 7.7373 4.9863 1.6897 7.5282 4.5229 7.3507 8.2039-.0916 1.8376-.8416 3.5614-1.706 5.5526-.6068 1.3996-1.2366 2.8447-1.7346 4.5287-.6813 2.3382-.5324 4.7675-.3836 7.1172.2347 3.7492.458 7.2879-2.5132 10.2918-3.8871 3.9312-11.7702 5.0577-18.5771 5.0577zm-3.3261-52.53424c-.9618 0-1.9579.09103-2.9769.29015-4.9749.98993-11.2035 4.59119-15.0162 7.37319-2.5361 1.849-1.2595 5.8087-.0172 9.6319.9045 2.7934 1.7575 5.4275 1.1163 7.1798-.4579 1.2459-1.7288 2.5999-3.1944 4.1645-2.6907 2.8617-6.0397 6.4288-5.66758 10.946.54386 6.6621 16.53328 11.5548 21.53678 12.1977 7.0759.9103 20.5006.9843 25.9278-4.5115 2.8796-2.9129 2.662-6.3947 2.433-10.0756-.1488-2.3724-.3034-4.8302.395-7.214.4981-1.701 1.1335-3.1575 1.7461-4.5627.8587-1.9685 1.5972-3.6696 1.6831-5.456.2175-4.4717-3.7669-6.7701-7.156-7.9194-3.8128-1.2914-8.6388-6.0817-10.173-7.8169-1.6202-1.82629-5.6734-4.22714-10.6311-4.22714z" fill="#9238ff"/></g><path d="m40 35.5-8.25 4.7631v-9.5262z" fill="#fff"/></svg>