<svg fill="none" height="104" viewBox="0 0 100 104" width="100" xmlns="http://www.w3.org/2000/svg"><g opacity=".7"><path d="m60.7188 103.059c-2.4172 0-5.1066-.754-7.8455-2.278-1.4437-.8042-3.4401-2.2197-5.5603-3.719-3.5062-2.4877-7.4743-5.3021-9.941-6.0392-3.8773-1.1559-8.5219-.4439-13.0098.2429-6.5833 1.0051-12.7953 1.96-16.25195-2.8311-3.94338-5.4696-3.20915-13.4939-2.50792-21.2502.26399-2.9316.54448-5.9637.54448-8.7446 0-4.4226-1.09721-8.619-2.16143-12.673-1.5922-6.0894-3.093649-11.8354-.71773-17.5563 2.16968-5.2183 12.25915-8.4012 19.62615-10.7214 1.5839-.5026 3.0854-.9716 4.2816-1.3988 3.0359-1.0805 5.5438-3.9368 8.2002-6.95217 3.8526-4.36394 7.8208-8.870275 14.0163-9.12993383 5.4696-.21777817 10.3287 3.94514383 14.6185 7.62224383 2.2605 1.94325 4.4054 3.77766 6.2286 4.53986 1.8644.7706 4.7106 1.4239 7.7217 2.1108 6.4183 1.4658 13.6946 3.1242 15.8808 6.7678 2.4419 4.0708.8744 10.2272-.5198 15.6549-.8497 3.3254-1.6499 6.4664-1.5179 8.8703.1072 1.8763 1.3117 4.1797 2.5821 6.6255 2.0047 3.853 4.2816 8.217 3.0442 12.2961-1.8727 6.1732-6.4925 9.6409-10.9639 12.983-2.1284 1.5914-4.1331 3.0991-5.7253 4.8246-2.6399 2.8646-5.1066 6.5166-7.4908 10.0429-1.6747 2.4793-3.4071 5.034-5.1561 7.2537-1.8066 2.2871-4.3971 3.4511-7.4 3.4511zm-28.1069-13.0665c1.6995 0 3.3412.1759 4.8756.6282 2.5327.7539 6.5338 3.5934 10.0565 6.0978 2.1036 1.491 4.0918 2.8982 5.519 3.6935 5.9563 3.309 11.5992 2.907 14.7258-1.0634 1.7407-2.2029 3.4649-4.7576 5.1313-7.2285 2.3925-3.5431 4.8674-7.2035 7.5238-10.0932 1.6087-1.7506 3.6381-3.2667 5.7748-4.8749 4.4136-3.3086 8.984-6.7344 10.8154-12.7735 1.188-3.9117-1.0477-8.2002-3.0194-11.9779-1.2952-2.4877-2.5162-4.833-2.6317-6.8013-.1402-2.471.6683-5.6455 1.5262-9.0043 1.3695-5.344 2.9122-11.4083.561-15.3283-2.0954-3.4928-9.2809-5.1345-15.625-6.5752-3.0359-.6952-5.8985-1.3402-7.7877-2.1275-1.8892-.7874-4.0506-2.63851-6.3441-4.60689-4.1991-3.62685-8.9839-7.739512-14.305-7.521733-6.0223.242906-9.9244 4.682233-13.7028 8.970793-2.6894 3.05723-5.2386 5.94703-8.3735 7.06943-1.2044.4272-2.7059.9046-4.2981 1.4072-7.2928 2.295-17.27493 5.4444-19.37036 10.4868-2.32642 5.5869-.84147 11.2743.73423 17.2883 1.06421 4.0875 2.16968 8.3091 2.16968 12.7819 0 2.7976-.27224 5.8381-.54449 8.7865-.70122 7.6809-1.41895 15.6214 2.43368 20.9654 3.29986 4.5817 9.39646 3.652 15.85596 2.6636 2.7802-.4272 5.6181-.8628 8.3075-.8628z" fill="#055cff"/><path d="m60.6858 102.381c-2.3264 0-4.9251-.696-7.7135-2.078-1.4767-.7367-3.4649-1.9763-5.5768-3.2914-3.5721-2.2196-7.6228-4.7408-10.2214-5.4696-3.6712-1.0302-8.0188-.4774-12.2179.0587-6.4595.8208-12.5643 1.5998-15.91372-3.1746-3.68763-5.2601-3.12664-12.9661-2.58216-20.4209.21449-2.9065.42898-5.9135.37949-8.6525-.09075-4.3639-1.32821-8.4682-2.52442-12.4385-1.76544-5.8549-3.431891-11.3831-1.23746-17.0704 2.05418-5.3189 11.96207-8.686 19.19717-11.1402 1.5509-.5277 3.0111-1.0219 4.1991-1.4742 3.1679-1.2146 5.6345-4.2048 8.2497-7.37936 3.6216-4.39745 7.367-8.945667 13.4636-9.397976 5.4613-.4104284 10.4194 3.718986 14.8082 7.354206 2.2522 1.86787 4.3806 3.63523 6.1791 4.38073 1.9387.8041 4.9498 1.4071 8.1342 2.0521 6.3771 1.2899 13.6121 2.7474 15.8808 6.3658 2.5161 4.0122 1.0642 10.1854-.2145 15.6382-.7755 3.2834-1.5015 6.3826-1.3365 8.7279.132 1.8679 1.3447 4.1797 2.6317 6.6255 2.0377 3.8949 4.3558 8.3007 3.1184 12.3631-1.848 6.0726-6.6741 9.7079-10.9392 12.9159-2.1284 1.5998-4.1496 3.1159-5.7253 4.8414-2.3924 2.605-4.6363 5.9638-6.806 9.2137-1.8397 2.7557-3.7454 5.612-5.7418 7.9992-1.9222 2.3032-4.4796 3.4592-7.4908 3.4592zm-28.3213-11.8525c1.7077 0 3.3659.1592 4.9168.5947 2.6564.7455 6.7318 3.2835 10.3287 5.5199 2.1037 1.3067 4.0918 2.5463 5.5438 3.2667 6.212 3.0912 11.4259 2.6472 14.6928-1.2732 1.9799-2.3704 3.8773-5.2183 5.717-7.9657 2.178-3.2583 4.4384-6.6338 6.8473-9.2639 1.6005-1.7423 3.6299-3.2751 5.7831-4.8917 4.4218-3.3253 8.9839-6.7678 10.7906-12.6981 1.1797-3.8865-1.0889-8.217-3.0936-12.0281-1.3035-2.4877-2.5409-4.8414-2.6812-6.793-.1732-2.4123.561-5.5366 1.3447-8.8535 1.2622-5.3607 2.6894-11.4418.2723-15.3031-2.1697-3.4594-9.3057-4.9-15.6085-6.1732-3.2092-.645-6.2368-1.2564-8.2085-2.0773-1.8562-.7706-4.0094-2.5547-6.2863-4.44768-4.3229-3.58497-9.1985-7.647375-14.503-7.253699-5.9151.435559-9.6027 4.916769-13.1666 9.238779-2.6482 3.2165-5.1478 6.2486-8.423 7.505-1.1962.4523-2.6647.9549-4.2156 1.4826-7.1525 2.4291-16.9532 5.7627-18.94138 10.8889-2.14494 5.545-.49499 11.0062 1.2457 16.7857 1.20447 3.9954 2.45018 8.1248 2.54092 12.5558.05775 2.7641-.16499 5.7795-.37949 8.6943-.53623 7.371-1.09721 15.0016 2.49967 20.1362 3.20088 4.5733 9.18198 3.8111 15.50948 2.9986 2.4914-.3183 5.0324-.645 7.4743-.645z" fill="#1559f8"/><path d="m60.6528 101.702c-2.2357 0-4.7518-.628-7.5732-1.8759-1.485-.6617-3.4649-1.7255-5.5604-2.8479-3.6546-1.9684-7.8042-4.1964-10.5431-4.9251-3.4484-.9047-7.499-.5026-11.4094-.1089-6.3523.6365-12.3416 1.2396-15.59199-3.5431-3.43189-5.0508-3.0359-12.4301-2.64817-19.5666.15675-2.8813.31349-5.8632.20625-8.5687-.1815-4.3053-1.5592-8.3091-2.88741-12.1788-1.93869-5.6372-3.770127-10.956-1.75719-16.6015 1.93044-5.4025 11.64861-8.954 18.73511-11.5422 1.5262-.5612 2.9617-1.0805 4.1579-1.5663 3.3164-1.3402 5.7418-4.4896 8.2992-7.8233 3.4072-4.43096 6.9298-9.0043 12.9191-9.666015 5.4283-.594702 10.5184 3.484455 14.998 7.077795 2.2357 1.79249 4.3476 3.49282 6.1213 4.22152 2.0047.8293 5.1561 1.3821 8.5055 1.9768 6.3523 1.1224 13.5626 2.3956 15.9137 5.9805 2.5987 3.9535 1.2705 10.1518.0908 15.6214-.693 3.2416-1.353 6.2988-1.155 8.5688.165 1.8595 1.386 4.1713 2.6729 6.6171 2.079 3.9367 4.4302 8.3928 3.2009 12.4301-1.8149 5.9722-6.6575 9.6241-10.9226 12.8489-2.1367 1.6166-4.1579 3.1411-5.7253 4.8498-2.211 2.4123-4.2899 5.5701-6.3028 8.619-1.9552 2.9651-3.9764 6.0308-6.1626 8.5101-2.0459 2.3205-4.5538 3.4765-7.5897 3.4765zm-28.5936-10.6457c1.7407 0 3.4319.1508 5.0159.5612 2.7884.7371 6.9628 2.9819 10.6421 4.9586 2.0872 1.1224 4.0589 2.1778 5.5274 2.8312 6.4595 2.8647 11.2608 2.3787 14.6597-1.4826 2.1697-2.4626 4.1827-5.5115 6.1296-8.4682 2.0212-3.0657 4.1084-6.2318 6.344-8.6693 1.5922-1.7422 3.6299-3.275 5.7831-4.9084 4.4219-3.342 8.9922-6.793 10.7659-12.6227 1.1797-3.8614-1.1302-8.2337-3.1679-12.0951-1.3117-2.4877-2.5574-4.8414-2.7224-6.7846-.2063-2.3454.462-5.4361 1.1632-8.7112 1.155-5.3858 2.4667-11.4836-.033-15.278-2.2522-3.4258-9.3552-4.6822-15.625-5.7879-3.3659-.5947-6.5503-1.1559-8.588-2.0018-1.8314-.7539-3.9681-2.471-6.2285-4.2886-4.4301-3.52633-9.4295-7.546856-14.6928-6.96891-5.8078.63659-9.2644 5.13455-12.6138 9.49011-2.5987 3.3756-5.0489 6.5669-8.4808 7.9573-1.2044.4858-2.6481 1.0135-4.1743 1.5747-7.0123 2.5631-16.60674 6.0727-18.47118 11.2826-1.96343 5.4947-.15674 10.7465 1.7572 16.2999 1.3447 3.8948 2.73066 7.9321 2.91215 12.3044.1155 2.7223-.04949 5.7209-.20624 8.6107-.37949 7.061-.77547 14.3733 2.57387 19.2901 3.1019 4.565 8.9758 3.9786 15.1878 3.3504 2.1779-.2177 4.3971-.4439 6.542-.4439z" fill="#2455f0"/><path d="m60.5291 101.032c-2.4914 0-5.0076-.77-7.3505-1.6833-1.485-.578-3.4072-1.4574-5.4449-2.3872-3.7783-1.7255-8.0599-3.6687-10.9639-4.3974-3.2256-.7958-6.9627-.5277-10.5761-.2681-6.2533.4523-12.1519.8795-15.3033-3.9116-3.17611-4.833-2.93687-11.8941-2.70587-18.7122.09899-2.8646.19799-5.8297.02474-8.4933-.27224-4.2383-1.79019-8.1332-3.26689-11.8941-2.12018-5.4193-4.116617-10.5371-2.26868-16.1491 1.81494-5.5198 11.3929-9.264 18.3887-12.0029 1.4519-.5696 2.8296-1.1057 4.0011-1.6082 3.4649-1.4826 5.8325-4.7744 8.3322-8.2672 3.2009-4.4645 6.5008-9.07135 12.3911-9.92571 5.4283-.778973 10.6257 3.24993 15.2125 6.80976 2.2192 1.72548 4.3146 3.35045 6.0553 4.06245 2.0625.8459 5.3541 1.3485 8.8437 1.8762 6.3441.9633 13.5378 2.0521 15.9798 5.612 2.6729 3.8949 1.4684 10.1183.4042 15.6046-.6187 3.1913-1.2045 6.2067-.9735 8.418.1898 1.8511 1.419 4.1629 2.7224 6.6087 2.112 3.9787 4.5126 8.485 3.2834 12.5055-1.7902 5.8633-6.6327 9.5404-10.8979 12.782-2.1449 1.6249-4.1661 3.1661-5.7253 4.8665-2.0624 2.2615-3.9268 5.1261-5.8985 8.1667-2.0295 3.1242-4.1249 6.349-6.4761 8.887-2.4089 2.5879-5.0736 3.4929-7.7712 3.4929zm-28.8906-9.4563c1.815 0 3.5804.134 5.2303.5444 2.9534.7288 7.2516 2.6888 11.0464 4.4226 2.0295.9298 3.9517 1.8009 5.4201 2.3788 6.7153 2.6215 11.0959 2.1195 14.6268-1.692 2.3264-2.5128 4.4136-5.7208 6.4265-8.82 1.98-3.0489 3.8527-5.9302 5.9481-8.2169 1.5839-1.7339 3.6216-3.2835 5.7831-4.9252 4.4218-3.3588 8.9922-6.8265 10.7411-12.5473 1.1715-3.8447-1.1715-8.2589-3.2504-12.1537-1.3199-2.4877-2.5739-4.8414-2.7719-6.7763-.2392-2.2783.3547-5.3272.9817-8.5604 1.0477-5.4025 2.2357-11.5255-.33-15.2528-2.3346-3.4007-9.4212-4.4729-15.6827-5.4277-3.5144-.5361-6.8308-1.0387-8.9427-1.9014-1.7985-.7371-3.9186-2.3872-6.1626-4.12105-4.5126-3.50958-9.6357-7.47984-14.8742-6.726-5.7006.82924-8.951 5.3607-12.0942 9.74135-2.5409 3.5431-4.9333 6.8852-8.5219 8.418-1.1797.5026-2.5574 1.047-4.0176 1.6166-6.9051 2.7055-16.36752 6.3993-18.11646 11.7182-1.79844 5.4528.17324 10.4952 2.26043 15.8391 1.48495 3.7944 3.0194 7.7144 3.29164 12.0281.17325 2.6887.07425 5.6622-.02475 8.5436-.23099 6.7511-.46198 13.7368 2.63164 18.4442 3.0112 4.5733 8.786 4.1545 14.899 3.7106 1.8232-.134 3.6712-.2681 5.4779-.2681z" fill="#3452e9"/><path d="m60.5456 100.379c-2.1779 0-4.5539-.5864-7.268-1.5077-1.419-.4859-3.2092-1.1559-5.0984-1.8679-3.9681-1.4909-8.4724-3.1913-11.6156-3.92-2.9781-.6952-6.3935-.5445-9.7017-.4021-6.1708.2681-11.9951.5193-15.0557-4.3053-2.92869-4.6068-2.84619-11.3412-2.7637-17.8494.033-2.9819.07425-5.7963-.16499-8.4348-.37124-4.1712-2.02944-7.9489-3.63813-11.5925-2.29343-5.2099-4.463109-10.135-2.78016-15.7135 1.70769-5.6622 10.79888-9.4482 18.09988-12.4971 1.3695-.5696 2.6564-1.1057 3.7867-1.6166 3.6133-1.625 5.915-5.0676 8.3487-8.7112 2.9946-4.48954 6.0965-9.13827 11.8796-10.18529 5.4036-.979999 10.7329 3.0154 15.427 6.54173 2.1944 1.65009 4.2651 3.20806 5.9811 3.90326 2.1119.8627 5.5273 1.2983 9.1489 1.759 6.3441.8041 13.5378 1.7171 16.0787 5.2685 2.739 3.8363 1.6665 10.0849.7095 15.5963-.5445 3.1494-1.056 6.1146-.8002 8.2672.2227 1.8344 1.452 4.1462 2.7637 6.592 2.1531 4.0205 4.5868 8.5771 3.3658 12.5893-1.7654 5.7627-6.608 9.4566-10.8814 12.7149-2.1531 1.6417-4.1826 3.1829-5.7253 4.8832-1.9469 2.1359-3.7041 4.8833-5.5685 7.7982-2.079 3.2499-4.2239 6.6087-6.7236 9.1718-2.4749 2.5379-4.9746 3.526-7.8042 3.526zm-29.5423-8.2924c1.9552 0 3.8774.1173 5.6511.5361 3.1761.7371 7.697 2.4374 11.6816 3.9368 1.8892.7119 3.6711 1.382 5.0818 1.8594 6.0553 2.0601 10.3947 2.4121 14.602-1.9013 2.4667-2.5296 4.5951-5.8633 6.6658-9.0965 1.8727-2.9316 3.6382-5.6957 5.6181-7.8567 1.5757-1.7339 3.6216-3.2918 5.7913-4.9419 4.4219-3.3756 9.0005-6.86 10.7164-12.472 1.1715-3.8195-1.2209-8.284-3.3246-12.2207-1.3282-2.4877-2.5822-4.833-2.8132-6.7595-.264-2.2197.2558-5.2267.8002-8.4096.9323-5.4194 1.9965-11.5674-.6269-15.2361-2.4172-3.384-9.5037-4.2802-15.757-5.076-3.6547-.4606-7.1031-.9046-9.2645-1.7924-1.7654-.7204-3.8609-2.2951-6.08-3.96194-4.6199-3.4677-9.8585-7.39608-15.0723-6.45796-5.5933 1.01351-8.6375 5.5701-11.5826 9.9843-2.3677 3.5431-4.8096 7.2034-8.5467 8.8787-1.1385.5109-2.4255 1.047-3.7949 1.6165-6.8308 2.8479-16.19425 6.7512-17.83595 12.1956-1.63344 5.411.50324 10.2607 2.76366 15.3869 1.6252 3.6855 3.2999 7.4966 3.67938 11.7433.23925 2.6636.198 5.6203.165 8.485-.0825 6.4412-.165 13.0918 2.68941 17.5898 2.9204 4.5984 8.621 4.3471 14.6433 4.0875 1.3859-.0586 2.7884-.1173 4.1661-.1173z" fill="#444fe2"/><path d="m60.3971 99.7088c-2.178 0-4.4714-.578-7.0205-1.3151-1.0643-.3099-2.3017-.6868-3.6464-1.0889-4.3064-1.2983-9.6687-2.9065-13.3728-3.7106-2.7142-.5863-5.7996-.5528-8.7778-.5109-6.1048.0754-11.8796.1424-14.8495-4.7241-2.6729-4.3807-2.73889-10.7801-2.80489-16.9616-.03299-2.9735-.05774-5.7795-.35473-8.3929-.47024-4.0959-2.26868-7.7478-4.01762-11.2825-2.47492-5.0089-4.809598-9.7498-3.29165-15.3032 1.5922-5.8213 10.62569-9.8167 17.88539-13.0248 1.254-.5528 2.4337-1.0805 3.4979-1.5747 3.7619-1.7673 5.9893-5.3607 8.3487-9.1718 2.7967-4.5231 5.6924-9.19696 11.3847-10.43662 5.3953-1.17265 11.0794 2.95676 15.658 6.27369 2.1697 1.57473 4.2156 3.05723 5.8903 3.74413 2.1532.8795 5.6923 1.2396 9.4377 1.6333 6.3605.6534 13.5625 1.3988 16.1942 4.9335 2.8132 3.7693 1.8644 10.043 1.0312 15.5796-.4702 3.0991-.9075 6.0224-.627 8.1164.2475 1.826 1.4932 4.1378 2.805 6.5752 2.1861 4.0708 4.6693 8.6777 3.4483 12.6731-1.7407 5.6622-6.5833 9.3644-10.8566 12.6395-2.1614 1.6501-4.1991 3.208-5.7336 4.9-1.8479 2.027-3.5144 4.6822-5.2798 7.4882-2.1119 3.3588-4.2981 6.8265-6.9215 9.3896-2.6894 2.6301-5.2634 3.5431-8.0105 3.5431zm-30.6313-7.1281c2.2934 0 4.5869.0922 6.6823.5445 3.7206.8041 9.0912 2.4207 13.4141 3.719 1.3447.402 2.5821.7789 3.6464 1.0889 5.5933 1.6333 9.9161 2.4369 14.569-2.1108 2.5821-2.5296 4.7518-5.9722 6.8473-9.3059 1.7819-2.8227 3.4566-5.4947 5.3293-7.5552 1.5674-1.7255 3.6216-3.3002 5.7913-4.9587 4.4219-3.3839 9.0005-6.8851 10.6917-12.3966 1.1632-3.7943-1.2623-8.309-3.4072-12.2961-1.3364-2.4793-2.5987-4.8246-2.8544-6.7427-.297-2.161.1567-5.1178.627-8.2505.825-5.436 1.7572-11.6092-.9405-15.2193-2.5079-3.3672-9.6027-4.0959-15.8642-4.7409-3.7784-.3937-7.3505-.7538-9.5615-1.6585-1.7324-.7035-3.7948-2.2112-5.9893-3.8027-4.7271-3.4342-10.0894-7.32908-15.2785-6.19831-5.4943 1.19778-8.3322 5.78788-11.0794 10.21881-2.2934 3.7023-4.6611 7.5218-8.5549 9.3477-1.0643.5026-2.2522 1.0219-3.5062 1.5831-6.7895 2.9987-16.0787 7.1113-17.61315 12.7149-1.46845 5.3775.82497 10.0262 3.25864 14.9597 1.76545 3.5682 3.58039 7.2621 4.05891 11.4418.3052 2.6301.33 5.5868.3629 8.4431.066 6.1145.132 12.4468 2.7307 16.7103 2.8297 4.6403 8.4642 4.5649 14.437 4.4979.726-.0083 1.4602-.0167 2.2027-.0167z" fill="#534bda"/><path d="m60.3641 99.0471c-2.0377 0-4.2404-.4858-6.8885-1.1391-4.5951-1.1224-12.2014-2.7641-17.3327-3.8028-2.4337-.4942-5.1561-.5444-7.796-.5947-5.8078-.1089-11.8219-.2261-14.7093-5.1764-2.4254-4.1462-2.6317-10.2021-2.8379-16.057-.099-2.9735-.198-5.7795-.561-8.3593-.56923-4.0122-2.51617-7.5385-4.38886-10.9476-2.65641-4.8162-5.164329-9.3728-3.80312-14.901 1.4767-6.0057 10.49368-10.2272 17.73688-13.6112 1.1055-.5193 2.1697-1.0135 3.1432-1.4909 3.9186-1.9098 6.1625-5.8382 8.3405-9.6241 2.6069-4.54826 5.3045-9.25563 10.9061-10.68794 5.3706-1.37368 11.2114 2.72223 15.8973 6.00566 2.1366 1.49928 4.1578 2.91488 5.7913 3.58498 2.1944.8879 5.8408 1.181 9.7016 1.4909 6.3771.511 13.6039 1.0889 16.3345 4.6069 2.8792 3.719 2.0624 10.0178 1.3447 15.5711-.396 3.0489-.7672 5.9303-.462 7.9573.2805 1.8176 1.5262 4.1211 2.8462 6.5585 2.2274 4.1127 4.7601 8.7865 3.5309 12.7568-1.7077 5.5533-6.5586 9.2807-10.8319 12.5641-2.1614 1.6669-4.2074 3.2332-5.7336 4.9252-1.7572 1.9348-3.3494 4.5063-5.0323 7.2202-2.1367 3.4509-4.3394 7.0107-7.0865 9.5738-2.8544 2.6636-5.3211 3.5766-8.1013 3.5766zm-15.9798-96.16588c-.7094 0-1.4107.08376-2.0954.25965-5.3953 1.38206-8.0435 5.98891-10.6009 10.45333-2.2109 3.853-4.4961 7.8484-8.5467 9.8252-.9735.4774-2.0377.9716-3.1514 1.4909-7.1443 3.3421-16.04574 7.505-17.4647 13.2845-1.31996 5.344 1.14671 9.8084 3.75363 14.5409 1.90569 3.451 3.86917 7.0192 4.44657 11.1235.3713 2.6049.4703 5.5617.5693 8.4179.198 5.7879.4042 11.7768 2.7636 15.8225 2.7554 4.7073 8.357 4.8162 14.2968 4.9335 2.6564.0502 5.4036.1089 7.8785.6031 5.1396 1.0386 12.7541 2.6803 17.3492 3.8027 6.0965 1.4909 9.7842 2.1192 14.536-2.3202 2.6894-2.5128 4.8839-6.0475 7.004-9.4733 1.6995-2.739 3.2999-5.3272 5.0901-7.2956 1.5592-1.7171 3.6217-3.3086 5.7996-4.9838 4.2156-3.2415 9.0005-6.9186 10.6669-12.3212 1.1632-3.7692-1.3117-8.3426-3.4896-12.3715-1.3447-2.4793-2.607-4.8162-2.8957-6.7176-.3217-2.094.0578-5.0089.4537-8.0997.7095-5.4612 1.5097-11.6511-1.2457-15.2026-2.5986-3.3504-9.7099-3.92-15.9879-4.4226-3.8939-.3099-7.5816-.6031-9.842-1.5244-1.6912-.6869-3.7289-2.1192-5.8903-3.63525-3.9846-2.79762-8.819-6.18993-13.3976-6.18993z" fill="#6348d3"/><path d="m60.1991 98.377c-1.8892 0-3.8939-.4021-6.2863-.8795l-.33-.067c-2.4667-.4942-5.7996-.98-9.0252-1.4491-3.0029-.4355-6.1048-.8878-8.621-1.3569-2.1119-.3937-4.4466-.5193-6.707-.6366-5.8243-.3015-11.8549-.6114-14.668-5.6706-2.178-3.9033-2.5162-9.6074-2.8545-15.1105-.1814-2.9902-.3464-5.8046-.7837-8.3677-.6682-3.92-2.75539-7.3207-4.76832-10.6041-2.83791-4.632-5.519073-9.0043-4.31461-14.5242 1.36945-6.2234 10.40293-10.6795 17.67093-14.2561.9405-.4606 1.8479-.913 2.7059-1.3401 4.0671-2.0689 6.2286-6.1397 8.3157-10.0848 2.4255-4.58177 4.9334-9.31426 10.436-10.93084 5.3705-1.57471 11.3433 2.47932 16.1447 5.73762 2.1037 1.42392 4.0836 2.77252 5.684 3.41742 2.2357.9046 5.9811 1.114 9.9492 1.3402 6.4018.3685 13.6616.779 16.4912 4.2886 2.9534 3.6603 2.2687 9.9843 1.6665 15.5627-.3218 2.9987-.627 5.8382-.297 7.7982.3052 1.8008 1.5592 4.0959 2.8791 6.5249 2.2687 4.1713 4.8426 8.8871 3.6217 12.849-1.683 5.4528-6.5338 9.1969-10.8154 12.4971-2.1697 1.6752-4.2239 3.2583-5.7418 4.9419-1.6747 1.8511-3.1927 4.3472-4.8096 6.994-2.1532 3.5264-4.3724 7.1783-7.2185 9.7247-3.0607 2.739-5.5604 3.5933-8.324 3.5933zm-16.7305-95.1189c-.8002 0-1.5839.10051-2.3594.32667-5.3046 1.55795-7.6475 5.9889-10.1307 10.68793-2.1284 4.0121-4.3228 8.1583-8.5302 10.3026-.8497.4355-1.7654.8794-2.7059 1.3485-7.169 3.5263-16.08699 7.9238-17.3987 13.9043-1.16321 5.3105 1.46845 9.599 4.24861 14.1388 2.03769 3.3254 4.14959 6.7679 4.83439 10.7885.4454 2.5882.6187 5.5533.7919 8.4263.33 5.4528.6683 11.09 2.7884 14.8927 2.6812 4.8162 8.3075 5.101 14.2556 5.411 2.2769.1172 4.6281.2429 6.773.6449 2.4997.4691 5.6016.9214 8.5962 1.3569 3.2257.4691 6.5668.9549 9.05 1.4491l.33.067c5.9315 1.1894 9.2067 1.8427 14.173-2.5966 2.7967-2.4961 4.9994-6.1061 7.1278-9.6074 1.6252-2.6636 3.1596-5.1764 4.8673-7.0694 1.551-1.7171 3.6217-3.3085 5.8078-5.0005 4.2157-3.2583 9.0005-6.9438 10.634-12.2458 1.1632-3.7525-1.3613-8.3761-3.5804-12.4553-1.3447-2.4709-2.6152-4.7995-2.9369-6.6925-.3465-2.0354-.033-4.9.2887-7.9405.5857-5.478 1.254-11.693-1.5592-15.1859-2.6894-3.342-9.8337-3.7441-16.1365-4.1043-4.0093-.2261-7.796-.4439-10.1059-1.3736-1.6499-.6701-3.6546-2.0271-5.7748-3.46774-4.0094-2.72223-8.8437-6.00566-13.3646-6.00566z" fill="#7245cb"/><path d="m60.0424 97.7152c-1.5757 0-3.2339-.268-5.1726-.5779l-1.188-.1927c-2.2604-.3518-5.0818-.5612-8.0765-.7873-3.4236-.2597-6.9628-.5194-9.8749-1.0303-1.7407-.3015-3.6381-.4607-5.4778-.6114-5.9068-.4942-12.0199-.9968-14.7753-6.2235-1.9304-3.652-2.3924-8.9792-2.8462-14.1305-.2475-2.8813-.5114-5.8632-1.0312-8.4179-.7754-3.8279-2.99463-7.0862-5.13956-10.244-3.02765-4.4477-5.882058-8.6441-4.82609-14.1556 1.24571-6.4747 10.36995-11.1821 17.69565-14.9681.7508-.3853 1.4767-.7622 2.1697-1.1307 4.2239-2.2197 6.2781-6.4496 8.2745-10.5455 2.2439-4.6069 4.5703-9.38125 9.9822-11.18211 5.354-1.78411 11.4836 2.24479 16.4087 5.46959 2.0624 1.34852 4.0011 2.63012 5.5603 3.25832 2.2687.913 6.1048 1.047 10.1719 1.1894 6.4348.2261 13.7358.4774 16.6727 3.9786 3.0194 3.6017 2.475 9.9508 1.9965 15.5544-.2475 2.9484-.4868 5.7377-.132 7.639.3382 1.7925 1.5839 4.0792 2.9121 6.4999 2.31 4.2215 4.9334 9.0043 3.7124 12.9494-1.6582 5.344-6.509 9.1048-10.7824 12.4218-2.1779 1.6919-4.2404 3.2834-5.7501 4.9586-1.6004 1.7757-3.0606 4.2048-4.6033 6.7763-2.1614 3.6017-4.3889 7.3207-7.3423 9.8502-3.2916 2.8144-5.783 3.6269-8.5384 3.6269zm-17.4977-94.08862c-.891 0-1.7655.12564-2.6234.41042-5.2056 1.73386-7.3836 6.1983-9.6852 10.9141-2.0295 4.1712-4.1249 8.4766-8.4973 10.7716-.6929.3686-1.4272.7455-2.1696 1.1308-7.2268 3.7357-16.22726 8.3844-17.42347 14.5995-1.01472 5.2853 1.78194 9.398 4.7436 13.7536 2.17793 3.1996 4.42187 6.4998 5.22207 10.4366.528 2.5798.7837 5.5784 1.0395 8.4766.4455 5.101.9074 10.3696 2.7884 13.9294 2.6316 4.9754 8.5962 5.4696 14.371 5.947 1.848.1508 3.7619.3099 5.5273.6199 2.8874.4942 6.4101.7622 9.8255 1.0218 3.0029.2262 5.8325.4356 8.1177.7958l1.188.1926c5.354.8628 8.2992 1.3318 13.2903-2.9316 2.8874-2.471 5.0983-6.1564 7.235-9.7163 1.5592-2.5966 3.0277-5.0508 4.6611-6.86 1.5427-1.7087 3.6216-3.3169 5.8161-5.0256 4.2156-3.2667 9.0004-6.9773 10.6091-12.1621 1.155-3.7358-1.4024-8.4096-3.6711-12.539-1.3447-2.4626-2.6234-4.7828-2.9699-6.659-.3713-1.9768-.132-4.7995.1237-7.7814.4703-5.5031.9983-11.7349-1.8727-15.1691-2.7884-3.3337-9.9656-3.5766-16.2932-3.7944-4.1166-.1424-8.0022-.2764-10.3451-1.2229-1.6087-.645-3.5722-1.9349-5.6511-3.30019-4.0259-2.64684-8.8767-5.82976-13.3398-5.82976z" fill="#8242c4"/><path d="m59.9351 97.0705c-1.3117 0-2.6977-.1759-4.3146-.3769-.5775-.0754-1.188-.1508-1.8315-.2262-2.2192-.2513-4.9416-.268-7.8125-.2848-3.5969-.0167-7.3175-.0419-10.4359-.536-1.2952-.2011-2.6729-.3602-4.0176-.511-6.0966-.6784-12.3911-1.382-15.1218-6.86-1.6829-3.3839-2.2522-8.3175-2.8131-13.0835-.3383-2.9316-.693-5.9637-1.3035-8.5268-.8827-3.7274-3.24214-6.8517-5.51081-9.8671-3.2174-4.2634-6.253299-8.3007-5.34583-13.7954 1.12197-6.7679 10.38644-11.76 17.83594-15.7722l1.5262-.8208c4.3723-2.3788 6.3275-6.7595 8.2167-10.9978 2.0707-4.6404 4.2156-9.44825 9.545-11.43339 5.3375-1.99351 11.6238 2.00189 16.6809 5.20156 2.0129 1.27313 3.9104 2.48773 5.4366 3.09073 2.2934.9214 6.2285.9717 10.3864 1.0303 6.476.0838 13.8183.1759 16.8542 3.6771 3.0854 3.5431 2.6812 9.9173 2.3264 15.546-.1815 2.8982-.3547 5.6371.0248 7.4799.363 1.7757 1.6169 4.054 2.9451 6.4579 2.3595 4.2719 5.0324 9.1216 3.8032 13.0584-1.6252 5.2434-6.4761 9.0126-10.7577 12.3463-2.1944 1.7004-4.2568 3.317-5.7583 4.9838-1.5345 1.7087-2.9287 4.0792-4.4136 6.592-2.1614 3.6687-4.3971 7.4547-7.4413 9.9508-3.5391 2.8981-5.948 3.6687-8.6952 3.6687zm-18.3144-93.09189c-.99 0-1.947.15077-2.8792.50257-5.1148 1.90975-7.1195 6.39932-9.2397 11.14862-1.9304 4.322-3.9186 8.7865-8.456 11.249l-1.5262.8209c-7.3422 3.9619-16.48294 8.887-17.56366 15.3953-.87447 5.2685 2.09544 9.2053 5.23858 13.3849 2.30993 3.0657 4.69408 6.2319 5.60978 10.0681.6105 2.5882.9653 5.6371 1.3118 8.5855.5527 4.7241 1.1137 9.6074 2.7554 12.9076 2.5986 5.2183 8.7529 5.9051 14.7092 6.5668 1.3447.1508 2.7307.3016 4.0342.511 3.0854.4858 6.7812.5109 10.3616.5277 2.8874.0167 5.6181.0335 7.8703.2931.6434.0754 1.2539.1508 1.8314.2262 4.8921.6198 7.5733.9549 12.6138-3.1746 2.9699-2.4374 5.1809-6.1899 7.3258-9.8167 1.4932-2.538 2.9039-4.9336 4.4796-6.6758 1.5345-1.7087 3.6216-3.3337 5.8326-5.0508 4.2156-3.2834 8.9922-7.0024 10.5761-12.0783 1.155-3.7106-1.4602-8.4515-3.7619-12.6311-1.3447-2.4459-2.6234-4.7577-3.0029-6.6088-.3877-1.9097-.2144-4.6906-.033-7.6222.3465-5.5199.7425-11.7768-2.1944-15.1524-2.8874-3.3253-10.1059-3.4174-16.4664-3.5012-4.2157-.0502-8.192-.1089-10.5762-1.0637-1.5592-.6282-3.4814-1.8512-5.5191-3.14107-4.0506-2.57146-8.9097-5.65386-13.3398-5.65386z" fill="#923ebd"/><path d="m39.748 96.4339c-1.5345 0-3.0194-.0754-4.4136-.268-.693-.1005-1.4025-.1927-2.1284-.2848-6.1626-.8041-13.1501-1.7171-15.889-7.6139-1.4355-3.0908-2.0955-7.5971-2.7389-11.9443-.4455-3.0154-.8993-6.1397-1.6087-8.7195-.9983-3.6269-3.48142-6.6004-5.88209-9.4901-3.40714-4.0875-6.632789-7.9573-5.86556-13.452.99821-7.1029 10.48545-12.4134 18.10815-16.6768l.7425-.4188c4.5208-2.538 6.3688-7.0694 8.1507-11.4585 1.9057-4.6739 3.8691-9.51525 9.116-11.67628 5.3293-2.20291 11.7806 1.7506 16.9614 4.93352 1.9635 1.20616 3.8114 2.34526 5.2881 2.93166 2.3182.9297 6.3358.8962 10.5927.8627 6.5172-.0586 13.909-.1173 17.0604 3.3839 3.1431 3.4929 2.8874 9.8922 2.6647 15.5377-.1155 2.8479-.2228 5.545.1732 7.3207.3878 1.759 1.6417 4.0205 2.9699 6.4161 2.4007 4.3304 5.1231 9.2472 3.9021 13.1672-1.6004 5.1345-6.4512 8.9289-10.7329 12.271-2.2026 1.7171-4.2733 3.342-5.7665 5.0089-1.4685 1.6417-2.8132 3.9535-4.2321 6.4077-2.1615 3.7273-4.3971 7.5803-7.532 10.0513-5.2881 4.1545-7.8373 3.92-12.4736 3.4761-.7178-.067-1.485-.1424-2.3265-.2011-2.2274-.1675-4.9003 0-7.73.1759-2.1366.1341-4.3228.2681-6.4183.2681zm.9405-92.09512c-1.0808 0-2.1367.18428-3.1349.59471-5.0324 2.07727-6.8721 6.60031-8.819 11.38311-1.8232 4.4728-3.7041 9.0964-8.39 11.7265l-.7425.4188c-7.5237 4.1964-16.8789 9.4315-17.83587 16.2664-.73423 5.2518 2.40892 9.021 5.74181 13.0164 2.44192 2.9317 4.96636 5.9554 5.98926 9.6912.7178 2.6133 1.1798 5.7543 1.6252 8.7865.6353 4.3137 1.287 8.7781 2.6895 11.7935 2.6151 5.6204 9.4459 6.5166 15.4682 7.304.7177.0921 1.4355.1843 2.1284.2848 3.2339.4606 7.0371.2261 10.7247 0 2.8544-.1759 5.5438-.3435 7.8042-.1759.8415.0586 1.617.134 2.3347.201 4.6364.4356 6.971.6617 12.0859-3.3672 3.0606-2.4039 5.2633-6.2151 7.4-9.8922 1.4354-2.4793 2.7966-4.8162 4.2981-6.4998 1.5262-1.7004 3.6216-3.3421 5.8408-5.0759 4.2156-3.2918 8.9922-7.0276 10.5432-12.003 1.1549-3.6938-1.5097-8.4933-3.8609-12.7316-1.3447-2.4291-2.6234-4.7241-3.0277-6.5585-.4125-1.8511-.3052-4.5817-.1897-7.4631.2227-5.5366.4785-11.8186-2.5244-15.144-2.9864-3.3169-10.2544-3.2583-16.6562-3.1996-4.3064.0335-8.3735.067-10.7907-.8963-1.5179-.6114-3.3906-1.7589-5.3706-2.97348-4.0753-2.50445-8.9509-5.49471-13.3398-5.49471z" fill="#a13bb5"/><path d="m38.0238 96.8442c-.99 0-1.9552-.0502-2.8874-.1675-5.9233-.7538-14.0411-1.7925-16.8872-8.4347-1.188-2.7641-1.8727-6.6088-2.607-10.6712-.5609-3.1494-1.1467-6.4077-1.9799-9.0545-1.1055-3.518-3.72062-6.3491-6.24504-9.0881-3.44838-3.7441-7.020517-7.6222-6.39354-13.1169.85797-7.505 10.96388-13.3348 18.34738-17.5898 4.6776-2.6971 6.4018-7.3794 8.0765-11.9024 1.7407-4.7158 3.5391-9.59067 8.6952-11.93597 5.3211-2.42069 11.9374 1.5077 17.2585 4.66548 1.9057 1.13079 3.7041 2.20289 5.1396 2.77249 2.3429.9381 6.443.8125 10.7823.6868 6.5668-.1926 14.0163-.4104 17.275 3.0824 3.2091 3.4342 3.1019 9.8587 3.0029 15.5293-.0495 2.7976-.0908 5.4445.3217 7.1616.4208 1.7422 1.6747 3.987 2.9947 6.3574 2.4502 4.3975 5.2303 9.3729 4.0011 13.2929-1.5757 5.034-6.4265 8.8367-10.6999 12.1956-2.2109 1.7338-4.2981 3.3671-5.7748 5.034-1.4107 1.5747-2.6977 3.8446-4.0671 6.2402-2.0542 3.6101-4.3889 7.6976-7.6145 10.1351-5.3706 4.0624-7.7383 3.9116-12.0364 3.6268-.8167-.0503-1.7159-.1089-2.7141-.1424-2.2605-.0754-4.9169.2597-7.7301.6198-2.7554.3518-5.585.712-8.2497.712zm1.7407-92.17047c-1.1797 0-2.3182.2094-3.3989.70359-4.9499 2.25317-6.6246 6.80138-8.4065 11.61768-1.7077 4.6236-3.4731 9.3979-8.3157 12.1955-7.2763 4.1965-17.24197 9.9508-18.06695 17.171-.602226 5.2351 2.72242 8.8452 6.24505 12.6731 2.5657 2.7892 5.2221 5.6706 6.3688 9.3058.8415 2.6803 1.4272 5.9554 1.9964 9.1216.693 3.853 1.4025 7.84 2.5657 10.5454 2.5162 5.8633 9.2232 7.1784 16.45 8.1081 3.3658.4272 7.2432-.067 10.9969-.5444 2.8379-.3602 5.519-.7036 7.8207-.6283 1.0065.0336 1.9057.0922 2.7307.1425 4.2981.2764 6.4513.4188 11.6651-3.518 3.1349-2.3704 5.4366-6.4077 7.466-9.9676 1.3859-2.429 2.6894-4.7157 4.1414-6.3407 1.5179-1.7003 3.6216-3.3504 5.849-5.101 4.2156-3.3002 8.9922-7.0527 10.5102-11.9192 1.1549-3.6771-1.5592-8.552-3.9599-12.8405-1.3447-2.4123-2.6152-4.6906-3.0524-6.4999-.429-1.7925-.3877-4.4728-.3382-7.3039.099-5.5617.2062-11.8606-2.8544-15.1272-3.0937-3.3086-10.403-3.0992-16.8543-2.9065-4.3971.1256-8.5467.2512-10.9968-.7288-1.4685-.5863-3.2917-1.6668-5.2139-2.806-4.1001-2.43739-8.9922-5.33552-13.3563-5.33552z" fill="#b138ae"/><path d="m37.0091 97.2966c-.7095 0-1.4025-.0335-2.079-.1088-8.6209-.9717-13.7853-3.9033-15.7652-8.9708-.9322-2.3872-1.6334-5.6874-2.3677-9.1719-.7177-3.3672-1.4519-6.86-2.4419-9.6157-1.221-3.4007-3.9516-6.0894-6.59978-8.686-3.65463-3.585-7.424756-7.2956-6.938022-12.7987.651732-7.3207 9.173702-12.9494 17.844202-18.0923 4.8261-2.8563 6.4265-7.6893 7.9857-12.3548 1.584-4.7492 3.2174-9.66599 8.291-12.18719 5.3128-2.64684 12.1106 1.25642 17.5719 4.39745 1.848 1.06374 3.5887 2.06054 4.9664 2.61334 2.3676.9381 6.542.7371 10.9639.5193 6.6162-.3267 14.1235-.6952 17.4976 2.7976 3.2752 3.384 3.3082 9.8336 3.3494 15.5209.0165 2.7474.033 5.344.462 7.0024.4455 1.7171 1.6912 3.9452 3.0112 6.2989 2.4996 4.456 5.3375 9.5152 4.1083 13.4185-1.5427 4.9335-6.3935 8.7446-10.6669 12.1118-2.2192 1.7506-4.3146 3.4007-5.7913 5.0591-1.3529 1.5161-2.5986 3.7358-3.9104 6.0811-2.0541 3.6603-4.3723 7.8065-7.6887 10.2104-5.4778 3.9787-7.6805 3.8949-11.6816 3.7609-.8827-.0335-1.8892-.067-3.0194-.0586-2.2935.0083-4.9499.5193-7.7713 1.0637-3.1184.5947-6.3193 1.2146-9.3222 1.2146zm1.8314-92.28773c-1.2787 0-2.5079.24291-3.6546.81248-4.8674 2.42069-6.3936 7.00245-8.0023 11.86055-1.5839 4.766-3.2256 9.6995-8.2332 12.6646-8.1755 4.8414-16.93669 10.5958-17.56367 17.6485-.461986 5.235 3.04415 8.6776 6.75653 12.3296 2.68944 2.6468 5.46954 5.3774 6.74004 8.9038 1.0065 2.7976 1.7489 6.2988 2.4667 9.6911.7342 3.4593 1.4272 6.7344 2.3429 9.0797 1.8974 4.8581 6.905 7.6725 15.3032 8.619 3.4814.3936 7.4248-.3602 11.2362-1.0973 2.8461-.5444 5.5355-1.0638 7.8785-1.0721 1.1549 0 2.1532.0335 3.0441.0586 4.0011.1424 6.0058.2094 11.3269-3.652 3.2174-2.3285 5.5026-6.4244 7.5238-10.0262 1.3282-2.3788 2.5904-4.6236 3.9846-6.1815 1.5097-1.7004 3.6216-3.3588 5.8655-5.1262 4.2074-3.3169 8.984-7.0694 10.4772-11.8354 1.155-3.6687-1.6169-8.6022-4.0589-12.9578-1.3364-2.3872-2.6069-4.6404-3.0689-6.4328-.4537-1.7339-.4702-4.2467-.4867-7.1448-.033-5.3021-.0743-11.9025-3.1844-15.1189-3.1926-3.3085-10.5597-2.94-17.0687-2.6217-4.4796.2178-8.7117.4272-11.1949-.5612-1.4189-.5612-3.1761-1.5747-5.0406-2.6469-4.1248-2.37039-9.0417-5.19313-13.381-5.19313z" fill="#c134a7"/><path d="m36.2749 97.7739c-.5198 0-1.0395-.0251-1.551-.0754-2.7471-.2596-11.9126-1.7254-14.6515-9.5152-.6765-1.9181-1.3035-4.5063-1.9717-7.2537-.9157-3.7441-1.8562-7.6139-3.0689-10.5874-1.3365-3.275-4.1909-5.8214-6.94627-8.2756-3.84437-3.4174-7.820745-6.9605-7.474256-12.472.470236-7.4044 8.612716-13.3096 17.332726-18.5949 4.9663-3.0321 6.443-7.9991 7.8785-12.7986 1.4272-4.7912 2.9039-9.74981 7.9032-12.44691 5.3128-2.873 12.2839 1.00513 17.8854 4.12103 1.782.98838 3.4649 1.92648 4.7931 2.45418 2.3842.9465 6.6328.6534 11.1289.3434 6.674-.4606 14.239-.98 17.7287 2.5045 3.3329 3.3337 3.5391 10.0848 3.6959 15.5041.0825 2.6971.1567 5.2351.6022 6.8517.4702 1.7003 1.7159 3.8949 3.0276 6.2234 2.5575 4.5315 5.4531 9.6576 4.2239 13.5609-1.518 4.8246-6.3605 8.6525-10.6339 12.0364-2.2274 1.7674-4.3394 3.4259-5.8078 5.0843-1.2952 1.4575-2.4914 3.6269-3.7619 5.9303-2.0377 3.7106-4.3559 7.907-7.7547 10.2775-5.5934 3.9032-7.5155 3.8865-11.3847 3.8613-.9404 0-2.0047-.0167-3.2669.0419-2.3346.0922-4.9993.7706-7.829 1.491-3.3741.8543-6.839 1.7338-10.1059 1.7338zm1.6417-92.43852c-1.3777 0-2.6977.27641-3.9187.93812-4.7848 2.58822-6.1625 7.2118-7.6227 12.1035-1.4602 4.9083-2.9782 9.9843-8.1342 13.1337-8.57977 5.1931-16.59851 10.9894-17.044 18.1175-.329984 5.2266 3.3659 8.5184 7.27627 12.0029 2.80493 2.4961 5.70883 5.0843 7.10303 8.4933 1.2292 3.0154 2.1779 6.9103 3.1019 10.6712.6682 2.7306 1.2952 5.302 1.9552 7.195 2.6151 7.4631 11.5001 8.8703 14.1565 9.1216 3.5969.3434 7.598-.6701 11.4589-1.6501 2.8627-.7287 5.5603-1.4072 7.9527-1.5077 1.2705-.0502 2.343-.0419 3.2917-.0419 3.7289.0252 5.6098.0335 11.0546-3.7608 3.2917-2.2951 5.5686-6.4329 7.5815-10.0848 1.2787-2.3286 2.4914-4.5231 3.8361-6.0392 1.5015-1.692 3.6299-3.3756 5.8821-5.1513 4.2074-3.3253 8.9757-7.0945 10.4442-11.7516 1.1549-3.652-1.6747-8.6693-4.1744-13.0919-1.3282-2.362-2.5904-4.5901-3.0854-6.3574-.4702-1.6752-.5445-4.1378-.627-6.9941-.1567-5.3188-.3547-11.9359-3.5226-15.1021-3.2999-3.3001-10.7329-2.7892-17.2832-2.3369-4.5621.3099-8.8685.6115-11.3764-.3853-1.3612-.5444-3.0606-1.4826-4.8591-2.4877-4.1578-2.31179-9.0829-5.05077-13.4223-5.05077z" fill="#d0319f"/><path d="m35.6726 98.2597c-.3877 0-.7672-.0168-1.155-.0419-5.156-.4021-11.5908-3.719-13.5295-10.0513-.3713-1.2146-.792-2.7474-1.2292-4.3723-1.0972-4.0373-2.4502-9.063-4.0506-12.5139-1.452-3.1494-4.4137-5.5366-7.28456-7.8484-4.04237-3.2751-8.224984-6.6506-8.010491-12.1956.30524-7.8484 9.148951-14.3231 16.829451-19.0891 5.1148-3.1913 6.4595-8.3007 7.763-13.2342 1.2787-4.833 2.5987-9.83357 7.5238-12.71495 5.3045-3.10753 12.7705.913 18.2236 3.84465 1.782.9632 3.3247 1.7925 4.6034 2.295 2.4089.9549 6.7235.5696 11.2856.1675 6.7318-.5947 14.3628-1.2647 17.9762 2.2113 3.3989 3.2835 3.7619 10.0513 4.0506 15.4958.1485 2.7557.2722 5.1345.7342 6.6925.5033 1.6668 1.7325 3.8446 3.0359 6.1397 2.6152 4.5984 5.5768 9.8168 4.3394 13.72-1.4932 4.7241-6.3358 8.5604-10.6009 11.9527-2.244 1.7757-4.3641 3.4593-5.8161 5.1094-1.2457 1.4072-2.3924 3.5263-3.6134 5.7795-2.0294 3.7525-4.3311 8.0075-7.8207 10.3445-5.7171 3.8362-7.532 3.8781-11.1454 3.9619-.9817.0251-2.0954.0502-3.4566.1507-2.376.1843-5.0654 1.0303-7.9115 1.9182-3.5722 1.1224-7.2433 2.2783-10.7329 2.2783zm1.2787-92.58096c-1.4767 0-2.8709.30153-4.1331 1.03863-4.7106 2.75573-5.9398 7.41283-7.2433 12.34633-1.3364 5.0508-2.7141 10.2775-8.027 13.5944-7.54846 4.6906-16.25193 11.0397-16.54892 18.6033-.197994 5.2351 3.68763 8.3677 7.80425 11.693 2.92037 2.3537 5.93157 4.7828 7.44947 8.0662 1.617 3.5012 2.9864 8.552 4.0837 12.606.4372 1.625.8579 3.1494 1.2209 4.3556 1.8562 6.0643 8.0435 9.2388 13.0098 9.6325 3.7124.2932 7.7548-.98 11.6652-2.2029 2.8791-.9046 5.6015-1.759 8.0352-1.9433 1.3777-.1089 2.4997-.134 3.4896-.1507 3.6052-.0838 5.2551-.1173 10.8319-3.8614 3.3659-2.2532 5.6264-6.4412 7.6228-10.1351 1.2375-2.2783 2.4007-4.4309 3.6876-5.8884 1.4932-1.6919 3.6299-3.3839 5.8986-5.1848 4.2073-3.3337 8.9674-7.1196 10.4029-11.6595 1.155-3.6436-1.7407-8.7362-4.2899-13.2342-1.3199-2.3286-2.5656-4.5231-3.0854-6.2653-.4867-1.625-.6104-4.0373-.7589-6.8349-.2805-5.3356-.6353-11.9778-3.8609-15.0937-3.4154-3.2918-10.9062-2.6385-17.5142-2.0522-4.6363.4105-9.017.7958-11.5579-.2094-1.3117-.5193-2.8626-1.3569-4.6611-2.3202-3.9928-2.15261-9.0994-4.89996-13.513-4.89996z" fill="#e02e98"/><path d="m35.1447 98.7456c-.2723 0-.5445 0-.8168-.0251-5.5108-.3351-10.9556-4.9838-12.4076-10.5958-.8332-3.208-3.0276-11.1988-5.5108-15.9397-1.5757-3.0154-4.6363-5.2518-7.60624-7.4128-4.26511-3.0992-8.670466-6.3156-8.596219-11.8857.115497-8.3258 9.371699-15.1691 16.326259-19.5917 5.2633-3.3588 6.476-8.6022 7.6475-13.6698 1.1302-4.8832 2.2934-9.92562 7.1442-12.9829 5.3046-3.34206 12.9686.65334 18.5619 3.5682 1.7077.8879 3.1762 1.6585 4.3971 2.1359 2.4255.9549 6.8061.4858 11.4424-.0084 6.7978-.7287 14.4948-1.5495 18.2237 1.9265 3.4566 3.2248 3.9846 10.0262 4.4053 15.4791.2063 2.7054.3878 5.034.8663 6.5333.5197 1.6417 1.7407 3.7776 3.0359 6.0392 2.6729 4.6822 5.7005 9.9843 4.4631 13.8875-1.4685 4.6153-6.3028 8.4683-10.5679 11.869-2.2605 1.8008-4.3889 3.4928-5.8408 5.1429-1.1963 1.3569-2.3017 3.4342-3.4732 5.6371-2.0212 3.7943-4.3063 8.0997-7.8702 10.4031-5.8491 3.7776-7.5568 3.8697-10.9392 4.0456-1.0064.0503-2.1532.1089-3.6134.2764-2.4171.2765-5.1313 1.2816-7.994 2.3454-3.7371 1.3904-7.5897 2.8227-11.2856 2.8227zm.8992-92.76521c-1.584 0-3.0772.34342-4.3971 1.17265-4.6364 2.92326-5.7253 7.62226-6.8721 12.59766-1.2044 5.1932-2.4419 10.5622-7.9114 14.0551-6.8473 4.3555-15.938532 11.0648-16.054028 19.0891-.074248 5.2434 4.017618 8.2337 8.340478 11.3831 3.01945 2.2029 6.14605 4.4812 7.78775 7.6222 2.5079 4.7995 4.7271 12.8322 5.5603 16.0654 1.386 5.369 6.5998 9.8167 11.8549 10.135 3.8196.2262 7.9032-1.2899 11.8549-2.7641 2.9039-1.0805 5.6428-2.1024 8.1424-2.3788 1.4767-.1675 2.6317-.2261 3.6464-.2764 3.3824-.1759 4.9251-.2597 10.6504-3.9451 3.4319-2.2197 5.6841-6.4496 7.664-10.177 1.188-2.2364 2.31-4.3472 3.5557-5.7544 1.4849-1.6835 3.6381-3.4006 5.915-5.2183 4.1991-3.342 8.9592-7.1364 10.3617-11.5757 1.155-3.6352-1.8067-8.82-4.4136-13.385-1.3117-2.2867-2.5409-4.4561-3.0854-6.1564-.5033-1.5664-.6847-3.9368-.891-6.6758-.4125-5.3523-.924-12.0113-4.2074-15.0769-3.5226-3.2919-11.0793-2.4794-17.7534-1.7674-4.7106.5026-9.1654.98-11.7229-.0335-1.2539-.4942-2.7389-1.2648-4.4548-2.161-4.0259-2.10244-9.149-4.76603-13.5708-4.76603z" fill="#ef2a90"/><path d="m34.6497 99.2482c-.1733 0-.3465 0-.5198-.0084-4.9168-.2011-10.0894-5.3021-11.2939-11.1402-.7837-3.8279-3.3411-10.9224-5.7335-14.9765-1.6912-2.8646-4.8591-4.9502-7.91151-6.9689-4.48785-2.9567-9.1242042-6.014-9.1902021-11.6176-.0742476-6.5417 5.0983321-13.117 15.8147121-20.0943 5.4036-3.5179 6.4843-8.8954 7.5238-14.1053.9817-4.9251 2.0047-10.0262 6.773-13.25935 5.3046-3.59334 13.1748.3853 18.9249 3.29185 1.6169.8208 3.0194 1.5244 4.1826 1.9851 2.4419.9549 6.8885.402 11.5909-.1843 6.8555-.8543 14.635-1.826 18.4794 1.6417 3.5226 3.1746 4.2073 9.9927 4.7683 15.4623.2723 2.6468.5033 4.9335.99 6.3826.5445 1.6082 1.7489 3.7022 3.0276 5.9219 2.739 4.766 5.8409 10.1685 4.6034 14.0718-1.4355 4.5147-6.2698 8.3761-10.5349 11.7852-2.2687 1.8176-4.4136 3.5263-5.8573 5.168-1.1467 1.2983-2.211 3.3421-3.3329 5.4947-2.0047 3.8363-4.2734 8.1918-7.928 10.4618-5.9976 3.7273-7.4908 3.853-10.7742 4.121-1.0229.0838-2.1861.1759-3.7288.4021-2.4667.3601-5.1974 1.5328-8.093 2.7724-3.8856 1.6669-7.895 3.384-11.7889 3.384zm.4867-92.9579c-1.6994 0-3.2916.37693-4.6776 1.32342-4.5621 3.09078-5.5108 7.83168-6.509 12.85728-1.0643 5.3272-2.1615 10.8471-7.796 14.5074-10.52669 6.8433-15.60028 13.2342-15.534282 19.5498.057748 5.2686 4.355862 8.0997 8.901462 11.0983 3.11842 2.0522 6.33582 4.1797 8.10122 7.17 2.4337 4.1126 5.0159 11.2993 5.8161 15.1774 1.1467 5.5785 6.0553 10.4534 10.7081 10.6377 3.9187.1591 8.0518-1.6082 12.0446-3.3253 2.9287-1.2565 5.7006-2.4459 8.2415-2.8144 1.5592-.2262 2.7307-.3267 3.7619-.4104 3.1761-.2597 4.6281-.3853 10.5019-4.0289 3.5061-2.1778 5.7336-6.4496 7.7053-10.2189 1.1467-2.1945 2.2274-4.2634 3.4153-5.6203 1.4767-1.6836 3.6464-3.4175 5.9316-5.2435 4.1909-3.3504 8.9427-7.1531 10.3287-11.4836 1.1549-3.6352-1.8727-8.9038-4.5456-13.5609-1.287-2.2448-2.5079-4.3639-3.0772-6.0307-.5115-1.5161-.7507-3.8363-1.023-6.525-.5444-5.3691-1.2209-12.0448-4.5621-15.0602-3.6381-3.2835-11.2608-2.3286-17.9926-1.4826-4.7849.5947-9.3057 1.1643-11.8879.1508-1.1879-.4691-2.6069-1.1811-4.2403-2.0103-4.0589-2.05213-9.1985-4.64872-13.6286-4.64872z" fill="#ff2789"/></g><g opacity=".8"><path d="m76.1046 93.477c-6.9793 0-17.0852-4.389-24.9472-7.7981-4.6199-2.0103-8.6127-3.7357-10.4029-3.8698-2.013-.1507-5.2139.1676-8.918.5361-11.5909 1.1475-27.46336 2.7139-30.7715-6.8181-2.11193-6.0811 2.35942-14.3567 5.94806-20.9989 1.40245-2.5966 2.73066-5.0508 3.39884-6.9186.9735-2.7139 1.0478-6.8517 1.1303-11.2324.1485-7.9154.3135-16.8862 5.75-20.9318 4.6611-3.4677 13.9173-1.5747 20.6739-.1843 2.6646.5444 4.9663 1.0219 6.3275 1.0219 2.6894 0 7.004-2.1611 11.1784-4.2467 5.7583-2.88138 11.7146-5.86327 14.9155-4.15454 6.0141 3.20804 7.9775 8.04944 9.8749 12.74004.7095 1.759 1.452 3.585 2.3925 5.2937 1.2292 2.228 4.3971 4.1461 7.4577 6.014 4.4054 2.672 8.9592 5.4445 8.9592 9.5488 0 2.362-1.6169 4.8916-3.4896 7.8149-1.7985 2.8143-3.8361 5.9972-4.9168 9.7581-1.089 3.786-1.2705 8.0494-1.452 12.1705-.3547 8.041-.7177 16.3585-7.9362 21.0156-1.3695.8878-3.1514 1.2564-5.1891 1.2564zm-36.4804-12.539c.429 0 .825.0084 1.188.0419 1.9222.1424 5.7831 1.8176 10.6669 3.9368 9.9904 4.3388 23.6685 10.2774 29.3691 6.6003 6.8555-4.4225 7.1937-12.1537 7.5567-20.3455.1815-4.1713.3713-8.485 1.485-12.3715 1.1137-3.8781 3.1844-7.1197 5.0158-9.9759 1.7985-2.8144 3.3577-5.2351 3.3577-7.3542 0-3.6352-4.3477-6.2737-8.555-8.8284-3.2999-2.0019-6.4183-3.9033-7.7548-6.324-.9652-1.7589-1.7159-3.6017-2.4419-5.3858-1.9304-4.7576-3.7454-9.2556-9.4954-12.31285-2.8214-1.50769-8.588 1.38205-14.1648 4.17125-4.4549 2.2281-8.6622 4.3389-11.5414 4.3389-1.4437 0-3.7866-.4775-6.4925-1.0387-6.6081-1.3569-15.6498-3.2164-20.0221.0419-5.1066 3.8028-5.2716 12.5474-5.4119 20.2701-.0825 4.4561-.165 8.6609-1.1797 11.5004-.693 1.9349-1.97166 4.297-3.44837 7.0359-3.51438 6.4999-7.886741 14.5912-5.89855 20.3204 3.09364 8.9122 18.59492 7.3794 29.91352 6.2654 3.0937-.3016 5.8326-.578 7.862-.578z" fill="#00e0f7"/><path d="m75.5849 92.899c-6.9051 0-16.6728-3.9787-24.312-7.0778-4.5951-1.8679-8.5632-3.4845-10.4689-3.6352-1.914-.1508-4.9416.0837-8.4395.3601-10.9804.8544-27.57886 2.1443-30.722-7.396-2.01294-6.1062 2.46667-14.1473 6.06355-20.6136 1.45195-2.6133 2.82965-5.0759 3.50615-6.9605.9652-2.7055.9817-6.8349.99-11.2156.0165-7.7479.0412-16.526 5.3705-20.4963 4.5869-3.4091 13.6533-1.8595 20.2779-.7204 2.6646.4607 4.9663.846 6.3935.8209 2.7224-.0503 6.9215-1.9935 10.9804-3.8698 5.7006-2.63842 11.5909-5.36903 14.734-3.64355 5.6099 3.08245 7.7135 7.76465 9.743 12.28775.8002 1.7841 1.6252 3.6268 2.6564 5.3272 1.2704 2.1024 4.1414 3.8697 7.1855 5.746 4.3641 2.6887 8.8767 5.4696 8.8685 9.6073 0 2.3789-1.5922 4.8917-3.4237 7.8149-1.7407 2.7641-3.7124 5.8968-4.7601 9.5823-1.0807 3.7692-1.2457 7.9908-1.4024 12.0783-.3053 7.8568-.627 15.99-7.6558 20.6303-1.4602.9716-3.3824 1.3821-5.585 1.3821zm-36.1504-11.5674c.528 0 1.0065.0168 1.4355.0503 2.0212.1591 5.849 1.7171 10.6999 3.6855 9.9079 4.0288 23.4787 9.5571 29.1628 5.7711 6.6823-4.4142 6.9793-11.9778 7.2928-19.9854.1649-4.1378.3299-8.4096 1.4354-12.2709 1.089-3.7944 3.0937-6.9857 4.8591-9.7917s3.2916-5.2351 3.2999-7.3793c.0082-3.6771-4.3064-6.3407-8.4807-8.9122-3.1267-1.9265-6.0718-3.7441-7.4495-6.014-1.056-1.7423-1.8975-3.6101-2.706-5.411-2.0706-4.6068-4.0258-8.954-9.3964-11.91078-2.7967-1.53283-8.5055 1.10568-14.0246 3.66868-4.3228 2.0019-8.4064 3.8949-11.3021 3.9452-1.4849.0251-3.8279-.3686-6.5338-.8376-6.4843-1.114-15.361-2.6301-19.6756.5779-4.9993 3.7274-5.0241 12.2878-5.0406 19.843-.0082 4.4561-.0247 8.6609-1.0394 11.492-.7013 1.9516-2.02122 4.3304-3.55567 7.0862-3.52264 6.3239-7.903248 14.1891-6.00581 19.9602 2.94516 8.9373 19.17238 7.6809 29.90528 6.8432 2.7637-.2177 5.2303-.4104 7.1278-.4104z" fill="#09d5f8"/><path d="m75.0156 92.321c-6.839 0-16.2767-3.5766-23.685-6.3826-4.5456-1.7254-8.4724-3.208-10.4771-3.3755-1.815-.1508-4.6446.0084-7.9363.1926-11.0381.6282-27.72732 1.5664-30.71372-7.9908-1.922192-6.1396 2.57391-13.9629 6.18729-20.245 1.50146-2.6133 2.92043-5.0926 3.60513-6.9856.9652-2.6888.9075-6.8182.8415-11.1989-.1073-7.5803-.231-16.1742 4.9993-20.0691 4.5209-3.3672 13.4306-2.1443 19.9396-1.2564 2.6482.3602 4.9416.6785 6.4018.6198 2.7554-.0921 6.8143-1.8176 10.7329-3.4844 5.6593-2.40396 11.5084-4.89166 14.6103-3.13268 5.2056 2.94838 7.4247 7.44638 9.5862 11.79358.8992 1.8176 1.8314 3.6938 2.9616 5.3942 1.32 1.9851 4.0259 3.6771 6.8968 5.4695 4.3311 2.7055 8.8107 5.5031 8.7942 9.6744-.0165 2.3872-1.5674 4.9-3.3576 7.8149-1.6747 2.7223-3.5804 5.7963-4.6116 9.4148-1.0725 3.7524-1.221 7.9321-1.3612 11.9778-.2723 7.6725-.5445 15.6046-7.367 20.2617-1.5592 1.0638-3.6382 1.4993-6.0306 1.4993zm-35.8863-10.6041c.6682 0 1.2622.0168 1.7819.0586 2.112.1759 6.0883 1.6752 10.6834 3.4258 9.8502 3.7358 23.3303 8.8452 29.0143 4.9671 6.4926-4.431 6.7566-11.8187 7.0288-19.6336.1402-4.0959.2887-8.3258 1.3942-12.1705 1.0642-3.7189 2.9947-6.8516 4.7024-9.6073 1.7324-2.806 3.2338-5.2351 3.2421-7.4045.0165-3.7273-4.2734-6.4077-8.423-9.0043-2.9451-1.8344-5.7253-3.5766-7.136-5.6957-1.155-1.7423-2.0954-3.6436-3.0112-5.478-2.1036-4.2467-4.2733-8.6274-9.2726-11.46686-2.772-1.57471-8.4478.83756-13.9338 3.16616-4.1744 1.7757-8.1095 3.4509-11.0052 3.5431-1.5344.0586-3.8526-.2597-6.5338-.6282-6.377-.8711-15.1135-2.0689-19.3786 1.1056-4.9003 3.652-4.7848 12.0281-4.6776 19.4242.066 4.4477.1238 8.6441-.891 11.4752-.7012 1.96-2.0706 4.3472-3.66285 7.1113-3.53088 6.1481-7.92799 13.8038-6.11305 19.6168 2.80491 8.9708 19.1311 8.0495 29.93 7.4464 2.3842-.134 4.5374-.2597 6.2533-.2597z" fill="#12cbf8"/><path d="m74.3804 91.7683c-6.7648 0-15.8725-3.1997-23.058-5.7292-4.4631-1.5664-8.324-2.9233-10.4194-3.1076-1.7077-.1507-4.3394-.0586-7.3835.0503-11.1124.3937-27.9089.98-30.74681-8.6023-1.823187-6.1731 2.68117-13.7786 6.3028-19.8932 1.55091-2.6133 3.01111-5.0926 3.69591-6.9856.9569-2.6804.8332-6.8014.6929-11.1654-.2309-7.4212-.4949-15.8308 4.6282-19.6419 4.4713-3.3253 13.2655-2.4374 19.6921-1.7841 2.5904.2596 4.8261.4942 6.3275.4104 2.7472-.1424 6.641-1.6417 10.4029-3.0908 5.6511-2.1777 11.4837-4.43091 14.5608-2.63005 4.7848 2.80595 7.1195 7.11125 9.3799 11.27425 1.056 1.9516 2.0625 3.7943 3.2999 5.4947 1.353 1.8511 3.9022 3.4677 6.5916 5.1764 4.3063 2.7306 8.7612 5.545 8.7282 9.7581-.0248 2.404-1.5427 4.9084-3.2999 7.8149-1.6169 2.672-3.4484 5.7042-4.4631 9.2389-1.0642 3.7273-1.1962 7.8735-1.32 11.8773-.2309 7.4882-.462 15.2277-7.0865 19.8848-1.6664 1.1727-3.9269 1.6501-6.5338 1.6501zm-35.7461-9.666c.891 0 1.6747.0251 2.3264.0754 2.1862.1926 6.0883 1.5579 10.6009 3.141 9.809 3.451 23.2395 8.1667 28.9236 4.1713 6.3193-4.4393 6.5338-11.6511 6.7648-19.2818.1237-4.054.2475-8.242 1.3447-12.0699 1.0394-3.6352 2.9039-6.7093 4.5373-9.4231 1.6995-2.806 3.1679-5.2351 3.1844-7.4296.033-3.786-4.2486-6.4915-8.3817-9.1048-2.7554-1.7422-5.3623-3.3923-6.7978-5.3691-1.2705-1.7422-2.3264-3.6938-3.3494-5.5868-2.2027-4.0708-4.4878-8.2756-9.0994-10.9811-2.7637-1.62495-8.4395.5696-13.9256 2.6804-3.9929 1.5412-7.763 2.9902-10.6256 3.141-1.551.0838-3.8197-.1508-6.4348-.4188-6.3028-.6366-14.9321-1.5161-19.1724 1.6417-4.8014 3.5766-4.5456 11.7768-4.3229 19.0053.1403 4.4394.2723 8.6358-.7425 11.4502-.7094 1.9683-2.1201 4.3555-3.75358 7.1196-3.54738 5.9889-7.96099 13.4353-6.22855 19.2902 2.66467 9.021 19.12293 8.4431 30.00433 8.0578 1.9139-.067 3.6711-.1257 5.1478-.1257z" fill="#1bc1f9"/><path d="m73.6709 91.2407c-6.6905 0-15.4682-2.8395-22.4393-5.101-4.3558-1.4072-8.1177-2.6301-10.2874-2.8228-1.5839-.1424-4.0011-.1089-6.7895-.0754-11.2114.1508-28.13984.3853-30.82101-9.2304-1.73244-6.2067 2.79666-13.6112 6.43479-19.5582 1.59222-2.6133 3.10192-5.0759 3.78662-6.9773.957-2.6719.7507-6.7762.5362-11.1318-.3547-7.2621-.7589-15.4874 4.2569-19.2231 4.4301-3.3002 12.7788-2.7558 19.4776-2.3118 2.5162.1675 4.6859.3099 6.2121.2094 2.7306-.1843 6.4265-1.4575 9.9986-2.6971 5.6676-1.96 11.5249-3.97866 14.5856-2.1275 4.3723 2.6468 6.7895 6.7427 9.1242 10.6962 1.1962 2.027 2.3264 3.9368 3.6876 5.6455 1.3777 1.7255 3.7536 3.2499 6.2698 4.8581 4.2981 2.7558 8.7365 5.5953 8.6952 9.8587-.033 2.4123-1.5097 4.9168-3.2339 7.8233-1.5509 2.6217-3.3164 5.5952-4.3063 9.0629-1.0643 3.7106-1.1633 7.8149-1.2705 11.7768-.198 7.639-.3795 14.8592-6.806 19.5079-1.7902 1.2983-4.2651 1.8176-7.1195 1.8176zm-36.0513-8.7614c1.3364 0 2.4914.0251 3.3989.1089 2.2521.201 6.047 1.4323 10.4441 2.8563 9.7925 3.1745 23.2065 7.5133 28.9153 3.3839 6.1378-4.4393 6.3193-11.4753 6.5091-18.9384.099-4.0121.2062-8.1666 1.2952-11.9694 1.0147-3.5598 2.8049-6.5752 4.3806-9.2388 1.6664-2.806 3.1019-5.2351 3.1266-7.4547.0413-3.853-4.2321-6.5836-8.3569-9.2305-2.5657-1.6417-4.9911-3.1996-6.4431-5.0173-1.4024-1.7506-2.5409-3.6854-3.7453-5.7292-2.2935-3.8781-4.6612-7.8903-8.8768-10.445-2.7719-1.68358-8.4724.2932-13.9833 2.1945-3.7866 1.3067-7.367 2.5464-10.1884 2.7307-1.5674.1005-3.7619-.0419-6.3028-.2095-6.2368-.4104-14.7835-.9716-19.0074 2.1695-4.7023 3.5012-4.3146 11.5255-3.9681 18.6033.2145 4.4309.4208 8.6106-.5857 11.4166-.7095 1.9767-2.1614 4.3555-3.8526 7.1196-3.56392 5.8298-7.99403 13.0751-6.35233 18.9719 2.53267 9.0797 19.79933 8.8368 30.11973 8.7027 1.2375-.0167 2.409-.0335 3.4649-.0335z" fill="#25b6f9"/><path d="m72.879 90.7298c-6.6163 0-15.0558-2.5044-21.8123-4.5063-4.2074-1.248-7.8455-2.3286-10.073-2.538-1.4519-.134-3.6298-.1507-6.146-.1759-10.6257-.0753-28.41209-.2094-30.953-9.8837-1.6417-6.2486 2.91215-13.452 6.5585-19.2399 1.6417-2.5966 3.1927-5.0508 3.8692-6.9606.9487-2.6552.6764-6.7511.3794-11.0899-.4784-7.1029-1.0229-15.1523 3.9022-18.8127 4.4136-3.2918 12.6963-3.0405 19.3538-2.8479 2.409.067 4.4879.1341 6.0141.0084 2.6729-.2178 6.1378-1.2732 9.4954-2.295 5.7336-1.7506 11.6569-3.5515 14.7176-1.6334 3.9516 2.4793 6.4182 6.3407 8.8024 10.0848 1.353 2.1192 2.6317 4.1211 4.1414 5.8465 1.3859 1.5831 3.5886 3.0071 5.915 4.5148 4.2982 2.7808 8.7448 5.6622 8.687 9.9926-.033 2.4291-1.4849 4.9336-3.1679 7.8233-1.4932 2.5798-3.1844 5.4947-4.1578 8.887-1.056 3.6855-1.1385 7.7479-1.221 11.6763-.1485 7.4547-.297 14.499-6.5338 19.1394-1.9304 1.4407-4.6528 2.0019-7.7877 2.0019zm-39.9122-75.435c-5.2056 0-10.7659.4523-13.9338 2.806-4.6116 3.4342-4.0837 11.2742-3.6134 18.2012.297 4.4142.5775 8.5855-.4208 11.3831-.7094 1.9768-2.2026 4.3472-3.9433 7.0946-3.58042 5.6706-8.03528 12.7316-6.47608 18.6786 2.40068 9.1551 19.85708 9.2891 30.28478 9.3645 2.5327.0168 4.7188.0335 6.2038.1759 2.2934.2178 5.9563 1.2983 10.2049 2.5631 9.8089 2.9065 23.2395 6.8851 28.9896 2.6133 5.9645-4.4393 6.0965-11.3077 6.245-18.5865.0825-3.9787.165-8.0829 1.2457-11.8606.9982-3.476 2.7142-6.4328 4.2239-9.0461 1.6334-2.8144 3.0359-5.2351 3.0689-7.4799.0495-3.9367-4.2239-6.7009-8.3652-9.3812-2.3677-1.5328-4.6116-2.9819-6.0636-4.6404-1.5509-1.7673-2.8379-3.786-4.2074-5.9302-2.3429-3.6771-4.7766-7.4715-8.5879-9.8671-2.7884-1.75057-8.5633 0-14.1483 1.7088-3.5474 1.0805-6.8968 2.1024-9.6357 2.3201-1.5592.1257-3.6546.067-6.0883 0-1.551-.0419-3.2504-.0921-4.9828-.0921z" fill="#2eabfa"/><path d="m71.9798 90.2438c-6.5256 0-14.6433-2.1861-21.1854-3.9451-4.0258-1.0805-7.499-2.0187-9.7512-2.2364-1.3117-.1257-3.2256-.1843-5.4365-.2429-10.7494-.3016-28.7421-.8125-31.13452-10.5707-1.5427-6.2904 3.02765-13.3012 6.69882-18.9299 1.6829-2.5799 3.2751-5.0173 3.9516-6.9187.9487-2.6384.594-6.726.2227-11.048-.6022-6.9438-1.2787-14.8257 3.5392-18.4107 4.4218-3.2918 12.6963-3.3504 19.3373-3.4007 2.2522-.0167 4.1992-.0335 5.7006-.1759 2.5574-.2429 5.6016-1.047 8.819-1.893 5.8655-1.5495 11.9208-3.14938 15.0062-1.1391 3.5227 2.295 6.0141 5.9135 8.4148 9.4147 1.5344 2.2364 2.9864 4.3472 4.6693 6.0894 1.3777 1.4323 3.3907 2.7474 5.5273 4.1378 4.3229 2.8228 8.786 5.7376 8.7118 10.1518-.0413 2.4459-1.4602 4.9419-3.1019 7.8401-1.4355 2.5295-3.0607 5.3942-4.0094 8.7111-1.0477 3.6687-1.1137 7.6892-1.1715 11.5841-.1072 7.2705-.2062 14.1305-6.2533 18.7625-2.0954 1.6082-5.1066 2.2196-8.5549 2.2196zm-8.2168-79.1792c-3.0359 0-6.9875 1.0471-10.8566 2.0606-3.2504.8543-6.3193 1.6668-8.9262 1.9181-1.5262.1424-3.4814.1591-5.7584.1759-6.2038.0419-14.701.1089-18.9496 3.2667-4.5209 3.3671-3.8526 11.0313-3.2669 17.8075.3795 4.3975.7425 8.552-.2557 11.3329-.7095 1.9767-2.244 4.3304-4.0259 7.061-3.59689 5.5199-8.07649 12.3883-6.60804 18.3939 2.26868 9.2472 19.94784 9.7498 30.50754 10.0513 2.2274.067 4.1496.1173 5.486.2513 2.31.2262 5.8079 1.1643 9.8585 2.2615 9.8584 2.6553 23.3632 6.2821 29.1628 1.8428 5.7831-4.431 5.882-11.1318 5.9893-18.2348.0577-3.9367.1155-8.0075 1.1962-11.76.9735-3.3923 2.6152-6.2988 4.0671-8.8619 1.5922-2.8144 2.9699-5.2434 3.0112-7.505.066-4.0372-4.2404-6.8432-8.4065-9.5655-2.1614-1.4155-4.2074-2.7473-5.6428-4.2383-1.716-1.7841-3.1844-3.92-4.7354-6.1815-2.3676-3.4426-4.8178-7.0108-8.2332-9.2305-.924-.603-2.1697-.8376-3.6216-.8376z" fill="#37a1fa"/><path d="m70.9567 89.8001c-6.4348 0-14.2225-1.8846-20.5501-3.4174-3.7948-.9214-7.07-1.7087-9.3139-1.9433-1.155-.1172-2.7802-.201-4.6611-.2848-10.1802-.5025-29.13806-1.4239-31.39848-11.2826-1.45196-6.3323 3.14315-13.1588 6.83898-18.6368 1.7985-2.6719 3.3494-4.9754 4.0259-6.8684.9405-2.6217.5115-6.6925.0495-10.9894-.7177-6.793-1.5344-14.499 3.1844-18.017 4.4714-3.3253 13.1501-3.7106 19.4941-3.987 2.0377-.0921 3.7949-.1675 5.2221-.3183 2.3594-.2513 5.0488-.8543 7.9033-1.4993 6.0965-1.3653 12.3993-2.77249 15.5424-.645 3.102 2.1024 5.5686 5.4529 7.9528 8.6944 1.7489 2.3788 3.3989 4.6236 5.2716 6.3994 1.3447 1.2731 3.1596 2.4625 5.0736 3.7189 4.3723 2.8647 8.8849 5.8298 8.8024 10.3529-.0495 2.4626-1.4354 4.9586-3.0359 7.8484-1.3694 2.4793-2.9286 5.2853-3.8609 8.5268-1.0477 3.6436-1.0807 7.6307-1.1137 11.4753-.066 7.0862-.1237 13.7787-5.981 18.3939-2.277 1.8009-5.6263 2.4626-9.4542 2.4626zm-8.2744-78.3332c-3.0772 0-6.9711.8711-10.7907 1.7255-2.8709.6449-5.5768 1.248-7.9692 1.5077-1.4437.1591-3.2092.2345-5.2551.3266-6.2533.2765-14.8248.6534-19.1394 3.8614-4.4301 3.2918-3.6629 10.4701-2.9287 17.4139.462 4.3807.9075 8.5185-.0907 11.2826-.7095 1.9768-2.2769 4.3137-4.1001 7.0192-3.62165 5.3774-8.12601 12.0615-6.74005 18.1175 2.14493 9.3728 20.78105 10.2858 30.79625 10.7716 1.8892.0922 3.5226.1759 4.6941.2932 2.2934.2345 5.5851 1.0302 9.4047 1.9516 9.9492 2.4123 23.5695 5.7041 29.4515 1.0721 5.6099-4.4225 5.6676-10.9643 5.7336-17.8829.033-3.8949.0743-7.9238 1.1385-11.6595.9487-3.317 2.5244-6.1565 3.9186-8.6609 1.5592-2.8144 2.9039-5.2434 2.9534-7.5385.0825-4.1545-4.2816-7.0192-8.5055-9.7916-1.9387-1.2732-3.7784-2.4794-5.1643-3.7944-1.914-1.8092-3.6629-4.1881-5.3541-6.4831-2.3512-3.1997-4.7766-6.4998-7.7877-8.5436-1.056-.712-2.5245-.9884-4.2651-.9884z" fill="#4097fb"/><path d="m69.7771 89.3896c-6.3358 0-13.8018-1.6083-19.9149-2.9317-3.5061-.7538-6.5255-1.4072-8.7282-1.6417-.9735-.1005-2.2852-.1926-3.8031-.2931-10.3535-.712-29.61659-2.0354-31.73677-12.0281-1.35296-6.3826 3.26689-13.0248 6.97927-18.352 1.8397-2.6385 3.4236-4.9252 4.1001-6.8098.9322-2.605.4208-6.6506-.1155-10.9308-.8415-6.6422-1.7902-14.1723 2.8379-17.6233 4.5704-3.4091 13.4388-4.1126 19.9066-4.632 1.65-.134 3.2092-.2596 4.4796-.4104 2.013-.2429 4.2239-.6533 6.5586-1.0889 6.5008-1.2145 13.2243-2.4626 16.5077-.1508 2.6894 1.893 5.0818 4.9587 7.3918 7.9155 1.9057 2.4374 3.8773 4.9586 5.9645 6.7595 1.2787 1.0972 2.8627 2.1359 4.5539 3.2415 4.4548 2.9233 9.0664 5.947 8.9674 10.6125-.0577 2.4793-1.4107 4.9754-2.9699 7.8652-1.3117 2.429-2.8049 5.1764-3.7041 8.3425-1.0395 3.6269-1.0477 7.5637-1.0642 11.3748-.0165 6.9019-.0413 13.4185-5.7088 18.0253-2.4915 2.027-6.2451 2.7474-10.5019 2.7474zm-8.4065-77.571c-3.1762 0-7.0783.7287-10.9062 1.4407-2.3429.4355-4.5621.8543-6.5998 1.0972-1.2787.1508-2.8461.2764-4.5043.4105-6.3936.5109-15.1548 1.2145-19.5849 4.5147-4.3311 3.2248-3.4484 10.2439-2.5904 17.0369.5527 4.364 1.0725 8.4766.0908 11.2324-.7013 1.9684-2.3182 4.2802-4.1827 6.9605-3.6381 5.2351-8.17545 11.7433-6.88024 17.8578 2.02118 9.5237 21.71334 10.8806 31.17574 11.5339 1.5262.1005 2.8379.1927 3.8196.3016 2.2275.2345 5.2716.8878 8.786 1.6501 10.0894 2.1777 23.916 5.1596 29.897.3015 5.4449-4.4142 5.4614-10.7884 5.4779-17.5395.0082-3.853.0247-7.8401 1.0889-11.5507.924-3.2331 2.4337-6.014 3.7619-8.4682 1.5262-2.8144 2.8379-5.2518 2.8957-7.572.099-4.3137-4.3642-7.2369-8.6788-10.068-1.6994-1.1141-3.3081-2.1695-4.6116-3.2919-2.1366-1.8343-4.1248-4.3807-6.047-6.8432-2.2852-2.9233-4.6446-5.947-7.2598-7.7898-1.2292-.8627-3.0194-1.1894-5.1313-1.1894z" fill="#498cfb"/><path d="m68.4241 89.0209c-6.2368 0-13.3811-1.3569-19.2879-2.4877-3.1432-.5947-5.8573-1.114-7.9445-1.3402-.759-.0837-1.716-.1675-2.8297-.2596-9.8007-.8544-30.194-2.6385-32.19043-12.8154-1.26221-6.4329 3.39064-12.8908 7.12773-18.084 1.8727-2.605 3.4979-4.8581 4.1662-6.7344.9239-2.5882.3382-6.6087-.297-10.8721-.957-6.4915-2.0377-13.8541 2.4914-17.2297 4.7848-3.5598 14.0163-4.6152 20.7563-5.3858 1.2045-.134 2.3264-.268 3.3082-.3937 1.4024-.1842 2.8626-.4104 4.4136-.6533 6.905-1.0805 14.734-2.2951 18.2731.3099 2.2852 1.6836 4.4466 4.3053 6.74 7.0862 2.1697 2.6301 4.4137 5.3523 6.7566 7.1783 1.1549.8962 2.4914 1.7673 3.9104 2.6971 4.3888 2.8562 9.3634 6.0978 9.2397 10.9475-.066 2.4961-1.386 4.9922-2.9122 7.8819-1.254 2.3789-2.6729 5.0676-3.5556 8.15-1.0313 3.6017-1.0148 7.505-1.0065 11.2742.0247 6.7176.0495 13.0667-5.4448 17.6568-2.7389 2.295-6.9711 3.0824-11.7229 3.0824zm-8.7365-76.9092c-3.4732 0-7.6063.6449-11.4589 1.248-1.5509.2429-3.0194.4691-4.4218.6533-.99.134-2.112.2597-3.3247.3937-6.674.7622-15.8147 1.8092-20.4676 5.2686-4.2486 3.1578-3.2339 10.0261-2.2604 16.66.6352 4.3388 1.2457 8.4347.264 11.1653-.7012 1.96-2.3429 4.2383-4.2486 6.8852-3.6712 5.0927-8.23326 11.4334-7.02055 17.6065 1.90569 9.733 22.75275 11.5507 31.65425 12.3296 1.1219.1006 2.0872.1843 2.8461.2681 2.112.2261 4.8344.7454 7.9858 1.3485 10.3039 1.96 24.4027 4.6487 30.5322-.469 5.2716-4.4059 5.2469-10.6209 5.2221-17.1962-.0165-3.8111-.0247-7.7562 1.0312-11.4417.8993-3.1494 2.3347-5.8716 3.6052-8.2672 1.4849-2.8227 2.7719-5.2602 2.8379-7.6139.1155-4.5147-4.5044-7.5217-8.9675-10.4198-1.4272-.9298-2.7801-1.8093-3.9516-2.7222-2.3924-1.8679-4.6611-4.6153-6.8555-7.2705-2.2687-2.7474-4.4054-5.3439-6.6328-6.9857-1.452-1.0637-3.7207-1.4406-6.3771-1.4406z" fill="#5282fc"/><path d="m66.8566 88.7195c-6.1378 0-12.9933-1.1476-18.7186-2.1024-2.6812-.4524-5.0076-.8377-6.905-1.0471-.4868-.0586-1.0643-.1172-1.7077-.1842-9.2562-.9549-30.92003-3.1997-32.79272-13.6447-1.16321-6.4831 3.51442-12.7735 7.27622-17.8243 1.914-2.5715 3.5639-4.7911 4.2322-6.6506.9239-2.5715.2475-6.5669-.4703-10.8052-1.1219-6.659-2.2852-13.5441 2.1532-16.8527 5.2138-3.8865 15.6085-5.3607 22.4888-6.3323l1.5262-.2178c7.9775-1.1475 17.9101-2.5798 22.0268.5864 1.8974 1.4574 3.8856 3.7608 5.981 6.1899 2.4749 2.8562 5.0241 5.813 7.6558 7.6557.9569.6785 1.9964 1.3402 3.0936 2.0354 4.6116 2.94 9.8337 6.2737 9.6934 11.3831-.0742 2.5212-1.3611 5.0173-2.8461 7.8987-1.1962 2.3202-2.5492 4.9502-3.4071 7.9656-1.023 3.585-.99 7.438-.9488 11.1654.066 6.5417.132 12.7233-5.1725 17.2966-3.0277 2.6133-7.829 3.4761-13.1666 3.4761zm-9.3222-76.4319c-4.2156 0-9.1572.712-13.513 1.3402l-1.5262.2178c-6.8226.9716-17.1347 2.429-22.2331 6.2318-4.1578 3.0991-3.0276 9.8-1.9304 16.2915.726 4.3137 1.419 8.3845.4455 11.0983-.693 1.9433-2.3759 4.1964-4.3146 6.8014-3.6959 4.9586-8.291 11.1318-7.16904 17.372 1.79844 10.0262 23.95724 12.3129 32.29774 13.1756.6517.067 1.2209.1256 1.7077.1843 1.9139.2177 4.2403.603 6.9297 1.0554 10.5927 1.7673 25.104 4.188 31.4233-1.2481 5.1066-4.3974 5.0406-10.445 4.9746-16.8527-.0413-3.7692-.0825-7.6725.9652-11.3328.8744-3.0657 2.2439-5.7209 3.4484-8.0662 1.4519-2.8227 2.7059-5.2686 2.7801-7.6557.132-4.7744-4.9498-8.016-9.4294-10.8722-1.1055-.7036-2.145-1.3737-3.1184-2.0522-2.6812-1.893-5.2634-4.8665-7.7548-7.7562-2.0872-2.4123-4.0506-4.6823-5.8985-6.1062-1.7572-1.3485-4.6859-1.8176-8.0848-1.8176z" fill="#5b77fc"/><path d="m64.9262 88.4515c-6.1708 0-12.8366-.9717-18.1412-1.7506-2.0129-.2932-3.9186-.5696-5.5026-.7539l-.3547-.0419c-7.8785-.9046-31.85222-3.6519-33.62591-14.5409-1.06422-6.5417 3.64641-12.6562 7.43301-17.573 1.9469-2.5296 3.6299-4.7074 4.2899-6.5585.9157-2.5463.1485-6.5249-.6518-10.7297-1.2457-6.5083-2.5326-13.2343 1.815-16.4674 4.0753-3.0322 11.9538-5.478 23.4127-7.2454 7.7053-1.1977 17.7699-1.9181 21.9195 1.4491 1.518 1.2313 3.2669 3.1745 5.1231 5.2351 2.6729 2.9651 5.7006 6.3323 8.654 8.2002.6435.4104 1.3117.8208 1.9964 1.2396 4.9664 3.0489 10.6009 6.4999 10.4277 11.9611-.0825 2.5463-1.3365 5.0424-2.7802 7.9321-1.1302 2.2699-2.4171 4.8414-3.2586 7.7647-1.023 3.5598-.9487 7.3709-.891 11.0564.1155 6.3658.2228 12.3799-4.9086 16.9281-3.3494 2.9735-8.9179 3.9032-14.965 3.9032zm-10.0482-76.1052c-3.9764 0-8.159.5026-11.1949.9716-11.3764 1.759-19.1724 4.1713-23.1735 7.1532-4.0671 3.0322-2.8131 9.5823-1.6004 15.923.8167 4.2801 1.5922 8.3258.6269 11.0229-.6929 1.9349-2.4006 4.1462-4.3723 6.7092-3.7206 4.833-8.34875 10.8387-7.32578 17.1459 1.13021 6.9522 12.28388 11.6846 33.14738 14.0802l.363.0419c1.5922.1843 3.4979.4607 5.5191.7538 10.3864 1.5161 26.0857 3.8112 32.6689-2.027 4.9416-4.3807 4.8344-10.2691 4.7271-16.5092-.066-3.7274-.132-7.5804.9075-11.224.8497-2.9735 2.1532-5.5701 3.2917-7.8568 1.4189-2.8311 2.6399-5.2769 2.7224-7.6976.1567-5.1429-5.3294-8.5017-10.1637-11.4753-.6847-.4188-1.3612-.8292-2.0047-1.2396-3.0111-1.9098-6.0718-5.3021-8.7612-8.3007-1.8397-2.0438-3.5721-3.9703-5.0653-5.1764-2.1532-1.7506-6.1213-2.3035-10.304-2.3035z" fill="#646dfd"/><path d="m62.8473 88.3007c-6.1708 0-12.6964-.846-17.9514-1.5329-1.2788-.1675-2.475-.3183-3.5557-.4523-7.4577-.8795-31.89345-4.5984-33.4609-15.3366-.96522-6.6004 3.7784-12.5474 7.5898-17.3301 1.9799-2.4794 3.6876-4.6236 4.3476-6.4664.9074-2.5296.0577-6.4747-.8415-10.6544-1.3695-6.3574-2.7802-12.9326 1.4767-16.0988 5.2716-3.9284 15.7322-6.7511 23.091-7.9824 7.8537-1.2816 17.5554-1.0554 21.5318 2.3453 1.1632.9967 2.5492 2.4793 4.1496 4.2048 2.8709 3.0824 6.4431 6.927 9.7677 8.82l.3877.2262c5.5686 3.1661 11.8714 6.7595 11.6652 12.7484-.0908 2.5714-1.3035 5.0675-2.7142 7.9656-1.0725 2.2113-2.2934 4.7158-3.1102 7.5636-1.0147 3.5348-.9157 7.304-.8249 10.9476.1567 6.1899.3052 12.0448-4.6446 16.5679-3.7454 3.4174-10.1142 4.4477-16.9202 4.4477zm-10.5102-76.0466c-2.9039 0-5.9233.2681-8.7117.7204-7.8785 1.315-18.0092 4.2718-22.8683 7.8902-3.9846 2.9652-2.6069 9.3729-1.2787 15.5628.9157 4.2551 1.7737 8.2672.8167 10.9392-.6847 1.9181-2.4254 4.0959-4.4301 6.6087-3.7536 4.699-8.41469 10.5539-7.48247 16.9197 1.51795 10.3696 25.64847 14.0216 33.01547 14.8927 1.0807.1257 2.2769.2848 3.5638.4523 10.9474 1.424 27.4964 3.5683 34.4592-2.7892 4.7766-4.3639 4.6281-10.1016 4.4796-16.1659-.0908-3.6854-.1898-7.4882.8415-11.1067.8249-2.8897 2.0541-5.4193 3.1349-7.6473 1.3777-2.8395 2.5739-5.2937 2.6564-7.7479.198-5.6706-5.9646-9.1802-11.4012-12.2794l-.3959-.2261c-3.3907-1.9349-6.8391-5.6455-9.8832-8.9122-1.5922-1.7087-2.9699-3.1913-4.1084-4.1629-2.4667-2.1108-7.2515-2.9484-12.4076-2.9484z" fill="#6e62fd"/><path d="m60.4054 88.2252c-6.4926 0-13.1913-.8208-18.3062-1.4407l-.7177-.0837c-.3135-.0419-31.3737-3.9535-32.94944-16.0821-.86622-6.659 3.91864-12.4469 7.75474-17.0956 2.0129-2.4375 3.7454-4.5399 4.3971-6.3491.8992-2.5045-.0412-6.4245-1.0312-10.5706-1.485-6.2067-3.0194-12.6312 1.1467-15.7303 5.3706-3.9954 15.7405-7.4799 22.7693-8.7195 8.555-1.491 17.4482-.1257 21.1523 3.2415.825.7455 1.8644 1.8428 3.0689 3.1075 3.0524 3.2081 7.2268 7.5972 10.9886 9.5069 6.2038 3.1578 11.9127 6.8851 11.6899 12.7484-.099 2.5966-1.2787 5.1011-2.6482 7.9992-1.0147 2.1526-2.1614 4.5985-2.9534 7.3542-1.0064 3.5179-.8827 7.2369-.7589 10.8386.2062 6.0225.396 11.7098-4.3889 16.2078-4.1744 3.9367-11.5661 5.0759-19.2301 5.0759zm-10.0812-76.1721c-2.2192 0-4.5043.1842-6.7483.5779-7.07 1.248-17.4482 4.8246-22.563 8.6274-3.9021 2.9065-2.4089 9.1634-.957 15.211 1.0065 4.2215 1.9635 8.2085 1.0148 10.8554-.6848 1.9013-2.442 4.0289-4.4797 6.4998-3.7783 4.5734-8.48068 10.2691-7.64746 16.7103 1.52616 11.7517 32.20696 15.6214 32.52046 15.6549l.7177.0838c10.3452 1.2648 29.5918 3.6101 37.1403-3.5012 4.6199-4.3472 4.4301-9.9257 4.2321-15.8308-.1237-3.6352-.2475-7.4045.7838-10.9895.8002-2.7976 1.9634-5.2601 2.9864-7.4296 1.3447-2.8478 2.4996-5.3104 2.5986-7.8065.2145-5.5868-5.3623-9.2053-11.4259-12.2877-3.8361-1.9516-8.0434-6.3742-11.1206-9.6074-1.1962-1.2564-2.2357-2.3453-3.0441-3.0824-2.5822-2.3453-8.0188-3.6938-13.9916-3.6938z" fill="#7758fe"/><path d="m57.782 88.2252c-4.7519 0-10.1885-.3853-16.3428-1.1559-6.542-.8208-31.2087-6.0726-32.42967-16.8359-.75898-6.7177 4.05887-12.3464 7.92797-16.8695 2.0377-2.3788 3.7949-4.4393 4.4384-6.2402.891-2.4877-.132-6.3742-1.221-10.4868-1.6004-6.0643-3.2586-12.3296.8167-15.3618 5.2139-3.8781 15.2785-8.1248 22.4476-9.4566 9.0252-1.6584 17.4317.8963 20.7645 4.1378.495.4774 1.122 1.1392 1.8562 1.893 3.0029 3.1327 8.0435 8.3677 12.3416 10.311 4.9911 2.2531 11.5909 5.9973 11.3269 12.5306-.1072 2.6301-1.2539 5.1429-2.5821 8.0494-.957 2.0941-2.0377 4.4645-2.805 7.1365-.9982 3.4928-.8414 7.1699-.6929 10.7214.2475 5.8465.4784 11.3747-4.1332 15.8559-3.9681 3.8614-11.1371 5.7711-21.7215 5.7711zm-8.5963-76.4569c-1.8314 0-3.7371.1591-5.6758.5193-7.1113 1.3234-17.0934 5.5282-22.2578 9.3728-3.8196 2.8395-2.2026 8.9541-.6434 14.8676 1.1054 4.188 2.1449 8.1415 1.2044 10.7633-.6765 1.8762-2.4584 3.9702-4.5291 6.3825-3.8114 4.4561-8.55496 9.9927-7.81249 16.5093 1.17149 10.3612 25.95369 15.6633 32.02549 16.4255 19.4446 2.4291 32.1244.9214 37.693-4.4896 4.4549-4.3304 4.2321-9.7497 3.9846-15.4957-.1485-3.5934-.3052-7.304.7095-10.8722.7755-2.7055 1.8644-5.0926 2.8297-7.2034 1.3034-2.8646 2.4336-5.3356 2.5409-7.8735.198-4.7493-3.3164-8.5855-11.0547-12.0784-4.3888-1.9767-9.4542-7.2537-12.4901-10.4115-.7259-.7538-1.3529-1.4071-1.8396-1.8846-2.541-2.4709-8.1343-4.5314-14.6846-4.5314z" fill="#804dfe"/><path d="m54.9111 88.3258c-5.7171 0-10.7907-.5361-13.4224-.8795-6.7482-.8544-30.9035-7.1616-31.90992-17.5898-.65173-6.7763 4.19912-12.2542 8.10122-16.6517 2.0624-2.3285 3.8444-4.3388 4.4796-6.1145.8827-2.4626-.231-6.3156-1.4189-10.3947-1.716-5.9219-3.4897-12.0365.495-15.01 5.189-3.8614 14.701-8.7446 22.1257-10.1937 8.555-1.65846 16.8872 1.3569 20.3769 5.034l.4455.4691c2.6316 2.7809 8.7777 9.2975 13.8925 11.3245 7.499 2.9819 11.1866 7.1196 10.9557 12.3044-.1238 2.6636-1.2375 5.1848-2.5245 8.1081-.9404 2.1275-1.9139 4.3304-2.6481 6.9103-.99 3.4677-.8085 7.0945-.627 10.6041.2887 5.679.5692 11.0481-3.8774 15.5041-5.2716 5.2854-15.6415 6.5669-24.4687 6.5669zm-6.6246-76.8423c-1.5839 0-3.2091.1424-4.8426.4607-7.0947 1.3821-16.7304 6.2235-21.9525 10.11-3.7371 2.7808-2.0047 8.753-.3382 14.5241 1.2044 4.1462 2.3346 8.0662 1.4107 10.6711-.6683 1.8595-2.475 3.9033-4.5704 6.2653-3.8444 4.3305-8.62921 9.7247-7.9857 16.3083.9817 10.1602 24.8564 16.3417 31.5304 17.1877 6.6411.8628 28.9814 2.9987 37.5281-5.5617 4.2981-4.3137 4.0341-9.5822 3.7454-15.1607-.1815-3.5431-.3713-7.2118.6434-10.7549.7425-2.605 1.7655-4.9252 2.673-6.9689 1.2704-2.8814 2.3676-5.3607 2.4831-7.9406.2228-4.9753-3.3741-8.9624-10.6834-11.8689-5.2056-2.0689-11.4011-8.6273-14.0493-11.4333l-.4455-.4691c-2.7471-2.8981-8.5879-5.3607-15.1382-5.3607z" fill="#8942ff"/><path d="m52.4691 88.5101c-4.0918 0-7.9197-.2848-10.9391-.6869-7.2928-.9549-30.59-8.2923-31.3902-18.3352-.54452-6.8433 4.3476-12.1621 8.2744-16.4339 2.0872-2.27 3.8939-4.23 4.5209-5.9889.8745-2.4375-.3382-6.257-1.617-10.2943-1.8314-5.7795-3.7206-11.7516.1733-14.6497 5.5356-4.1211 14.569-9.4566 21.804-10.9225 9.2727-1.88458 17.0357 2.5129 19.9974 5.9303 2.1944 2.5296 9.0747 9.5153 14.4865 11.3915 7.1855 2.4877 10.8484 6.659 10.5927 12.0783-.132 2.7055-1.2127 5.2435-2.4584 8.1751-.8745 2.0605-1.782 4.188-2.4997 6.6673-.9817 3.4426-.7672 7.0192-.5527 10.4785.3382 5.5199.6599 10.7298-3.6217 15.1524-5.6015 5.7879-16.9614 7.4463-26.7704 7.4463zm-4.7931-77.3449c-1.3859 0-2.8214.1341-4.2898.4272-7.169 1.4575-16.1447 6.7595-21.6391 10.8554-3.6546 2.7223-1.8149 8.552-.0247 14.1808 1.3034 4.1126 2.5327 7.9907 1.6087 10.5706-.66 1.8343-2.4914 3.8279-4.6034 6.1313-3.8773 4.2132-8.7034 9.465-8.1672 16.1156.7837 9.8084 23.8252 17.0118 31.0355 17.9583 10.1967 1.3402 29.5423 1.4491 37.363-6.6422 4.1496-4.2886 3.8362-9.4148 3.5062-14.8341-.2145-3.4928-.4373-7.1113.5692-10.6209.7177-2.5044 1.6334-4.6487 2.5162-6.7176 1.2374-2.8981 2.3016-5.4026 2.4254-8.0327.3135-6.5836-5.4283-9.9675-10.3122-11.6595-5.4943-1.9014-12.4488-8.954-14.6597-11.5087-2.3347-2.6888-8.1755-6.2235-15.3198-6.2235z" fill="#9238ff"/></g></svg>